<svg preserveAspectRatio="none" width="100%" height="100%" overflow="visible" style="display: block;" viewBox="0 0 605 804" fill="none" xmlns="http://www.w3.org/2000/svg">
<g id="Vector" filter="url(#filter0_g_0_205)">
<path d="M376.309 558.977L329.196 588.814L320.499 618.576L243.18 628.339L216.178 600.461L213.289 581.517L201.291 541.805L207.473 528.729L190.888 507.916L196.105 495.633C196.547 494.579 196.801 493.988 197.093 493.3L197.594 492.127L191.944 469.228L186.248 463.441L189.699 436.49L181.601 398.034L181.241 376.286L186.233 312.83L237.32 325.734L278.386 293.52L310.149 313.922L387.558 266.823L402.773 379.18L409.98 410.399L408.521 426.719L409.135 428.828L422.846 479.021L371.452 545.318L376.309 558.977ZM426.947 479.836L412.727 427.781L412.308 426.353L413.76 410.138L406.455 378.507L390.499 260.655L310.201 309.511L278.169 288.937L236.452 321.659L182.85 308.12L177.499 376.174L177.866 398.453L185.904 436.64L182.304 464.765L188.553 471.119L193.665 491.805L193.418 492.373C193.209 492.874 192.984 493.405 192.662 494.175L186.578 508.507L203.095 529.238L197.295 541.506L209.629 582.339L212.66 602.203L241.796 632.279L323.403 621.977L332.392 591.214L380.837 560.539L375.665 545.991L426.947 479.836Z" fill="url(#paint0_linear_0_205)"/>
<path d="M173.929 295.703L229.889 309.84L251.099 297.639L275.684 278.358L287.562 283.263L310.336 297.893L398.245 244.402L415.316 370.47L422.247 403.088L422.823 405.592L422.284 423.834L422.95 426.203L423.931 431.392L434.828 471.284L435.786 484.516L425.495 497.786L417.06 515.183L385.11 550.41L378.442 560.674L381.787 576.762L328.762 605.171L315.186 632.944L274.988 638.021L232.89 637.273L203.365 606.793L200.334 586.915L195.431 569.488L188.089 545.176L192.445 531.705L176.175 511.28L175.291 509.83L180.77 496.934C181.174 495.977 181.541 495.11 181.81 494.489L182.334 493.256L182.199 492.403L177.649 469.153L172.62 462.761L173.787 453.618L175.381 434.509L171.856 414.137L168.301 391.223L168.339 366.852L173.937 295.695L173.929 295.703ZM170.546 290.993L164.567 367.009L164.537 391.881L167.935 413.704L171.579 434.696L169.993 453.678L168.653 464.167L174.176 471.179L178.465 492.777L178.21 493.368C178.023 493.824 177.709 494.556 177.417 495.259L171.025 510.316L172.358 512.514L188 532.138L183.921 544.788L184.826 547.315L191.921 570.797L196.674 587.677L199.855 608.543L231.543 641.258L274.479 641.856L318.097 636.346L331.958 607.661L386.173 578.489L382.603 561.392L389.032 551.501L421.573 515.594L430.255 497.764L439.707 485.57L438.645 471.022L427.553 430.412L426.565 425.217L426.116 423.617L426.67 405.555L425.757 401.593L419.051 370.066L401.201 238.227L310.403 293.475L287.24 278.598L275.527 273.731L250.066 293.699L229.14 305.788L170.554 290.993H170.546Z" fill="url(#paint1_linear_0_205)"/>
<path d="M161.633 278.575L222.472 293.938L246.271 284.145L272.99 263.182L285.788 265.948L310.546 281.85L408.955 221.974L427.882 361.746L435.052 398.004L435.696 400.778L436.078 420.94L436.789 423.572L437.559 429.56L450.058 475.306L448.756 490.004L436.961 505.225L431.116 525.791L392.333 563.844L385.47 576.022L387.296 594.533L328.358 621.521L309.894 647.306L266.269 652.816L222.621 646.199L190.582 613.118L187.408 592.305L182.589 573.989L174.902 548.541L177.432 534.665L160.39 513.284L159.694 511.729L165.427 498.227C165.787 497.367 166.273 496.231 166.513 495.663L167.066 494.37L166.999 493.48L163.354 469.071L158.983 462.073L160.211 452.504L161.057 432.536L157.808 409.883L154.994 384.42L155.421 357.424L161.625 278.56L161.633 278.575ZM158.25 273.865L151.649 357.843L151.222 385.31L153.924 409.487L157.277 432.752L156.431 452.579L155.024 463.554L159.822 471.216L163.287 493.727L163.017 494.347C162.845 494.758 162.449 495.693 162.187 496.321L155.488 512.095L156.529 514.45L172.919 535.016L170.561 548.055L171.624 550.641L179.056 575.245L183.726 593.008L187.064 614.875L221.312 650.229L265.67 656.673L312.806 650.722L331.539 624.115L391.524 596.447L389.556 576.807L396.164 565.085L435.614 526.329L441.646 505.285L452.475 491.319L453.89 475.171L441.189 428.671L440.418 422.69L439.932 420.918L439.588 401.002L438.577 396.614L431.647 361.648L411.904 215.814L310.605 277.446L285.474 261.306L272.878 258.54L245.254 280.212L221.836 289.931L158.265 273.873L158.25 273.865Z" fill="url(#paint2_linear_0_205)"/>
<path d="M149.329 261.448L215.04 278.044L241.429 270.666L270.288 248.021L283.999 248.641L310.733 265.814L419.642 199.547L440.426 353.029L447.843 392.92L448.546 395.971L449.841 418.062L450.604 420.963L451.158 427.751L465.251 479.35L461.688 495.521L448.382 512.686L445.126 536.422L399.51 577.308L392.46 591.4L392.774 612.341L327.931 637.901L304.588 661.697L257.543 667.641L212.353 655.156L177.791 619.473L174.476 597.725L169.746 578.512L161.715 551.935L162.419 537.663L144.614 515.317L144.112 513.665L150.107 499.55C150.429 498.78 151.028 497.375 151.245 496.874L151.821 495.528V494.601L149.074 469.033L145.37 461.43L146.65 451.427L146.754 430.592L143.791 405.667L141.71 377.654L142.533 348.027L149.344 261.463L149.329 261.448ZM145.946 256.738L138.716 348.67L137.893 378.723L139.899 405.263L142.96 430.794L142.848 451.472L141.381 462.933L145.452 471.254L148.101 494.676L147.825 495.319C147.675 495.685 147.188 496.822 146.956 497.382L139.951 513.882L140.7 516.394L157.838 537.902L157.202 551.322L158.43 553.968L166.198 579.693L170.779 598.331L174.266 621.192L211.073 659.185L256.854 671.468L307.507 665.076L331.112 640.548L396.868 614.389L396.501 592.2L403.289 578.646L449.646 537.05L453.037 512.79L465.243 497.046L469.135 479.29L454.825 426.891L454.272 420.118L453.755 418.174L452.505 396.412L451.398 391.597L444.25 353.201L422.606 193.379L310.807 261.403L283.707 243.999L270.228 243.326L240.434 266.696L214.516 274.045L145.961 256.73L145.946 256.738Z" fill="url(#paint3_linear_0_205)"/>
<path d="M137.025 244.32L207.616 262.15L236.587 257.179L267.586 232.86L282.21 231.342L310.927 249.785L430.337 177.134L452.977 344.327L460.633 387.859L461.397 391.179L463.612 415.191L464.42 418.354L464.757 425.942L480.451 483.395L474.629 501.031L459.81 520.147L459.144 547.053L406.695 590.765L399.45 606.764L398.253 630.126L327.497 654.258L299.267 676.066L248.794 682.443L202.055 664.089L164.978 625.805L161.521 603.115L156.88 583.005L148.513 555.299L147.39 540.631L128.822 517.328L128.515 515.579L134.772 500.851C135.057 500.178 135.768 498.496 135.955 498.063L136.553 496.657L136.621 495.693L134.772 468.966L131.726 460.758L133.058 450.321L132.422 428.618L129.743 401.413L128.396 370.851L129.616 338.6L137.032 244.328L137.025 244.32ZM133.642 239.61L125.784 339.504L124.564 372.152L125.873 401.047L128.643 428.85L129.271 450.381L127.744 462.335L131.09 471.306L132.916 495.633L132.624 496.306C132.489 496.627 131.921 497.966 131.719 498.459L124.407 515.684L124.863 518.353L142.75 540.803L143.835 554.604L145.22 557.317L153.325 584.164L157.823 603.676L161.468 627.539L200.827 668.171L248.03 686.293L302.201 679.453L330.678 657.002L402.204 632.346L403.432 607.616L410.407 592.238L463.672 547.793L464.413 520.319L477.989 502.802L484.358 483.447L468.432 425.149L468.087 417.584L467.541 415.461L465.393 391.844L464.181 386.611L456.809 344.775L433.271 170.966L310.972 245.374L281.904 226.707L267.549 228.135L235.584 253.209L207.167 258.188L133.635 239.618L133.642 239.61Z" fill="url(#paint4_linear_0_205)"/>
<path d="M124.721 227.193L200.184 246.249L231.745 243.685L264.885 217.683L280.429 214.028L311.122 233.742L441.032 154.698L465.528 335.602L473.424 382.768L474.254 386.357L477.39 412.291L478.251 415.715L478.371 424.095L495.659 487.402L487.576 506.511L471.253 527.57L473.177 557.646L413.894 604.184L406.463 622.097L403.753 647.889L327.086 670.601L293.976 690.42L240.074 697.223L191.794 673.001L152.195 632.122L148.595 608.498L144.045 587.498L135.333 558.663L132.385 543.599L113.053 519.332L112.941 517.478L119.452 502.145C119.692 501.569 120.522 499.618 120.687 499.236L121.308 497.771L121.435 496.769L120.492 468.884L118.112 460.062L119.504 449.192L118.12 426.63L115.717 397.144L115.111 364.033L116.728 329.158L124.751 227.185L124.721 227.193ZM121.338 222.483L112.851 330.339L111.234 365.581L111.848 396.838L114.325 426.914L115.687 449.297L114.093 461.737L116.713 471.366L117.716 496.605L117.416 497.3C117.304 497.577 116.645 499.117 116.473 499.535L108.854 517.485L109.012 520.311L127.647 543.704L130.454 557.886L132.003 560.659L140.453 588.627L144.868 609.014L148.663 633.879L190.582 677.15L239.206 701.111L296.902 693.829L330.244 673.457L407.54 650.304L410.369 623.024L417.524 605.814L477.697 558.528L475.796 527.832L490.749 508.537L499.588 487.581L482.053 423.385L481.926 415.027L481.349 412.732L478.303 387.269L476.994 381.609L469.397 336.335L443.966 148.53L311.167 229.331L280.13 209.392L264.892 212.914L230.757 239.685L199.84 242.302L121.323 222.468L121.338 222.483Z" fill="url(#paint5_linear_0_205)"/>
<path d="M112.424 210.065L192.767 230.355L226.917 230.198L262.198 202.522L278.655 196.721L311.331 217.706L451.734 132.278L478.086 326.885L486.222 377.684L487.112 381.542L491.169 409.397L492.074 413.083L491.977 422.264L510.867 491.424L500.524 511.998L482.689 535.009L487.202 568.255L421.087 617.626L413.46 637.452L409.239 665.674L326.659 686.958L288.669 704.789L231.34 712.025L181.511 681.935L139.39 638.454L135.648 613.896L131.187 591.998L122.131 562.027L117.356 546.559L97.254 521.335L97.3288 519.384L104.102 503.438C104.304 502.959 105.247 500.732 105.382 500.418L106.033 498.893L106.228 497.846L106.183 468.794L104.461 459.367L105.906 448.063L103.78 424.634L101.662 392.868L101.789 357.208L103.795 319.708L112.424 210.035V210.065ZM109.042 205.355L99.9333 321.173L97.9201 359.009L97.8377 392.621L100.023 424.97L102.126 448.198L100.472 461.124L102.366 471.411L102.545 497.562L102.238 498.287C102.141 498.511 101.4 500.261 101.258 500.612L93.3323 519.28L93.1975 522.262L112.582 546.589L117.109 561.16L118.816 563.993L127.602 593.083L131.936 614.352L135.88 640.219L180.351 686.129L230.397 715.935L291.611 708.205L329.825 689.911L412.892 668.261L417.322 638.439L424.657 619.398L491.737 569.264L487.187 535.353L503.517 514.286L514.834 491.731L495.689 421.636L495.779 412.493L495.165 410.025L491.221 382.708L489.814 376.623L482 327.917L454.676 126.125L311.384 213.31L278.379 192.108L262.258 197.722L225.959 226.198L192.55 226.445L109.049 205.355H109.042Z" fill="url(#paint6_linear_0_205)"/>
<path d="M100.12 192.938L185.335 214.461L222.068 216.719L259.488 187.361L276.859 179.421L311.511 201.685L462.414 109.865L490.622 318.183L498.997 372.623L499.948 376.75L504.924 406.527L505.882 410.482L505.568 420.462L526.06 495.483L513.456 517.523L494.11 542.478L501.22 578.901L428.272 631.098L420.451 652.831L414.71 683.475L326.217 703.338L283.341 719.172L222.584 726.843L171.205 690.891L126.569 644.809L122.685 619.316L118.307 596.521L108.914 565.421L102.306 549.557L81.4399 523.369L81.7093 521.32L88.737 504.761C88.8941 504.38 89.9569 501.875 90.0692 501.629L90.7427 500.051L91.0047 498.967L91.8579 468.757L90.8026 458.724L92.3069 446.987L89.433 422.69L87.5919 388.644L88.4526 350.434L90.855 310.303L100.09 192.923L100.12 192.938ZM96.7376 188.228L87.0006 312L84.5907 352.423L83.8049 388.39L85.6984 423.004L88.5349 447.084L86.821 460.503L87.9886 471.441L87.3449 498.504L87.0231 499.251C86.9483 499.431 86.1175 501.382 86.0052 501.666L77.7727 521.059L77.3461 524.199L97.4785 549.468L103.728 564.42L105.591 567.32L114.715 597.523L118.966 619.667L123.067 646.536L170.097 695.085L221.566 730.73L286.297 722.559L329.383 706.344L418.22 686.196L424.253 653.825L431.767 632.959L505.755 579.984L498.555 542.859L516.263 520.012L530.056 495.85L509.303 419.856L509.61 409.921L508.966 407.282L504.124 378.118L502.619 371.614L494.581 319.469L465.363 103.689L311.571 197.266L276.605 174.801L259.608 182.516L221.14 212.697L185.23 210.574L96.745 188.228H96.7376Z" fill="url(#paint7_linear_0_205)"/>
<path d="M87.8164 175.81L177.911 198.56L217.233 203.225L256.794 172.192L275.078 162.114L311.713 185.649L473.117 87.4441L503.188 309.473L511.81 367.547L512.828 371.95L518.718 403.656L519.728 407.872L519.204 418.653L541.29 499.528L526.434 523.04L505.576 549.946L515.275 589.539L435.486 644.57L427.478 668.216L420.226 701.29L325.821 719.726L278.064 733.571L213.88 741.675L160.959 699.854L113.801 651.171L109.775 624.743L105.487 601.052L95.7496 568.823L87.315 552.563L65.6857 525.417L66.1497 523.264L73.4393 506.092C73.5591 505.808 74.7416 503.034 74.8164 502.847L75.5124 501.21L75.8417 500.089L77.6005 468.719L77.2039 458.081L78.7606 445.918L75.1457 420.761L73.589 384.435L75.1906 343.676L77.9897 300.921L87.8314 175.84L87.8164 175.81ZM84.4336 171.1L74.068 302.835L71.2614 345.852L69.7796 384.181L71.3737 421.068L74.9511 446L73.1699 459.905L73.6115 471.501L72.152 499.476L71.8227 500.253C71.7629 500.388 70.8498 502.541 70.76 502.758L62.2205 522.875L61.5021 526.172L82.3829 552.383L90.3536 567.716L92.3818 570.677L101.842 602.001L106.003 625.02L110.254 652.89L159.837 704.078L212.727 745.563L280.976 736.943L328.934 722.806L423.534 704.161L431.168 669.248L438.862 646.551L519.758 590.728L509.916 550.387L529.001 525.769L545.272 500.006L522.909 418.114L523.433 407.386L522.759 404.575L517.011 373.558L515.41 366.627L507.155 311.051L476.043 81.2764L311.75 181.238L274.816 157.509L256.936 167.318L216.297 199.195L177.888 194.71L84.4186 171.1H84.4336Z" fill="url(#paint8_linear_0_205)"/>
<path d="M75.5124 158.683L170.479 182.666L212.391 189.738L254.092 157.023L273.297 144.807L311.908 169.613L483.812 65.0161L515.739 300.749L524.6 362.456L525.678 367.128L532.489 400.755L533.544 405.233L532.803 416.806L556.49 503.535L539.374 528.512L517.011 557.362L529.3 600.125L442.679 657.982L434.476 683.542L425.712 719.038L325.402 736.046L272.758 747.903L205.146 756.44L150.676 708.751L101.004 657.466L96.8274 630.104L92.6287 605.523L82.5476 572.165L72.2868 555.501L49.8866 527.391L50.5452 525.141L58.0968 507.363C58.1791 507.168 59.4739 504.126 59.5262 503.999L60.2447 502.302L60.6414 501.143L63.2983 468.615L63.5677 457.371L65.1768 444.774L60.821 418.75L59.5487 380.151L61.8838 336.85L65.0795 291.471L75.5274 158.69L75.5124 158.683ZM72.1296 153.973L61.1428 293.669L57.9396 339.28L55.7617 379.965L57.0639 419.124L61.3748 444.908L59.5337 459.307L59.2493 471.553L56.9667 500.44L56.6224 501.24C56.585 501.33 55.5821 503.692 55.5222 503.827L46.6759 524.662L45.6655 528.116L67.3023 555.269L76.9943 570.983L79.1797 574.004L88.984 606.45L93.0628 630.343L97.4635 659.208L149.606 713.035L203.918 760.365L275.692 751.304L328.522 739.245L428.893 722.111L438.128 684.648L446.002 660.12L533.806 601.456L521.315 557.893L541.777 531.495L560.517 504.133L536.538 416.343L537.271 404.822L536.568 401.839L529.922 368.975L528.223 361.618L519.743 302.603L486.73 58.841L311.938 165.194L273.035 140.202L254.272 152.104L211.462 185.686L170.561 178.831L72.1071 153.965L72.1296 153.973Z" fill="url(#paint9_linear_0_205)"/>
<path d="M63.2159 141.555L163.055 166.772L207.548 176.251L251.391 141.862L271.508 127.5L312.102 153.577L494.507 42.5956L528.29 292.039L537.391 357.387L538.528 362.329L546.26 397.877L547.367 402.617L546.409 414.99L571.691 507.572L552.314 534.015L528.44 564.816L543.318 610.748L449.863 671.438L441.466 698.913L431.19 736.838L324.967 752.426L267.444 762.294L196.404 771.265L140.385 717.707L88.1906 663.82L83.8723 635.524L79.7635 610.046L69.3455 575.551L57.2585 558.491L34.095 529.424L34.9407 527.077L42.7467 508.686C42.7841 508.589 44.1986 505.27 44.2211 505.21L44.9695 503.453L45.4261 502.257L48.981 468.57L49.9091 456.72L51.578 443.69L46.4738 416.806L45.4784 375.927L48.547 330.077L52.1394 282.074L63.1935 141.585L63.2159 141.555ZM59.8331 136.845L48.2177 284.504L44.6178 332.709L41.7438 375.756L42.7542 417.18L47.806 443.809L45.905 458.694L44.8947 471.598L41.7887 501.389L41.437 502.219C41.4145 502.264 40.3293 504.828 40.2994 504.896L31.1462 526.456L29.8365 530.067L52.2217 558.155L63.6351 574.258L65.9851 577.346L76.1261 610.913L80.1227 635.688L84.6806 665.555L139.375 722.021L195.11 775.19L270.4 765.681L328.103 755.7L434.244 740.068L445.081 700.064L453.134 673.704L547.846 612.191L532.713 565.414L554.552 537.237L575.77 508.267L550.181 414.578L551.132 402.273L550.391 399.111L542.847 364.392L541.051 356.617L532.347 294.163L497.44 36.413L312.147 149.151L271.276 122.895L251.638 136.898L206.665 172.177L163.264 162.952L59.8331 136.83V136.845Z" fill="url(#paint10_linear_0_205)"/>
<path d="M557.344 621.364L457.056 684.88L436.676 754.616L187.67 786.06L75.3927 670.145L66.9131 614.539L56.1509 578.916L18.3109 531.428L30.2407 503.333L38.0167 442.561L32.1716 414.81L31.4606 371.651L50.912 124.428L202.713 162.765L269.727 110.194L312.297 137.541L505.201 20.1677L550.181 352.303L561.191 399.993L560.016 413.165L586.899 511.602L539.876 572.262L557.344 621.364ZM591 512.417L563.802 412.829L564.97 399.731L553.864 351.631L508.143 14L312.349 133.13L269.51 105.611L201.845 158.69L47.5291 119.718L27.7185 371.532L28.437 415.229L34.2222 442.71L26.5959 502.346L14 532.019L52.7755 580.68L63.2534 615.368L71.8751 671.887L186.286 790L439.58 758.018L460.251 687.28L561.872 622.927L544.089 572.935L591 512.417Z" fill="url(#paint11_linear_0_205)"/>
</g>
<defs>
<filter id="filter0_g_0_205" x="0" y="0" width="605" height="804" filterUnits="userSpaceOnUse" color-interpolation-filters="sRGB">
<feFlood flood-opacity="0" result="BackgroundImageFix"/>
<feBlend mode="normal" in="SourceGraphic" in2="BackgroundImageFix" result="shape"/>
<feTurbulence type="fractalNoise" baseFrequency="0.99900001287460327 0.99900001287460327" numOctaves="3" seed="8615" />
<feDisplacementMap in="shape" scale="28" xChannelSelector="R" yChannelSelector="G" result="displacedImage" width="100%" height="100%" />
<feMerge result="effect1_texture_0_205">
<feMergeNode in="displacedImage"/>
</feMerge>
</filter>
<linearGradient id="paint0_linear_0_205" x1="134" y1="402" x2="591" y2="402" gradientUnits="userSpaceOnUse">
<stop stop-color="#1D1C26" stop-opacity="0.25"/>
<stop offset="1" stop-color="#1D1C26" stop-opacity="0.55"/>
</linearGradient>
<linearGradient id="paint1_linear_0_205" x1="134" y1="402" x2="591" y2="402" gradientUnits="userSpaceOnUse">
<stop stop-color="#1D1C26" stop-opacity="0.25"/>
<stop offset="1" stop-color="#1D1C26" stop-opacity="0.55"/>
</linearGradient>
<linearGradient id="paint2_linear_0_205" x1="134" y1="402" x2="591" y2="402" gradientUnits="userSpaceOnUse">
<stop stop-color="#1D1C26" stop-opacity="0.25"/>
<stop offset="1" stop-color="#1D1C26" stop-opacity="0.55"/>
</linearGradient>
<linearGradient id="paint3_linear_0_205" x1="134" y1="402" x2="591" y2="402" gradientUnits="userSpaceOnUse">
<stop stop-color="#1D1C26" stop-opacity="0.25"/>
<stop offset="1" stop-color="#1D1C26" stop-opacity="0.55"/>
</linearGradient>
<linearGradient id="paint4_linear_0_205" x1="134" y1="402" x2="591" y2="402" gradientUnits="userSpaceOnUse">
<stop stop-color="#1D1C26" stop-opacity="0.25"/>
<stop offset="1" stop-color="#1D1C26" stop-opacity="0.55"/>
</linearGradient>
<linearGradient id="paint5_linear_0_205" x1="134" y1="402" x2="591" y2="402" gradientUnits="userSpaceOnUse">
<stop stop-color="#1D1C26" stop-opacity="0.25"/>
<stop offset="1" stop-color="#1D1C26" stop-opacity="0.55"/>
</linearGradient>
<linearGradient id="paint6_linear_0_205" x1="134" y1="402" x2="591" y2="402" gradientUnits="userSpaceOnUse">
<stop stop-color="#1D1C26" stop-opacity="0.25"/>
<stop offset="1" stop-color="#1D1C26" stop-opacity="0.55"/>
</linearGradient>
<linearGradient id="paint7_linear_0_205" x1="134" y1="402" x2="591" y2="402" gradientUnits="userSpaceOnUse">
<stop stop-color="#1D1C26" stop-opacity="0.25"/>
<stop offset="1" stop-color="#1D1C26" stop-opacity="0.55"/>
</linearGradient>
<linearGradient id="paint8_linear_0_205" x1="134" y1="402" x2="591" y2="402" gradientUnits="userSpaceOnUse">
<stop stop-color="#1D1C26" stop-opacity="0.25"/>
<stop offset="1" stop-color="#1D1C26" stop-opacity="0.55"/>
</linearGradient>
<linearGradient id="paint9_linear_0_205" x1="134" y1="402" x2="591" y2="402" gradientUnits="userSpaceOnUse">
<stop stop-color="#1D1C26" stop-opacity="0.25"/>
<stop offset="1" stop-color="#1D1C26" stop-opacity="0.55"/>
</linearGradient>
<linearGradient id="paint10_linear_0_205" x1="134" y1="402" x2="591" y2="402" gradientUnits="userSpaceOnUse">
<stop stop-color="#1D1C26" stop-opacity="0.25"/>
<stop offset="1" stop-color="#1D1C26" stop-opacity="0.55"/>
</linearGradient>
<linearGradient id="paint11_linear_0_205" x1="134" y1="402" x2="591" y2="402" gradientUnits="userSpaceOnUse">
<stop stop-color="#1D1C26" stop-opacity="0.25"/>
<stop offset="1" stop-color="#1D1C26" stop-opacity="0.55"/>
</linearGradient>
</defs>
</svg>
