<svg preserveAspectRatio="none" width="100%" height="100%" overflow="visible" style="display: block;" viewBox="0 0 212.857 11.19" fill="none" xmlns="http://www.w3.org/2000/svg">
<g id="Vector" opacity="0.65">
<path d="M212.857 10.845H209.302L206.527 7.52997H203.437V10.845H200.392V0.344971H207.757C210.442 0.344971 212.527 1.52997 212.527 3.92997C212.527 5.68497 211.417 6.79497 209.767 7.27497L212.857 10.845ZM203.422 5.30997H207.532C208.627 5.30997 209.422 5.00997 209.422 3.98997C209.422 2.96997 208.627 2.66997 207.532 2.66997H203.422V5.30997Z" fill="var(--fill-0, #F8EFFF)"/>
<path d="M195.587 5.36997C197.237 5.47497 198.587 6.34497 198.587 7.96497C198.587 9.77997 196.952 10.845 194.372 10.845H186.257V0.344971H193.772C196.352 0.344971 197.987 1.37997 197.987 3.05997C197.987 4.24497 197.162 5.27997 195.587 5.36997ZM189.287 2.47497V4.52997H193.262C194.282 4.52997 194.957 4.30497 194.957 3.49497C194.957 2.69997 194.282 2.47497 193.262 2.47497H189.287ZM193.727 8.71497C194.807 8.71497 195.452 8.45997 195.452 7.60497C195.452 6.74997 194.807 6.50997 193.727 6.50997H189.287V8.71497H193.727Z" fill="var(--fill-0, #F8EFFF)"/>
<path d="M182.637 11.0399C181.617 11.0399 180.912 10.4099 180.912 9.55493C180.912 8.71493 181.617 8.05493 182.637 8.05493C183.642 8.05493 184.347 8.71493 184.347 9.55493C184.347 10.4099 183.642 11.0399 182.637 11.0399Z" fill="var(--fill-0, #F8EFFF)"/>
<path d="M175.754 0.344971H179.009V10.845H175.964V4.13997L171.779 9.26997H171.629L167.444 4.13997V10.845H164.489V0.344971H167.834L171.779 5.38497L175.754 0.344971Z" fill="var(--fill-0, #F8EFFF)"/>
<path d="M155.773 11.19C151.618 11.19 148.933 9.15 148.933 5.595C148.933 2.04 151.618 0 155.773 0C159.928 0 162.628 2.04 162.628 5.595C162.628 9.15 159.928 11.19 155.773 11.19ZM155.773 8.7C158.083 8.7 159.508 7.575 159.508 5.595C159.508 3.615 158.083 2.49 155.773 2.49C153.478 2.49 152.038 3.615 152.038 5.595C152.038 7.575 153.463 8.7 155.773 8.7Z" fill="var(--fill-0, #F8EFFF)"/>
<path d="M142.264 8.7C143.674 8.7 144.754 8.22 145.489 7.095L148.114 8.445C147.139 9.99 145.024 11.19 142.189 11.19C138.229 11.19 135.559 9.135 135.559 5.595C135.559 2.055 138.229 0 142.309 0C145.024 0 147.124 1.23 148.069 2.73L145.429 4.08C144.739 3 143.674 2.49 142.264 2.49C140.104 2.49 138.664 3.585 138.664 5.595C138.664 7.605 140.104 8.7 142.264 8.7Z" fill="var(--fill-0, #F8EFFF)"/>
<path d="M132.92 11.0399C131.9 11.0399 131.195 10.4099 131.195 9.55493C131.195 8.71493 131.9 8.05493 132.92 8.05493C133.925 8.05493 134.63 8.71493 134.63 9.55493C134.63 10.4099 133.925 11.0399 132.92 11.0399Z" fill="var(--fill-0, #F8EFFF)"/>
<path d="M129.798 4.77V8.865C128.673 10.26 126.603 11.19 123.798 11.19C119.493 11.19 116.823 9.15 116.823 5.595C116.823 2.04 119.493 0 123.798 0C126.393 0 128.268 0.915 129.363 1.935L127.128 3.585C126.228 2.775 125.283 2.415 123.873 2.415C121.323 2.415 119.928 3.54 119.928 5.595C119.928 7.665 121.368 8.79 123.918 8.79C125.208 8.79 126.228 8.535 126.963 7.86V6.915H123.483V4.77H129.798Z" fill="var(--fill-0, #F8EFFF)"/>
<path d="M115.472 4.77V8.865C114.347 10.26 112.277 11.19 109.472 11.19C105.167 11.19 102.497 9.15 102.497 5.595C102.497 2.04 105.167 0 109.472 0C112.067 0 113.942 0.915 115.037 1.935L112.802 3.585C111.902 2.775 110.957 2.415 109.547 2.415C106.997 2.415 105.602 3.54 105.602 5.595C105.602 7.665 107.042 8.79 109.592 8.79C110.882 8.79 111.902 8.535 112.637 7.86V6.915H109.157V4.77H115.472Z" fill="var(--fill-0, #F8EFFF)"/>
<path d="M97.6796 0.344971H100.635V10.845H97.9496L91.1696 3.94497V10.845H88.2146V0.344971H91.4546L97.6796 6.76497V0.344971Z" fill="var(--fill-0, #F8EFFF)"/>
<path d="M85.7375 10.845H82.6775V0.344971H85.7375V10.845Z" fill="var(--fill-0, #F8EFFF)"/>
<path d="M81.5791 10.845H77.9791L74.4541 6.32997L72.1291 8.39997V10.845H69.0691V0.344971H72.1291V5.20497L77.4991 0.344971H81.3091L76.6441 4.52997L81.5791 10.845Z" fill="var(--fill-0, #F8EFFF)"/>
<path d="M59.0323 8.50497H67.2223V10.845H56.0173V0.344971H67.0573V2.68497H59.0323V4.40997H65.6473V6.64497H59.0323V8.50497Z" fill="var(--fill-0, #F8EFFF)"/>
<path d="M50.6755 0.344971H53.7355V5.89497C53.7355 9.08997 51.5605 11.19 47.6455 11.19C43.7305 11.19 41.5405 9.08997 41.5405 5.89497V0.344971H44.6005V5.65497C44.6005 7.48497 45.6205 8.66997 47.6455 8.66997C49.6705 8.66997 50.6755 7.48497 50.6755 5.65497V0.344971Z" fill="var(--fill-0, #F8EFFF)"/>
<path d="M39.7692 4.77V8.865C38.6442 10.26 36.5742 11.19 33.7692 11.19C29.4642 11.19 26.7942 9.15 26.7942 5.595C26.7942 2.04 29.4642 0 33.7692 0C36.3642 0 38.2392 0.915 39.3342 1.935L37.0992 3.585C36.1992 2.775 35.2542 2.415 33.8442 2.415C31.2942 2.415 29.8992 3.54 29.8992 5.595C29.8992 7.665 31.3392 8.79 33.8892 8.79C35.1792 8.79 36.1992 8.535 36.9342 7.86V6.915H33.4542V4.77H39.7692Z" fill="var(--fill-0, #F8EFFF)"/>
<path d="M18.6781 11.19C14.5231 11.19 11.8381 9.15 11.8381 5.595C11.8381 2.04 14.5231 0 18.6781 0C22.8331 0 25.5331 2.04 25.5331 5.595C25.5331 9.15 22.8331 11.19 18.6781 11.19ZM18.6781 8.7C20.9881 8.7 22.4131 7.575 22.4131 5.595C22.4131 3.615 20.9881 2.49 18.6781 2.49C16.3831 2.49 14.9431 3.615 14.9431 5.595C14.9431 7.575 16.3681 8.7 18.6781 8.7Z" fill="var(--fill-0, #F8EFFF)"/>
<path d="M2.055 7.46997C2.7 8.27997 3.435 8.66997 4.605 8.66997C6.42 8.66997 7.11 7.63497 7.11 5.98497V0.344971H10.17V6.22497C10.17 9.13497 8.295 11.19 4.635 11.19C2.46 11.19 1.005 10.47 0 9.25497L2.055 7.46997Z" fill="var(--fill-0, #F8EFFF)"/>
</g>
</svg>
