<svg width="124" height="38" viewBox="0 0 124 38" fill="none" xmlns="http://www.w3.org/2000/svg">
<rect width="123.001" height="25.0079" transform="matrix(0.99981 0.019474 -0.0194761 0.99981 0.682129 0)" fill="#FEDB4E"/>
<g clip-path="url(#clip0_77_330)">
<path d="M-508.509 21.861L-451.97 22.9622L-454.511 20.6476L-441.283 21.876L-432.237 22.0522L-420.644 24.2196L-364.232 25.3183L-356.959 23.5184L-235.482 25.8845L-229.698 27.6215L-121.789 29.7233L-116.918 28.5175L66.8046 32.096L67.269 30.4871L73.7306 30.6129L75.294 33.3124L326.973 38.2145L335.417 36.1246L371.925 36.8357L377.586 38.4729L382.286 35.8765L397.047 40.1463L407.035 42.9296L417.124 40.5374L421.972 39.3374L627.774 43.346L654.887 45.1685L681.348 47.3018L690.16 42.9432L703.698 44.8248L738.267 45.4981L738.406 38.3818L-508.358 14.0977L-508.509 21.861Z" fill="#FEDB4E"/>
</g>
<defs>
<clipPath id="clip0_77_330">
<rect width="123.001" height="11" fill="white" transform="translate(0.214355 24.0034) rotate(1.11585)"/>
</clipPath>
</defs>
</svg>
