<svg width="45" height="15" viewBox="0 0 45 15" fill="none" xmlns="http://www.w3.org/2000/svg">
<path fill-rule="evenodd" clip-rule="evenodd" d="M14.2226 1.76637L12.493 2.88871L12.0421 3.80278C11.9004 4.22702 11.5167 4.89421 11.1627 5.12172L9.52265 6.61429L8.63201 7.82514C8.35249 8.38046 7.90157 8.92046 7.51024 9.22129C6.86545 9.5221 6.18686 9.84996 6.03032 9.94252L4.17806 12.8542L0.630039 14.0538V14.0613L0 12.9005L0.391272 12.029L1.20403 12.1676L1.93052 11.7127L2.71343 12.264L2.97039 11.2381L2.29959 9.24049L4.52856 6.91483L6.39211 6.46364L6.59339 4.8788L8.27058 4.36169C8.69167 4.24198 9.07169 3.54398 9.14994 2.73806C9.83573 1.73537 10.8311 0.975611 11.9828 0.373989L14.3344 0L14.2226 1.76637ZM3.79043 9.35988C3.68614 9.3599 3.60416 9.44483 3.60407 9.55272C3.60407 9.66069 3.68608 9.74553 3.79043 9.74555C3.89478 9.74555 3.97678 9.6607 3.97678 9.55272C3.97669 9.44482 3.89473 9.35988 3.79043 9.35988Z" fill="#C8FE4E"/>
<g opacity="0.25">
<path fill-rule="evenodd" clip-rule="evenodd" d="M20.7046 10.6024L21.5176 9.52521L22.6615 10.5607L21.3549 12.2768L21.3585 12.2766C20.2761 13.0104 19.3162 13.5691 18.4168 13.8131L17.6892 11.4117L17.8396 10.3714L18.8633 9.81857L19.8602 9.34274L20.7046 10.6024ZM19.2625 10.3155C19.0987 10.3235 18.972 10.4903 18.9808 10.6858C18.9898 10.8813 19.1309 11.0348 19.2947 11.0269C19.4584 11.0189 19.5851 10.8524 19.5764 10.657C19.5675 10.4615 19.4263 10.3076 19.2625 10.3155Z" fill="#F8EFFF"/>
<path d="M28.4584 1.70663L29.1516 1.93577L29.2943 3.1089L28.0286 4.65816L25.9482 7.41776L25.3176 8.48609L24.5899 8.81536L23.9745 8.41281L22.8269 9.84936L22.8313 9.85784L21.9109 8.90027L20.8788 9.09726L20.2435 7.9967L20.7663 6.51952L22.3901 5.63013L24.3527 4.55994L24.7036 3.24679C25.3078 2.83005 25.7855 2.25015 26.1436 1.50684L27.5792 0.248169L28.4584 1.70663Z" fill="#F8EFFF"/>
<path d="M29.4634 0.66018C29.632 0.652017 29.7762 0.80869 29.7853 1.00996C29.7943 1.21116 29.6649 1.38071 29.4963 1.38887C29.3278 1.39702 29.1836 1.24072 29.1745 1.03953C29.1654 0.838273 29.2948 0.668356 29.4634 0.66018Z" fill="#F8EFFF"/>
</g>
<path opacity="0.25" d="M44.7729 1.50631L45 2.35768L44.2287 3.02326L43.278 4.52628L41.3625 6.63822L39.9313 8.26478L38.1424 10.1384L37.2554 9.62986L36.9908 11.6275L36.998 11.6368L35.4439 13.7915L34.3705 13.7534L33.5952 11.9745L33.8449 10.543C32.8163 9.63933 33.0698 8.49763 33.6215 7.46079L34.8699 6.44779L37.4304 3.4803C38.4852 2.33407 39.771 1.53936 41.1128 1.13985L42.7488 0.388801L44.2287 0.269897L44.7729 1.50631Z" fill="#F8EFFF"/>
</svg>
