<svg width="187" height="16" viewBox="0 0 187 16" fill="none" xmlns="http://www.w3.org/2000/svg">
<path d="M7.15188 12.88C8.65588 12.88 9.80788 12.368 10.5919 11.168L13.3919 12.608C12.3519 14.256 10.0959 15.536 7.07188 15.536C2.84788 15.536 -0.00011909 13.344 -0.00011909 9.56797C-0.00011909 5.79197 2.84788 3.59997 7.19988 3.59997C10.0959 3.59997 12.3359 4.91197 13.3439 6.51197L10.5279 7.95197C9.79188 6.79997 8.65588 6.25597 7.15188 6.25597C4.84788 6.25597 3.31188 7.42397 3.31188 9.56797C3.31188 11.712 4.84788 12.88 7.15188 12.88ZM18.2789 12.544H25.8149V15.168H15.0149V3.96797H18.2789V12.544ZM37.7095 15.168L36.6535 13.024H30.5095L29.4535 15.168H26.0295L31.8215 3.96797H35.3895L41.1815 15.168H37.7095ZM31.6295 10.704H35.5175L33.5815 6.73597L31.6295 10.704ZM48.048 8.06397C51.712 8.36797 54.304 9.08797 54.304 11.664C54.304 13.968 52.176 15.536 48.112 15.536C45.232 15.536 42.816 14.752 41.056 13.344L42.768 11.328C44.096 12.448 45.936 13.072 48.176 13.072C50.096 13.072 51.056 12.72 51.056 11.984C51.056 11.264 50.16 11.024 47.856 10.832C44.528 10.544 41.504 9.80797 41.504 7.31197C41.504 4.91197 44.096 3.59997 47.648 3.59997C50.048 3.59997 52.256 4.17597 53.792 5.26397L52.144 7.29597C50.896 6.41597 49.392 6.06397 47.648 6.04797C46.336 6.04797 44.752 6.25597 44.752 7.05597C44.752 7.80797 46.048 7.90397 48.048 8.06397ZM62.1886 8.06397C65.8526 8.36797 68.4446 9.08797 68.4446 11.664C68.4446 13.968 66.3166 15.536 62.2526 15.536C59.3726 15.536 56.9566 14.752 55.1966 13.344L56.9086 11.328C58.2366 12.448 60.0766 13.072 62.3166 13.072C64.2366 13.072 65.1966 12.72 65.1966 11.984C65.1966 11.264 64.3006 11.024 61.9966 10.832C58.6686 10.544 55.6446 9.80797 55.6446 7.31197C55.6446 4.91197 58.2366 3.59997 61.7886 3.59997C64.1886 3.59997 66.3966 4.17597 67.9326 5.26397L66.2846 7.29597C65.0366 6.41597 63.5326 6.06397 61.7886 6.04797C60.4766 6.04797 58.8926 6.25597 58.8926 7.05597C58.8926 7.80797 60.1886 7.90397 62.1886 8.06397ZM73.5445 15.168H70.2805V3.96797H73.5445V15.168ZM87.9148 6.54397H79.4508V8.67197H86.5228V11.216H79.4508V15.168H76.1868V3.96797H87.9148V6.54397ZM92.8726 15.168H89.6086V3.96797H92.8726V15.168ZM102.027 12.88C103.531 12.88 104.683 12.368 105.467 11.168L108.267 12.608C107.227 14.256 104.971 15.536 101.947 15.536C97.7229 15.536 94.8749 13.344 94.8749 9.56797C94.8749 5.79197 97.7229 3.59997 102.075 3.59997C104.971 3.59997 107.211 4.91197 108.219 6.51197L105.403 7.95197C104.667 6.79997 103.531 6.25597 102.027 6.25597C99.7229 6.25597 98.1869 7.42397 98.1869 9.56797C98.1869 11.712 99.7229 12.88 102.027 12.88ZM119.835 15.168L118.779 13.024H112.635L111.579 15.168H108.155L113.947 3.96797H117.515L123.307 15.168H119.835ZM113.755 10.704H117.643L115.707 6.73597L113.755 10.704ZM134.284 3.96797V6.57597H129.628V15.168H126.364V6.57597H121.74V3.96797H134.284ZM146.428 -3.24249e-05L142.636 2.68797H140.316L142.508 -3.24249e-05H146.428ZM142.14 15.536C137.708 15.536 134.844 13.36 134.844 9.56797C134.844 5.77597 137.708 3.59997 142.14 3.59997C146.572 3.59997 149.452 5.77597 149.452 9.56797C149.452 13.36 146.572 15.536 142.14 15.536ZM142.14 12.88C144.604 12.88 146.124 11.68 146.124 9.56797C146.124 7.45597 144.604 6.25597 142.14 6.25597C139.692 6.25597 138.156 7.45597 138.156 9.56797C138.156 11.68 139.676 12.88 142.14 12.88ZM164.733 15.168H160.941L157.981 11.632H154.685V15.168H151.437V3.96797H159.293C162.157 3.96797 164.381 5.23197 164.381 7.79197C164.381 9.66397 163.197 10.848 161.437 11.36L164.733 15.168ZM154.669 9.26397H159.053C160.221 9.26397 161.069 8.94397 161.069 7.85597C161.069 6.76797 160.221 6.44797 159.053 6.44797H154.669V9.26397ZM169.748 15.168H166.484V3.96797H169.748V15.168ZM182.694 15.168L181.638 13.024H175.494L174.438 15.168H171.014L176.806 3.96797H180.374L186.166 15.168H182.694ZM176.614 10.704H180.502L178.566 6.73597L176.614 10.704Z" fill="#F8EFFF" fill-opacity="0.25"/>
</svg>
