<svg width="68" height="56" viewBox="0 0 68 56" fill="none" xmlns="http://www.w3.org/2000/svg">
<path d="M61.4893 52.3346C63.3763 52.3346 64.906 53.8642 64.906 55.7512C64.9054 57.6377 63.3759 59.1679 61.4893 59.1679H13.656C11.77 59.1671 10.2399 57.6372 10.2393 55.7512C10.2393 53.8647 11.7697 52.3353 13.656 52.3346H61.4893ZM37.5726 -9.14209C38.2609 -9.14209 38.9416 -9.0047 39.5712 -8.73836L40.1818 -8.42806L40.7457 -8.04102C41.1031 -7.75931 41.4225 -7.43248 41.6933 -7.06673L42.0637 -6.4895L42.0937 -6.43278L52.1602 12.6725L66.7277 0.197021L66.7945 0.140299C67.6355 -0.543398 68.6717 -0.943029 69.754 -1.00081C70.8368 -1.05836 71.9112 -0.770932 72.8203 -0.180014C73.7293 0.411172 74.4289 1.27609 74.8156 2.28906C75.2022 3.30256 75.2569 4.4153 74.9724 5.46216L74.9691 5.4755L65.2863 40.483C64.8908 41.9148 64.0389 43.1785 62.8606 44.0832C61.6818 44.9883 60.2395 45.486 58.7533 45.4979H16.402C14.9151 45.4875 13.4713 44.9911 12.2913 44.0865C11.1116 43.1817 10.2581 41.916 9.86226 40.483L0.182817 5.47884L0.179481 5.46549C-0.104955 4.41868 -0.0503241 3.30593 0.3363 2.2924C0.723039 1.2795 1.42266 0.414465 2.33158 -0.176677C3.12696 -0.69359 4.04779 -0.979601 4.99084 -1.00415L5.3979 -0.997478L5.80163 -0.960775C6.73642 -0.83618 7.62164 -0.454576 8.35746 0.143636C8.37982 0.161822 8.4023 0.181611 8.42419 0.200357L22.9851 12.6759L33.0549 -6.43278L33.0849 -6.4895C33.5272 -7.29262 34.1774 -7.9615 34.9668 -8.42806L35.5773 -8.73836C36.2064 -9.00441 36.885 -9.1419 37.5726 -9.14209ZM29.0143 15.9023L28.9943 15.939C28.5132 16.8255 27.8424 17.5949 27.029 18.1912C26.2155 18.7877 25.2799 19.197 24.2897 19.3891C23.2993 19.5811 22.2776 19.5514 21.3001 19.3023C20.3228 19.0532 19.4116 18.5901 18.6341 17.9477C18.6187 17.9349 18.6026 17.9207 18.5874 17.9076L8.2607 9.059L16.4487 38.6612V38.6645H58.6999V38.6612L66.8879 9.05233L56.5578 17.9043C56.5426 17.9174 56.5266 17.9315 56.5111 17.9443C55.734 18.5863 54.8252 19.0499 53.8485 19.299C52.871 19.5481 51.8492 19.5778 50.8589 19.3857C49.8687 19.1937 48.9331 18.7843 48.1196 18.1879C47.3063 17.5916 46.6353 16.8221 46.1543 15.9357L46.1343 15.899L37.5726 -0.353516L29.0143 15.9023Z" fill="#F8EFFF"/>
</svg>
