<svg width="24" height="24" viewBox="0 0 24 24" fill="none" xmlns="http://www.w3.org/2000/svg">
<g clip-path="url(#clip0_1_118)">
<path d="M23.3242 6.91935L18.1725 1.21976L12.1191 0L4.85587 1.29435L0.369736 8.55645L0 13.7601L2.88805 21.2722L11.3838 24L15.5002 23.744L20.506 20.5867L24 13.373L23.3242 6.91935ZM19.2242 19.4778L14.9702 22.1613L11.5953 22.371L4.14721 19.9778L1.66176 13.5222L1.9822 9.06048L5.87881 2.75L12.0986 1.64315L17.3057 2.68952L21.7426 7.60282L22.3177 13.0887L19.2242 19.4778Z" fill="#FEDB4E"/>
<path d="M20.048 8.34478L16.3794 4.28228L12.0781 3.41736L6.96342 4.32865L3.71385 9.59075L3.45093 13.2621L5.50296 18.5907L11.7679 20.6049L14.4198 20.4395L17.8891 18.252L20.5163 12.8226L20.048 8.34478ZM17.4619 15.4577C17.1825 15.5081 16.9032 15.5605 16.6238 15.6089C15.9501 15.6613 15.2763 15.7036 14.6005 15.7379C13.7542 15.7803 12.9059 15.8105 12.0576 15.8286C12.4232 15.6976 12.7827 15.5666 13.1421 15.4335C13.8672 15.4153 14.5923 15.3891 15.3154 15.3549C15.5228 15.248 15.7303 15.1432 15.9357 15.0383C15.7323 14.8992 15.531 14.7601 15.3297 14.621C14.7053 14.5545 14.085 14.4799 13.4687 14.4012C12.6163 14.4093 11.7659 14.4093 10.9155 14.4012C10.0548 14.4657 9.19211 14.5242 8.32118 14.5706C8.07469 14.7621 7.82614 14.9536 7.57554 15.1411C7.85695 15.1855 8.13836 15.2278 8.41977 15.2702C8.75048 15.3266 9.08119 15.3831 9.4119 15.4375C9.71591 15.4819 10.0199 15.5242 10.3239 15.5645C10.4924 15.6573 10.6608 15.75 10.8313 15.8428C10.5971 15.8448 10.3609 15.8448 10.1267 15.8428C9.42628 15.7903 8.72789 15.7299 8.0295 15.6613C7.35576 15.5081 6.68612 15.3528 6.01443 15.1956C6.03087 14.5545 6.05552 13.9133 6.08427 13.2742C6.15 12.9133 6.21779 12.5545 6.28147 12.1936C6.54439 11.121 6.78266 10.0464 6.96753 8.97179C7.61252 8.84679 8.25134 8.72179 8.88811 8.59478C8.72378 8.75002 8.5574 8.90526 8.38896 9.0605C8.31091 9.08671 8.23285 9.11091 8.1548 9.1351C8.26983 9.66736 8.38075 10.1976 8.49167 10.7299C8.73816 10.9839 8.9867 11.2379 9.2373 11.492C9.33179 11.4496 9.42833 11.4053 9.52488 11.3609C9.57417 11.2299 9.62347 11.1008 9.67277 10.9718C9.90488 10.3206 10.1267 9.67542 10.3424 9.03026C10.3321 8.80849 10.3219 8.5847 10.3095 8.36091C10.7902 8.04841 11.2647 7.73389 11.7392 7.42139C12.3451 7.91131 12.9511 8.40324 13.5673 8.89518C13.4646 9.17341 13.364 9.45163 13.2613 9.73187C13.3373 10.0766 13.4153 10.4234 13.4954 10.7722C13.5797 11.0383 13.668 11.3045 13.7563 11.5726C14.1527 11.1815 14.543 10.7924 14.9271 10.4073C15.0709 10.1653 15.2106 9.92542 15.3523 9.6855C15.4674 9.51413 15.5844 9.34478 15.6995 9.17542C15.5208 9.12099 15.3421 9.06857 15.1654 9.01413C15.0072 8.85284 14.8511 8.68954 14.6971 8.52825C15.5351 8.70768 16.3773 8.88712 17.2318 9.06454C17.3448 10.627 17.5564 12.1855 17.7474 13.744C17.8172 14.1149 17.8871 14.4859 17.9528 14.8549C17.7638 15.0867 17.6529 15.2218 17.4619 15.4577Z" fill="#FEDB4E"/>
</g>
<defs>
<clipPath id="clip0_1_118">
<rect width="24" height="24" fill="white"/>
</clipPath>
</defs>
</svg>
