<svg width="73" height="79" viewBox="0 0 73 79" fill="none" xmlns="http://www.w3.org/2000/svg">
<g filter="url(#filter0_d_118_170)">
<path fill-rule="evenodd" clip-rule="evenodd" d="M37.0651 20.1762L42.0505 21.4271L47.6384 26.6576L49.1628 31.9836V36.8235H53V52.8824L51.9755 54.175L53 55.0771V59H20V49.5218L20.8701 46.3697L20 46V36.8235H23.8372V31.9836L25.3616 26.6576L30.9495 21.4271L35.9342 20.1762L36.5 20L37.0651 20.1762ZM34.4218 44.0927L33.814 46.6803L35.3091 48.5017V52.1176H38.4583V48.5017L39.9535 46.6803L39.3457 44.0927L36.8837 42.9412L34.4218 44.0927ZM33.063 24.8548L29.0234 28.6358L27.9217 32.487V36.8235H36.9729L38.9387 38.4948L39.9535 36.8235H45.0783V32.487L43.9766 28.6358L39.937 24.8548L36.5 23.993L33.063 24.8548Z" fill="#F8EFFF"/>
</g>
<defs>
<filter id="filter0_d_118_170" x="0" y="0" width="73" height="79" filterUnits="userSpaceOnUse" color-interpolation-filters="sRGB">
<feFlood flood-opacity="0" result="BackgroundImageFix"/>
<feColorMatrix in="SourceAlpha" type="matrix" values="0 0 0 0 0 0 0 0 0 0 0 0 0 0 0 0 0 0 127 0" result="hardAlpha"/>
<feOffset/>
<feGaussianBlur stdDeviation="10"/>
<feComposite in2="hardAlpha" operator="out"/>
<feColorMatrix type="matrix" values="0 0 0 0 0 0 0 0 0 0 0 0 0 0 0 0 0 0 0.55 0"/>
<feBlend mode="normal" in2="BackgroundImageFix" result="effect1_dropShadow_118_170"/>
<feBlend mode="normal" in="SourceGraphic" in2="effect1_dropShadow_118_170" result="shape"/>
</filter>
</defs>
</svg>
