<svg width="16" height="16" viewBox="0 0 16 16" fill="none" xmlns="http://www.w3.org/2000/svg">
<path d="M14.9549 13.761L11.6157 10.4204C12.6169 9.11577 13.0844 7.47912 12.9232 5.84249C12.7621 4.20586 11.9844 2.6918 10.748 1.60746C9.51157 0.523114 7.90899 -0.050324 6.26532 0.00346934C4.62166 0.0572626 3.06 0.734259 1.89713 1.89713C0.734259 3.06 0.0572626 4.62166 0.00346934 6.26532C-0.050324 7.90899 0.523114 9.51157 1.60746 10.748C2.6918 11.9844 4.20586 12.7621 5.84249 12.9232C7.47912 13.0844 9.11577 12.6169 10.4204 11.6157L13.7624 14.9584C13.8409 15.0369 13.9341 15.0991 14.0366 15.1416C14.1391 15.1841 14.2491 15.206 14.36 15.206C14.471 15.206 14.5809 15.1841 14.6835 15.1416C14.786 15.0991 14.8792 15.0369 14.9577 14.9584C15.0362 14.8799 15.0984 14.7867 15.1409 14.6842C15.1834 14.5817 15.2053 14.4717 15.2053 14.3607C15.2053 14.2498 15.1834 14.1398 15.1409 14.0373C15.0984 13.9348 15.0362 13.8416 14.9577 13.7631L14.9549 13.761ZM1.70169 6.48294C1.70169 5.53729 1.9821 4.61289 2.50747 3.82662C3.03284 3.04034 3.77957 2.42752 4.65323 2.06564C5.52689 1.70376 6.48824 1.60907 7.41571 1.79356C8.34318 1.97804 9.19512 2.43341 9.86379 3.10208C10.5325 3.77075 10.9878 4.62269 11.1723 5.55016C11.3568 6.47763 11.2621 7.43898 10.9002 8.31264C10.5384 9.1863 9.92553 9.93303 9.13926 10.4584C8.35298 10.9838 7.42858 11.2642 6.48294 11.2642C5.21527 11.2629 3.9999 10.7587 3.10352 9.86235C2.20714 8.96597 1.70299 7.7506 1.70169 6.48294Z" fill="#F8EFFF" fill-opacity="0.55"/>
</svg>
