<svg width="22" height="18" viewBox="0 0 22 18" fill="none" xmlns="http://www.w3.org/2000/svg">
<path d="M1.48041 17.9996C0.647463 18.0173 0.0918813 17.4532 0.0163154 16.7075L0 14.7677C0.0515222 14.5933 0.133099 14.4302 0.246448 14.296C4.89719 10.6406 11.6741 10.6559 16.3051 14.333C16.3901 14.4929 16.4545 14.6664 16.5043 14.8512L16.4948 16.7131C16.4682 17.4001 15.9667 17.9385 15.1587 17.9996H1.48041Z" fill="#F8EFFF"/>
<path d="M7.64762 2.61062C9.97041 2.30526 11.9909 3.79105 12.3284 5.85941C12.6607 7.96152 11.1022 9.92623 8.85496 10.2356C6.6395 10.5482 4.55199 9.12106 4.1879 7.05189C3.82639 4.96264 5.3128 2.94811 7.64762 2.61062Z" fill="#F8EFFF"/>
<path d="M20.6699 15.4274H17.8782L17.8688 14.6962C17.8318 14.1602 17.612 13.6869 17.1749 13.3398C15.5022 12.0163 13.5607 11.1171 11.4242 10.6293C12.0751 10.1416 12.562 9.64096 12.9836 9.02946C16.2029 8.83339 19.2865 9.8081 21.7407 11.7093C21.8712 11.8588 21.9528 12.0195 22 12.1955L21.9888 14.1409C21.9742 14.8263 21.4375 15.3655 20.6699 15.4266V15.4274Z" fill="#F8EFFF"/>
<path d="M13.5804 7.7076C14.2425 5.16031 12.8711 2.69821 10.3594 1.66643C11.5556 0.0850282 13.6543 -0.403536 15.4498 0.341364C17.2041 1.09028 18.2131 2.90231 17.7589 4.72961C17.3312 6.43878 15.6722 7.76385 13.5804 7.7076Z" fill="#F8EFFF"/>
</svg>
