<svg preserveAspectRatio="none" width="100%" height="100%" overflow="visible" style="display: block;" viewBox="0 0 122 7" fill="none" xmlns="http://www.w3.org/2000/svg">
<g id="Frame 206" clip-path="url(#clip0_0_19)">
<rect width="122" height="7" fill="#9D0DE9"/>
<g id="Vector" opacity="0.55">
<path d="M73.1356 -50.7558L100.815 -33.2229L105.925 -15.7339L151.352 -9.99655L167.216 -26.3784L168.914 -37.5106L175.962 -60.8467L172.33 -68.5303L182.074 -80.7607L179.009 -87.9786C178.75 -88.598 178.6 -88.9451 178.429 -89.3492L178.134 -90.0389L181.454 -103.495L184.8 -106.895L182.773 -122.732L187.531 -145.331L187.742 -158.11L184.809 -195.399L154.794 -187.816L130.668 -206.746L112.006 -194.757L66.5268 -222.434L57.5874 -156.41L53.353 -138.064L54.2105 -128.474L53.8499 -127.235L45.7944 -97.74L75.9894 -58.782L73.1356 -50.7558ZM43.3848 -97.2612L51.7393 -127.85L51.9855 -128.689L51.1325 -138.218L55.4241 -156.805L64.7987 -226.058L111.975 -197.349L130.795 -209.439L155.305 -190.211L186.797 -198.166L189.941 -158.176L189.725 -145.085L185.003 -122.645L187.118 -106.118L183.446 -102.384L180.443 -90.2278L180.588 -89.8939C180.711 -89.5996 180.843 -89.2877 181.032 -88.8352L184.607 -80.4136L174.902 -68.2316L178.31 -61.0225L171.064 -37.0273L169.283 -25.3548L152.165 -7.68136L104.219 -13.7351L98.9379 -31.8127L70.4754 -49.8376L73.5138 -58.3866L43.3848 -97.2612Z" fill="var(--fill-0, #E9BEFF)"/>
<path d="M192.038 -205.463L159.161 -197.156L146.699 -204.326L132.255 -215.655L125.277 -212.774L111.896 -204.176L60.2477 -235.609L50.2179 -161.528L46.1462 -142.361L45.8076 -140.889L46.1242 -130.17L45.7328 -128.777L45.1568 -125.729L38.7546 -102.287L38.1918 -94.5111L44.2378 -86.7134L49.1934 -76.4906L67.9646 -55.7903L71.8825 -49.7585L69.9169 -40.3046L101.071 -23.6108L109.047 -7.29042L132.664 -4.30748L157.398 -4.74677L174.744 -22.6575L176.525 -34.3387L179.405 -44.5791L183.719 -58.8654L181.16 -66.7818L190.719 -78.7838L191.238 -79.6361L188.019 -87.2142C187.782 -87.7765 187.566 -88.2861 187.408 -88.6507L187.1 -89.3756L187.179 -89.8764L189.853 -103.539L192.808 -107.295L192.122 -112.668L191.185 -123.897L193.256 -135.868L195.345 -149.333L195.323 -163.654L192.034 -205.468L192.038 -205.463ZM194.026 -208.231L197.539 -163.562L197.556 -148.946L195.56 -136.123L193.419 -123.787L194.351 -112.633L195.138 -106.469L191.893 -102.348L189.373 -89.6567L189.523 -89.3097C189.633 -89.0417 189.817 -88.6112 189.989 -88.1982L193.744 -79.3505L192.961 -78.0589L183.771 -66.527L186.168 -59.0939L185.636 -57.609L181.467 -43.8103L178.675 -33.8907L176.806 -21.6295L158.189 -2.40525L132.963 -2.0538L107.336 -5.29154L99.193 -22.1478L67.3402 -39.2898L69.4377 -49.3368L65.6605 -55.1489L46.5419 -76.249L41.4412 -86.7265L35.8877 -93.8917L36.5121 -102.441L43.0286 -126.304L43.609 -129.357L43.8728 -130.297L43.5475 -140.911L44.0839 -143.239L48.0237 -161.765L58.5108 -239.238L111.857 -206.773L125.466 -215.515L132.347 -218.375L147.306 -206.641L159.601 -199.537L194.021 -208.231H194.026Z" fill="var(--fill-0, #E9BEFF)"/>
<path d="M199.263 -215.528L163.518 -206.5L149.536 -212.255L133.838 -224.573L126.319 -222.948L111.773 -213.604L53.9554 -248.788L42.8351 -166.655L38.6227 -145.348L38.2445 -143.718L38.0203 -131.87L37.6026 -130.324L37.1496 -126.805L29.8065 -99.9234L30.5716 -91.2866L37.5014 -82.3422L40.9356 -70.2568L63.7214 -47.8959L67.7536 -40.7395L66.6807 -29.8622L101.308 -14.0031L112.156 1.14875L137.786 4.38648L163.43 0.498602L182.254 -18.9409L184.119 -31.1713L186.951 -41.9344L191.466 -56.8885L189.98 -65.0422L199.992 -77.6064L200.401 -78.5202L197.033 -86.4541C196.822 -86.9594 196.536 -87.6271 196.396 -87.961L196.07 -88.721L196.11 -89.2438L198.251 -103.587L200.819 -107.699L200.098 -113.322L199.601 -125.056L201.509 -138.368L203.163 -153.33L202.912 -169.194L199.267 -215.537L199.263 -215.528ZM201.25 -218.296L205.128 -168.948L205.379 -152.808L203.792 -138.6L201.822 -124.929L202.318 -113.278L203.145 -106.829L200.327 -102.326L198.291 -89.0988L198.449 -88.7342C198.55 -88.4925 198.783 -87.9434 198.937 -87.5744L202.873 -78.3049L202.261 -76.9211L192.632 -64.8357L194.017 -57.1741L193.392 -55.6541L189.026 -41.1964L186.282 -30.7584L184.321 -17.9085L164.2 2.86648L138.138 6.65332L110.445 3.15642L99.4392 -12.4787L64.1963 -28.7375L65.3528 -40.2782L61.4701 -47.1666L38.2929 -69.9405L34.7488 -82.307L28.3862 -90.5134L27.5551 -100.002L35.0171 -127.328L35.47 -130.842L35.7558 -131.883L35.958 -143.587L36.5517 -146.165L40.6234 -166.712L52.223 -252.408L111.738 -216.191L126.503 -225.676L133.904 -227.302L150.134 -214.566L163.892 -208.855L201.241 -218.291L201.25 -218.296Z" fill="var(--fill-0, #E9BEFF)"/>
<path d="M206.491 -225.593L167.885 -215.84L152.38 -220.176L135.425 -233.483L127.37 -233.118L111.663 -223.027L47.6764 -261.968L35.4656 -171.777L31.108 -148.335L30.6947 -146.543L29.934 -133.561L29.4855 -131.857L29.1601 -127.868L20.8803 -97.5467L22.9734 -88.0444L30.7914 -77.9579L32.7042 -64.0098L59.5046 -39.9839L63.6467 -31.7029L63.462 -19.3978L101.559 -4.37778L115.273 9.60549L142.913 13.098L169.463 5.76151L189.769 -15.2068L191.717 -27.9863L194.496 -39.2766L199.214 -54.8941L198.801 -63.2805L209.262 -76.4115L209.556 -77.3824L206.034 -85.6766C205.845 -86.1291 205.493 -86.955 205.366 -87.2493L205.027 -88.0401V-88.5848L206.641 -103.609L208.817 -108.077L208.066 -113.955L208.004 -126.199L209.745 -140.845L210.968 -157.306L210.484 -174.716L206.483 -225.584L206.491 -225.593ZM208.479 -228.36L212.726 -174.338L213.21 -156.678L212.032 -141.082L210.233 -126.08L210.299 -113.929L211.161 -107.194L208.769 -102.304L207.212 -88.5409L207.375 -88.1631C207.463 -87.9478 207.749 -87.2801 207.885 -86.9506L212.001 -77.255L211.561 -75.7789L201.492 -63.1399L201.866 -55.2543L201.144 -53.6991L196.58 -38.5825L193.889 -27.6305L191.84 -14.1964L170.215 8.12942L143.318 15.3473L113.558 11.5912L99.6898 -2.82259L61.0568 -18.1941L61.2722 -31.2328L57.284 -39.1975L30.0483 -63.6407L28.0564 -77.8964L20.8847 -87.1483L18.5982 -97.5819L27.0055 -128.373L27.3309 -132.353L27.6343 -133.496L28.3686 -146.284L29.0194 -149.113L33.2186 -171.676L45.9351 -265.592L111.619 -225.619L127.541 -235.846L135.46 -236.241L152.965 -222.509L168.192 -218.19L208.47 -228.365L208.479 -228.36Z" fill="var(--fill-0, #E9BEFF)"/>
<path d="M213.72 -235.657L172.247 -225.18L155.225 -228.101L137.013 -242.392L128.421 -243.284L111.549 -232.446L41.3929 -275.138L28.0916 -176.891L23.5933 -151.31L23.1449 -149.359L21.8433 -135.248L21.3684 -133.39L21.1705 -128.931L11.9498 -95.1701L15.3707 -84.8067L24.077 -73.5735L24.4684 -57.7628L55.2834 -32.0763L59.5398 -22.675L60.2433 -8.94657L101.814 5.23435L118.4 18.0491L148.054 21.7963L175.514 11.0113L197.297 -11.4858L199.328 -24.8189L202.055 -36.6364L206.971 -52.9172L207.63 -61.5364L218.539 -75.2298L218.72 -76.2578L215.044 -84.9122C214.877 -85.3076 214.459 -86.296 214.349 -86.5508L213.997 -87.3767L213.958 -87.9434L215.044 -103.649L216.833 -108.472L216.051 -114.605L216.424 -127.358L217.999 -143.345L218.79 -161.304L218.073 -180.256L213.716 -235.653L213.72 -235.657ZM215.708 -238.425L220.325 -179.724L221.041 -160.539L220.272 -143.56L218.645 -127.222L218.276 -114.57L219.173 -107.545L217.207 -102.274L216.134 -87.9786L216.306 -87.5832C216.385 -87.3943 216.719 -86.6079 216.838 -86.318L221.134 -76.1963L220.866 -74.6279L210.356 -61.4354L209.719 -53.3257L208.905 -51.731L204.143 -35.9554L201.501 -24.4894L199.359 -10.4666L176.235 13.4099L148.502 24.0588L116.676 20.0391L99.9449 6.84664L57.9216 -7.64184L57.2005 -22.1742L53.1024 -31.2108L21.8081 -57.3279L21.3728 -73.4725L13.3964 -83.7656L9.6545 -95.1393L19.0115 -129.397L19.2138 -133.843L19.5348 -135.09L20.7968 -148.968L21.5091 -152.043L25.8403 -176.627L39.6692 -278.762L111.522 -235.038L128.601 -246.007L137.035 -245.168L155.815 -230.434L172.51 -227.508L215.712 -238.42L215.708 -238.425Z" fill="var(--fill-0, #E9BEFF)"/>
<path d="M220.949 -245.722L176.613 -234.524L158.07 -236.031L138.6 -251.31L129.467 -253.458L111.435 -241.873L35.1094 -288.322L20.7176 -182.017L16.0787 -154.301L15.5906 -152.193L13.7482 -136.953L13.2425 -134.941L13.1722 -130.016L3.01485 -92.8154L7.76372 -81.5866L17.3538 -69.2112L16.2238 -51.5378L51.0533 -24.1907L55.4197 -13.6648L57.0114 1.49145L102.055 14.8377L121.508 26.4838L153.176 30.4816L181.542 16.2479L204.807 -7.77364L206.922 -21.6558L209.596 -33.9961L214.714 -50.9403L216.446 -59.7924L227.804 -74.0524L227.87 -75.1419L224.045 -84.1522C223.904 -84.4904 223.416 -85.637 223.319 -85.8611L222.954 -86.7221L222.879 -87.3108L223.433 -103.697L224.832 -108.881L224.014 -115.269L224.827 -128.527L226.239 -145.853L226.595 -165.31L225.645 -185.804L220.931 -245.726L220.949 -245.722ZM222.937 -248.489L227.923 -185.11L228.873 -164.401L228.512 -146.033L227.057 -128.36L226.256 -115.207L227.193 -107.897L225.654 -102.239L225.065 -87.4075L225.241 -86.9989C225.307 -86.8364 225.694 -85.9314 225.795 -85.6854L230.271 -75.1375L230.179 -73.4769L219.23 -59.7309L217.581 -51.3972L216.671 -49.7673L211.706 -33.3327L209.112 -21.3527L206.883 -6.74128L182.254 18.686L153.686 32.766L119.789 28.487L100.2 16.5158L54.7865 2.91041L53.1244 -13.12L48.9207 -23.233L13.5679 -51.0194L14.6848 -69.0574L5.89935 -80.3961L0.706357 -92.71L11.0088 -130.434L11.0836 -135.345L11.4221 -136.694L13.2118 -151.657L13.9812 -154.982L18.4443 -181.587L33.3857 -291.946L111.408 -244.465L129.643 -256.182L138.595 -254.113L158.651 -238.381L176.815 -236.843L222.945 -248.498L222.937 -248.489Z" fill="var(--fill-0, #E9BEFF)"/>
<path d="M228.174 -255.786L180.97 -243.864L160.906 -243.956L140.178 -260.219L130.509 -263.628L111.311 -251.297L28.8215 -301.497L13.3393 -187.14L8.5596 -157.289L8.03634 -155.022L5.65312 -138.653L5.12105 -136.487L5.17821 -131.093L-5.9201 -90.4519L0.156721 -78.3621L10.6351 -64.8401L7.98357 -45.3039L46.8277 -16.2919L51.3084 -4.64136L53.7884 11.9426L102.306 24.4498L124.626 34.9274L158.308 39.1799L187.584 21.4976L212.331 -4.05265L214.529 -18.484L217.15 -31.3514L222.47 -48.9634L225.276 -58.0527L237.086 -72.8751L237.043 -74.0217L233.063 -83.3922C232.944 -83.6733 232.39 -84.9825 232.311 -85.167L231.929 -86.0632L231.814 -86.6782L231.841 -103.75L232.852 -109.29L232.003 -115.932L233.252 -129.7L234.497 -148.366L234.422 -169.321L233.243 -191.357L228.174 -255.804V-255.786ZM230.161 -258.554L235.512 -190.496L236.695 -168.263L236.744 -148.511L235.46 -129.502L234.224 -115.853L235.196 -108.257L234.083 -102.212L233.978 -86.8451L234.158 -86.419C234.215 -86.2872 234.65 -85.2592 234.734 -85.0527L239.391 -74.0832L239.47 -72.3303L228.081 -58.0351L225.421 -49.473L224.418 -47.808L219.256 -30.7144L216.71 -18.2161L214.393 -3.01591L188.265 23.9622L158.862 41.4775L122.898 36.935L100.446 26.1851L51.6426 13.4627L49.0394 -4.06144L44.7303 -15.2507L5.31893 -44.7109L7.99238 -64.638L-1.60213 -77.0178L-8.25057 -90.2718L2.99726 -131.462L2.94451 -136.834L3.30508 -138.284L5.62233 -154.336L6.44898 -157.912L11.0396 -186.534L27.0934 -305.112L111.281 -253.88L130.672 -266.339L140.143 -263.039L161.469 -246.306L181.098 -246.161L230.157 -258.554H230.161Z" fill="var(--fill-0, #E9BEFF)"/>
<path d="M235.402 -265.851L185.337 -253.203L163.756 -251.877L141.77 -269.128L131.564 -273.794L111.206 -260.711L22.5468 -314.667L5.9741 -192.253L1.05373 -160.263L0.495306 -157.838L-2.42878 -140.34L-2.9916 -138.016L-2.80694 -132.151L-14.8462 -88.0665L-7.44149 -75.1155L3.92505 -60.4514L-0.252202 -39.0482L42.6065 -8.37551L47.2015 4.39527L50.5741 22.4026L102.566 34.0751L127.757 43.3797L163.452 47.887L193.639 26.7605L219.863 -0.318533L222.145 -15.2991L224.717 -28.6936L230.236 -46.9689L234.118 -56.2911L246.378 -71.6802L246.219 -72.8839L242.09 -82.6146C241.998 -82.8386 241.374 -84.3103 241.308 -84.4553L240.912 -85.3822L240.758 -86.0193L240.257 -103.772L240.877 -109.667L239.993 -116.565L241.681 -130.842L242.763 -150.848L242.257 -173.301L240.846 -196.884L235.42 -265.86L235.402 -265.851ZM237.39 -268.619L243.111 -195.886L244.526 -172.133L244.988 -150.998L243.876 -130.658L242.209 -116.507L243.216 -108.622L242.53 -102.195L242.908 -86.2916L243.097 -85.8523C243.141 -85.7469 243.629 -84.6003 243.695 -84.4333L248.532 -73.0376L248.783 -71.1925L236.955 -56.3438L233.283 -47.5576L232.188 -45.8531L226.828 -28.1049L224.33 -15.0925L221.921 0.69626L194.289 29.2251L164.05 50.1714L126.02 45.3698L100.706 35.8411L48.5118 24.0017L44.9677 4.97952L40.553 -7.28163L-2.91687 -38.4112L1.31317 -60.2273L-9.0904 -73.6527L-17.1943 -87.8511L-5.00109 -132.507L-5.18139 -138.346L-4.80322 -139.896L-1.95829 -157.034L-1.07446 -160.856L3.64804 -191.498L20.8144 -318.296L111.171 -263.307L131.714 -276.509L141.7 -271.975L164.301 -254.24L185.398 -255.488L237.385 -268.619H237.39Z" fill="var(--fill-0, #E9BEFF)"/>
<path d="M242.631 -275.916L189.699 -262.547L166.596 -259.806L143.353 -278.042L132.611 -283.964L111.087 -270.134L16.259 -327.842L-1.40865 -197.371L-6.47414 -163.246L-7.07214 -160.658L-10.5327 -142.027L-11.1263 -139.549L-10.8185 -133.214L-23.7943 -85.6898L-15.0661 -71.8734L-2.81131 -56.0626L-8.51001 -32.7968L38.3677 -0.459092L43.0726 13.4363L47.3334 32.8714L102.799 43.7048L130.857 51.8408L168.566 56.6029L199.658 32.0279L227.364 3.42L229.73 -12.1096L232.25 -26.0314L237.97 -44.97L242.926 -54.5251L255.634 -70.4764L255.361 -71.7416L251.078 -81.8326C251.008 -81.9996 250.313 -83.6294 250.269 -83.7392L249.86 -84.7013L249.667 -85.3603L248.633 -103.794L248.866 -110.045L247.952 -117.193L250.076 -131.976L250.99 -153.322L250.049 -177.273L248.405 -202.397L242.622 -275.898L242.631 -275.916ZM244.619 -278.683L250.709 -201.272L252.358 -175.994L253.228 -153.471L252.292 -131.795L250.19 -117.144L251.236 -108.973L250.977 -102.16L251.834 -85.7205L252.028 -85.2636C252.063 -85.1846 252.6 -83.9193 252.652 -83.7919L257.669 -71.9701L258.092 -70.0327L245.824 -54.6305L241.141 -45.6203L239.949 -43.8806L234.391 -25.4735L231.946 -11.9471L229.449 4.43041L200.318 34.51L169.243 58.8873L129.146 53.8221L100.969 45.5147L45.3898 34.5583L40.9048 14.0425L36.3846 0.705047L-11.1439 -32.0983L-5.36166 -55.8035L-16.5743 -70.27L-26.1336 -85.4086L-12.995 -133.531L-13.3028 -139.835L-12.9071 -141.487L-9.53011 -159.714L-8.58912 -163.786L-3.73909 -196.444L14.5397 -331.466L111.065 -272.726L132.765 -286.67L143.27 -280.906L167.146 -262.174L189.712 -264.81L244.628 -278.683H244.619Z" fill="var(--fill-0, #E9BEFF)"/>
<path d="M249.86 -285.98L194.065 -271.887L169.441 -267.731L144.941 -286.956L133.658 -294.134L110.973 -279.558L9.97549 -341.021L-8.78262 -202.498L-13.9888 -166.237L-14.622 -163.492L-18.6234 -143.731L-19.2434 -141.1L-18.808 -134.299L-32.7249 -83.3351L-22.6687 -68.6577L-9.53011 -51.7047L-16.7502 -26.5761L34.142 7.42214L38.9613 22.4421L44.1103 43.3006L103.045 53.2949L133.974 60.2624L173.698 65.2793L205.7 37.2557L234.884 7.119L237.337 -8.95977L239.804 -23.4043L245.727 -43.0063L251.755 -52.7986L264.916 -69.3166L264.529 -70.639L260.092 -81.0858C260.044 -81.2 259.283 -82.988 259.252 -83.0627L258.83 -84.0599L258.597 -84.7408L257.036 -103.855L256.878 -110.462L255.933 -117.865L258.492 -133.157L259.239 -155.839L257.867 -181.284L255.99 -207.95L249.851 -285.976L249.86 -285.98ZM251.848 -288.748L258.303 -206.658L260.185 -179.856L261.464 -155.949L260.699 -132.938L258.166 -117.786L259.248 -109.325L259.415 -102.129L260.756 -85.1538L260.958 -84.6837C260.98 -84.631 261.57 -83.2428 261.605 -83.1637L266.802 -70.9201L267.396 -68.8905L254.684 -52.9348L248.989 -43.7005L247.706 -41.9256L241.945 -22.8596L239.549 -8.81921L236.963 8.14258L206.329 39.7729L174.419 67.5857L132.25 62.2612L101.211 55.1752L42.2415 45.1062L36.8155 23.0923L32.1897 8.67856L-19.3972 -25.7942L-12.0585 -51.3928L-24.0802 -66.9048L-35.0906 -82.9836L-21.0022 -134.572L-21.4331 -141.342L-21.0198 -143.094L-17.1151 -162.407L-16.117 -166.729L-11.1351 -201.409L8.2606 -344.65L110.955 -282.154L133.811 -296.84L144.835 -289.846L169.987 -270.112L194.017 -274.141L251.861 -288.752L251.848 -288.748Z" fill="var(--fill-0, #E9BEFF)"/>
<path d="M257.085 -296.045L198.427 -281.227L172.286 -275.656L146.528 -295.865L134.708 -304.304L110.858 -288.981L3.692 -354.196L-16.1566 -207.616L-21.5035 -169.216L-22.1718 -166.312L-26.714 -145.423L-27.3648 -142.638L-26.802 -135.367L-41.6554 -80.9628L-30.2713 -65.4244L-16.2445 -47.3248L-24.986 -20.3335L29.9208 15.3297L34.8544 31.4744L40.8916 53.7606L103.3 62.9202L137.096 68.7191L178.834 73.9908L211.746 42.5186L242.411 10.8532L244.949 -5.77479L247.363 -20.7465L253.483 -41.0162L260.585 -51.0413L274.194 -68.1217L273.697 -69.5012L269.111 -80.3082C269.089 -80.3653 268.258 -82.3159 268.244 -82.351L267.805 -83.3834L267.537 -84.0863L265.448 -103.882L264.903 -110.845L263.922 -118.502L266.921 -134.299L267.506 -158.321L265.703 -185.264L263.592 -213.472L257.098 -296.027L257.085 -296.045ZM259.072 -298.812L265.896 -212.044L268.011 -183.718L269.7 -158.422L269.106 -134.08L266.138 -118.432L267.255 -109.685L267.849 -102.102L269.674 -84.5959L269.88 -84.1082C269.893 -84.0819 270.531 -82.575 270.549 -82.5355L275.926 -69.8658L276.696 -67.7439L263.544 -51.239L256.838 -41.7763L255.458 -39.9619L249.5 -20.2369L247.151 -5.6781L244.474 11.8724L212.34 45.0535L179.594 76.2972L135.359 70.7092L101.457 64.8444L39.0976 55.6584L32.7306 32.1509L27.9993 16.6608L-27.6462 -19.4857L-18.7553 -46.9733L-31.5861 -63.5309L-44.0519 -80.5542L-29.0181 -135.609L-29.5766 -142.84L-29.1413 -144.698L-24.709 -165.1L-23.6536 -169.668L-18.5398 -206.368L1.96832 -357.829L110.832 -291.581L134.845 -307.01L146.383 -298.782L172.805 -278.051L198.304 -283.472L259.072 -298.821V-298.812Z" fill="var(--fill-0, #E9BEFF)"/>
<path d="M-33.2262 -14.0953L25.6952 23.2285L37.6685 64.2074L183.965 82.6848L249.93 14.5697L254.912 -18.1062L261.235 -39.0393L283.467 -66.9444L276.458 -83.4537L271.89 -119.165L275.324 -135.472L275.742 -160.834L264.313 -306.109L175.127 -283.582L135.755 -314.474L110.744 -298.404L-2.59148 -367.376L-29.0181 -172.203L-35.4863 -144.18L-34.7959 -136.439L-50.5904 -78.5949L-22.9633 -42.9492L-33.2262 -14.0953ZM-53 -78.116L-37.0209 -136.637L-37.7068 -144.333L-31.1815 -172.599L-4.31955 -371L110.713 -300.996L135.882 -317.167L175.637 -285.976L266.301 -308.877L277.94 -160.904L277.518 -135.226L274.119 -119.077L278.6 -84.0336L286 -66.5973L263.219 -38.0026L257.063 -17.6186L251.997 15.5933L184.778 85L35.9624 66.2063L23.8176 24.6387L-35.8864 -13.1771L-25.4389 -42.5539L-53 -78.116Z" fill="var(--fill-0, #E9BEFF)"/>
</g>
</g>
<defs>
<clipPath id="clip0_0_19">
<rect width="122" height="7" fill="white"/>
</clipPath>
</defs>
</svg>
