<svg preserveAspectRatio="none" width="100%" height="100%" overflow="visible" style="display: block;" viewBox="0 0 211 47" fill="none" xmlns="http://www.w3.org/2000/svg">
<g id="Mask group">
<mask id="mask0_0_10" style="mask-type:alpha" maskUnits="userSpaceOnUse" x="0" y="0" width="211" height="47">
<path id="Vector 3" d="M132.633 1L33.1218 1L25.441 5.59248V11.185H22.0489L18.6568 14.7439H13.2293L9.49798 19.7999L10.8639 24.1214L3.73135 29.714L0 42.4243L2.37443 45L169.231 45L175.722 47V38.3851H182.845L185.898 34.0636L199.806 27.7084L211 22.6243L207.269 19.3196V14.7439L202.859 12.9645V11.1851L206.242 1.49718L190.308 1.77933L192.682 0H185.898L164.519 1.77933L148.245 0L136.703 1.49718L132.633 1Z" fill="var(--fill-0, #1D1C26)"/>
</mask>
<g mask="url(#mask0_0_10)">
<g id="Vector">
<path d="M47.2991 45.8702L70.4064 60.4809L74.6718 75.0551L112.594 79.8362L125.838 66.1847L127.255 56.9079L133.14 37.4611L130.107 31.0581L138.242 20.8661L135.683 14.8512C135.467 14.335 135.342 14.0458 135.199 13.709L134.953 13.1342L137.724 1.92082L140.518 -0.912729L138.826 -14.1103L142.797 -32.9421L142.973 -43.5917L140.525 -74.6656L115.469 -68.3469L95.3272 -84.1218L79.7485 -74.1312L41.782 -97.195L34.3193 -42.175L30.7844 -26.887L31.5002 -18.8952L31.1992 -17.8628L24.4744 6.71665L49.6814 39.1817L47.2991 45.8702ZM22.4628 7.11567L29.4372 -18.3753L29.6428 -19.0745L28.9307 -27.0151L32.5133 -42.5044L40.3393 -100.215L79.7228 -76.2911L95.4336 -86.3659L115.894 -70.3421L142.184 -76.972L144.809 -43.6467L144.629 -32.7371L140.687 -14.0371L142.452 -0.264734L139.387 2.84705L136.88 12.9768L137.001 13.2551C137.104 13.5003 137.214 13.7603 137.372 14.1373L140.356 21.1553L132.255 31.307L135.1 37.3146L129.05 57.3106L127.564 67.0376L113.273 81.7655L73.2476 76.7208L68.839 61.6561L45.0783 46.6353L47.6148 39.5112L22.4628 7.11567Z" fill="url(#paint0_linear_0_10)"/>
<path d="M146.56 -83.0528L119.114 -76.13L108.711 -82.1046L96.6523 -91.5462L90.8268 -89.1446L79.6567 -81.9802L36.5401 -108.174L28.1672 -46.4399L24.768 -30.4673L24.4854 -29.2409L24.7497 -20.3083L24.423 -19.1478L23.9421 -16.6071L18.5975 2.92758L18.1277 9.40742L23.1749 15.9056L27.3119 24.4245L42.9823 41.6748L46.2529 46.7012L44.6121 54.5795L70.6193 68.491L77.2781 82.0913L96.9937 84.5771L117.642 84.211L132.123 69.2855L133.609 59.5511L136.014 51.0175L139.615 39.1122L137.478 32.5152L145.459 22.5135L145.892 21.8033L143.205 15.4882C143.006 15.0196 142.827 14.595 142.694 14.2911L142.438 13.687L142.504 13.2697L144.735 1.88422L147.202 -1.24586L146.63 -5.72318L145.848 -15.0805L147.577 -25.0565L149.32 -36.2772L149.302 -48.2118L146.556 -83.0565L146.56 -83.0528ZM148.219 -85.3592L151.152 -48.1349L151.167 -35.9551L149.5 -25.2688L147.712 -14.989L148.491 -5.69389L149.148 -0.55761L146.439 2.87634L144.335 13.4527L144.46 13.742C144.552 13.9653 144.706 14.324 144.849 14.6682L147.984 22.0413L147.331 23.1176L139.659 32.7275L141.659 38.9218L141.215 40.1592L137.735 51.6581L135.404 59.9245L133.844 70.1421L118.302 86.1623L97.2433 86.4552L75.8502 83.7571L69.0519 69.7101L42.461 55.4252L44.212 47.0527L41.0588 42.2093L25.0984 24.6259L20.8403 15.8946L16.2042 9.92362L16.7254 2.79945L22.1655 -17.0867L22.65 -19.631L22.8702 -20.4145L22.5986 -29.2592L23.0465 -31.1995L26.3354 -46.6376L35.0902 -111.198L79.6237 -84.1438L90.9847 -91.429L96.7294 -93.8123L109.217 -84.0339L119.481 -78.1142L148.215 -85.3592H148.219Z" fill="url(#paint1_linear_0_10)"/>
<path d="M152.591 -91.44L122.751 -83.9168L111.078 -88.7126L97.9738 -98.9778L91.6968 -97.6233L79.5539 -89.8365L31.2873 -119.157L22.004 -50.7122L18.4874 -32.9568L18.1717 -31.5986L17.9845 -21.725L17.6358 -20.4364L17.2577 -17.504L11.1275 4.89716L11.7662 12.0945L17.5513 19.5482L20.4182 29.6194L39.44 48.2534L42.8061 54.2171L41.9104 63.2815L70.8176 76.4975L79.8733 89.124L101.27 91.8221L122.678 88.5822L138.392 72.3826L139.949 62.1906L142.313 53.2213L146.083 40.7596L144.842 33.9649L153.2 23.4946L153.542 22.7332L150.73 16.1216C150.554 15.7005 150.315 15.1441 150.197 14.8659L149.926 14.2325L149.959 13.7969L151.747 1.84396L153.89 -1.58268L153.288 -6.26866L152.873 -16.047L154.467 -27.1396L155.847 -39.6087L155.638 -52.8283L152.594 -91.4473L152.591 -91.44ZM154.25 -93.7464L157.488 -52.6232L157.697 -39.173L156.372 -27.3336L154.727 -15.9408L155.142 -6.23203L155.832 -0.857794L153.479 2.89464L151.78 13.9177L151.912 14.2215C151.996 14.4229 152.191 14.8805 152.319 15.188L155.605 22.9126L155.094 24.0657L147.055 34.1369L148.212 40.5216L147.69 41.7883L144.045 53.8363L141.755 62.5347L140.118 73.2429L123.32 90.5554L101.564 93.7111L78.4454 90.797L69.2575 77.7678L39.8365 64.2188L40.8019 54.6015L37.5606 48.8612L18.2121 29.883L15.2534 19.5775L9.94187 12.7388L9.2481 4.83126L15.4774 -17.9397L15.8554 -20.8684L16.0941 -21.736L16.2629 -31.4887L16.7585 -33.6377L20.1576 -50.7598L29.841 -122.173L79.5246 -91.9928L91.8509 -99.8967L98.0288 -101.251L111.578 -90.6382L123.063 -85.879L154.243 -93.7427L154.25 -93.7464Z" fill="url(#paint2_linear_0_10)"/>
<path d="M158.626 -99.8272L126.396 -91.6999L113.453 -95.3132L99.2989 -106.402L92.5741 -106.098L79.4622 -97.6892L26.0455 -130.14L15.8518 -54.9809L12.2141 -35.4462L11.869 -33.9525L11.234 -23.1345L10.8596 -21.7141L10.5879 -18.39L3.67591 6.87773L5.42319 14.7963L11.9498 23.2018L13.5466 34.8252L35.9198 54.8468L39.3776 61.7476L39.2234 72.0019L71.0268 84.5185L82.4759 96.1713L105.55 99.0817L127.714 92.9679L144.666 75.4944L146.292 64.8447L148.612 55.4362L152.55 42.4216L152.205 35.4329L160.938 24.4904L161.184 23.6813L158.244 16.7695C158.086 16.3924 157.792 15.7042 157.686 15.4589L157.403 14.8V14.346L158.75 1.82564L160.567 -1.89752L159.94 -6.79583L159.888 -16.9988L161.342 -29.2043L162.362 -42.9218L161.959 -57.43L158.618 -99.8198L158.626 -99.8272ZM160.285 -102.134L163.831 -57.1152L164.234 -42.3983L163.251 -29.402L161.749 -16.9L161.804 -6.77386L162.524 -1.16167L160.527 2.91295L159.228 14.3826L159.363 14.6974C159.437 14.8768 159.675 15.4333 159.789 15.7079L163.225 23.7875L162.858 25.0176L154.452 35.5501L154.764 42.1214L154.162 43.4174L150.352 56.0146L148.105 65.1413L146.395 76.3364L128.342 94.9412L105.888 100.956L81.0443 97.826L69.4667 85.8145L37.2155 73.0049L37.3954 62.1393L34.066 55.5021L11.3294 35.1327L9.66657 23.253L3.67959 15.5431L1.7708 6.84844L8.78926 -18.811L9.06089 -22.1278L9.31418 -23.0796L9.92721 -33.7365L10.4705 -36.0942L13.976 -54.8967L24.5918 -133.16L79.4255 -99.8491L92.7172 -108.372L99.3283 -108.701L113.942 -97.2572L126.653 -93.6585L160.277 -102.137L160.285 -102.134Z" fill="url(#paint3_linear_0_10)"/>
<path d="M164.66 -108.214L130.038 -99.483L115.828 -101.918L100.624 -113.827L93.4514 -114.57L79.3667 -105.538L20.8 -141.115L9.69595 -59.2422L5.94076 -37.9246L5.56635 -36.2992L4.47981 -24.5403L4.08337 -22.9917L3.91817 -19.2759L-3.77937 8.85828L-0.923529 17.4944L6.34455 26.8554L6.67122 40.031L32.3958 61.4364L35.9491 69.2708L36.5365 80.7112L71.2397 92.5286L85.0858 103.208L109.841 106.33L132.765 97.3428L150.95 78.5952L152.646 67.4843L154.922 57.6364L159.026 44.069L159.576 36.8863L168.683 25.4752L168.834 24.6185L165.765 17.4065C165.626 17.077 165.277 16.2533 165.185 16.041L164.891 15.3528L164.858 14.8805L165.765 1.7927L167.259 -2.22698L166.606 -7.33763L166.918 -17.9653L168.232 -31.2874L168.893 -46.2532L168.294 -62.0464L164.657 -108.211L164.66 -108.214ZM166.319 -110.521L170.174 -61.6035L170.772 -45.6162L170.13 -31.4668L168.771 -17.8518L168.463 -7.30834L169.212 -1.45453L167.571 2.93858L166.675 14.8512L166.819 15.1807C166.885 15.3381 167.164 15.9934 167.263 16.235L170.849 24.6698L170.625 25.9767L161.852 36.9705L161.32 43.7286L160.641 45.0575L156.665 58.2038L154.459 67.7588L152.672 79.4445L133.367 99.3416L110.216 108.216L83.6468 104.866L69.6796 93.8722L34.5983 81.7985L33.9963 69.6882L30.5752 62.1577L4.45044 40.3935L4.08703 26.9396L-2.5717 18.362L-5.6955 8.88391L2.11584 -19.6639L2.2847 -23.3688L2.55266 -24.4085L3.60616 -35.9733L4.20082 -38.536L7.81652 -59.0225L19.361 -144.135L79.3447 -107.698L93.6019 -116.839L100.642 -116.14L116.32 -103.861L130.258 -101.423L166.323 -110.517L166.319 -110.521Z" fill="url(#paint4_linear_0_10)"/>
<path d="M170.695 -116.601L133.683 -107.27L118.203 -108.526L101.949 -121.258L94.325 -123.048L79.2713 -113.395L15.5544 -152.101L3.54009 -63.5145L-0.332537 -40.4177L-0.739993 -38.6605L-2.27803 -25.9607L-2.70017 -24.284L-2.75889 -20.1801L-11.2383 10.8205L-7.27394 20.1778L0.731965 30.4907L-0.211417 45.2185L28.8646 68.0078L32.5096 76.7794L33.8384 89.4096L71.4416 100.531L87.681 110.236L114.118 113.568L137.798 101.707L157.22 81.6886L158.985 70.1201L161.217 59.8366L165.49 45.7164L166.936 38.3397L176.418 26.4563L176.473 25.5484L173.279 18.0399C173.162 17.758 172.754 16.8025 172.673 16.6158L172.369 15.8982L172.306 15.4077L172.769 1.75243L173.936 -2.56747L173.253 -7.89043L173.933 -18.9391L175.111 -33.3778L175.408 -49.592L174.615 -66.6702L170.68 -116.605L170.695 -116.601ZM172.354 -118.908L176.517 -66.0918L177.31 -48.8342L177.009 -33.5279L175.794 -18.8L175.126 -7.83917L175.907 -1.74741L174.623 2.96787L174.131 15.3271L174.278 15.6676C174.333 15.803 174.656 16.5572 174.74 16.7622L178.477 25.5521L178.4 26.9359L169.26 38.3909L167.883 45.3357L167.123 46.6939L162.979 60.3894L160.813 70.3728L158.952 82.5489L138.392 103.738L114.544 115.472L86.2457 111.906L69.8925 101.93L31.981 90.592L30.5935 77.2333L27.0843 68.8059L-2.42855 45.6505L-1.49619 30.6188L-8.83033 21.17L-13.1655 10.9084L-4.56492 -20.5279L-4.5025 -24.6209L-4.21988 -25.7448L-2.72587 -38.2138L-2.0835 -40.9852L1.64233 -63.1557L14.1155 -155.122L79.2493 -115.554L94.4719 -125.318L101.946 -123.594L118.688 -110.484L133.852 -109.203L172.361 -118.915L172.354 -118.908Z" fill="url(#paint5_linear_0_10)"/>
<path d="M176.726 -124.989L137.321 -115.053L120.571 -115.13L103.267 -128.683L95.195 -131.523L79.1685 -121.247L10.3053 -163.081L-2.61944 -67.7831L-6.60953 -42.9072L-7.04636 -41.0181L-9.03589 -27.3775L-9.48006 -25.5727L-9.43234 -21.0771L-18.6973 12.7901L-13.6243 22.865L-4.87692 34.1333L-7.09041 50.4134L25.337 74.5901L29.0775 84.2989L31.1478 98.1189L71.6508 108.542L90.2835 117.273L118.401 120.817L142.841 106.081L163.5 84.7895L165.336 72.7633L167.523 62.0405L171.965 47.3638L174.307 39.7894L184.167 27.4374L184.13 26.482L180.808 18.6732C180.709 18.4389 180.246 17.348 180.18 17.1942L179.861 16.4474L179.765 15.9348L179.787 1.70851L180.632 -2.90793L179.923 -8.44325L180.966 -19.9166L182.005 -35.4718L181.942 -52.9344L180.958 -71.2976L176.726 -125.003V-124.989ZM178.385 -127.295L182.852 -70.5801L183.84 -52.0521L183.88 -35.5926L182.808 -19.7518L181.777 -8.37734L182.588 -2.0476L181.659 2.98984L181.571 15.7957L181.722 16.1508C181.77 16.2607 182.133 17.1173 182.203 17.2894L186.09 26.4307L186.156 27.8914L176.649 39.8041L174.428 46.9392L173.591 48.3267L169.282 62.5713L167.156 72.9866L165.222 85.6534L143.41 108.135L118.864 122.731L88.8409 118.946L70.0981 109.988L29.3565 99.3856L27.1834 84.7821L23.5861 75.4578L-9.31487 50.9076L-7.08306 34.3017L-15.0926 23.9852L-20.6428 12.9402L-11.253 -21.3846L-11.2971 -25.8619L-10.9961 -27.07L-9.06159 -40.447L-8.37149 -43.427L-4.53922 -67.2779L8.86267 -166.094L79.1428 -123.4L95.3308 -133.782L103.238 -131.033L121.041 -117.088L137.427 -116.968L178.382 -127.295H178.385Z" fill="url(#paint6_linear_0_10)"/>
<path d="M182.761 -133.376L140.966 -122.836L122.95 -121.73L104.596 -136.107L96.076 -139.995L79.0804 -129.093L5.06712 -174.056L-8.76793 -72.0444L-12.8755 -45.3856L-13.3417 -43.3648L-15.7827 -28.7833L-16.2526 -26.8467L-16.0984 -21.9594L-26.1489 14.778L-19.9674 25.5704L-10.4785 37.7905L-13.9657 55.6265L21.8131 81.1871L25.649 91.8294L28.4645 106.836L71.8674 116.563L92.8971 124.316L122.696 128.073L147.896 110.467L169.788 87.9012L171.693 75.4175L173.841 64.2553L178.448 49.0259L181.689 41.2574L191.923 28.4332L191.791 27.4301L188.344 19.3212C188.267 19.1345 187.746 17.9081 187.691 17.7873L187.36 17.0148L187.232 16.484L186.813 1.69019L187.331 -3.22277L186.593 -8.97042L188.003 -20.8684L188.906 -37.5402L188.483 -56.2512L187.305 -75.903L182.775 -133.383L182.761 -133.376ZM184.42 -135.682L189.196 -75.072L190.378 -55.2774L190.763 -37.6647L189.834 -20.7146L188.443 -8.92282L189.284 -2.35146L188.711 3.00447L189.027 16.257L189.185 16.6231C189.221 16.7109 189.629 17.6664 189.684 17.8056L193.722 27.302L193.931 28.8396L184.056 41.2135L180.991 48.5353L180.077 49.9558L175.603 64.7459L173.518 75.5896L171.506 88.7469L148.439 112.521L123.195 129.976L91.4472 125.975L70.3147 118.034L26.7429 108.168L23.7843 92.3163L20.0988 82.0987L-16.1902 56.1574L-12.6589 37.9772L-21.3439 26.7895L-28.1091 14.9574L-17.9301 -22.2559L-18.0806 -27.1213L-17.7649 -28.4136L-15.39 -42.6948L-14.6521 -45.8798L-10.7097 -71.4147L3.62084 -177.08L79.051 -131.256L96.2008 -142.257L104.537 -138.479L123.405 -123.7L141.017 -124.74L184.416 -135.682H184.42Z" fill="url(#paint7_linear_0_10)"/>
<path d="M188.795 -141.763L144.607 -130.623L125.321 -128.338L105.917 -143.535L96.9496 -148.47L78.9813 -136.945L-0.18202 -185.035L-14.9311 -76.3094L-19.1598 -47.8714L-19.659 -45.7151L-22.5479 -30.1891L-23.0435 -28.1244L-22.7865 -22.8453L-33.6189 16.7585L-26.3324 28.2722L-16.1021 41.4478L-20.8594 60.836L18.2745 87.7841L22.2022 99.3636L25.7591 115.559L72.0619 124.587L95.485 131.367L126.965 135.336L152.921 114.857L176.051 91.0167L178.025 78.0753L180.129 66.4739L184.904 50.6916L189.041 42.7291L199.65 29.4363L199.422 28.382L195.847 19.9728C195.788 19.8337 195.208 18.4755 195.171 18.384L194.83 17.5823L194.669 17.0331L193.806 1.67188L194.001 -3.5376L193.237 -9.49393L195.01 -21.8129L195.774 -39.6013L194.988 -59.5607L193.615 -80.4975L188.788 -141.748L188.795 -141.763ZM190.455 -144.069L195.539 -79.5603L196.915 -58.4954L197.642 -39.7258L196.86 -21.6628L195.105 -9.45365L195.979 -2.64433L195.762 3.03376L196.478 16.7329L196.64 17.1137C196.669 17.1795 197.117 18.2339 197.161 18.3401L201.349 28.1916L201.702 29.8061L191.46 42.6413L187.551 50.1498L186.556 51.5995L181.916 66.9388L179.875 78.2108L177.791 91.8587L153.472 116.925L127.531 137.239L94.0571 133.018L70.5349 126.096L24.1367 116.965L20.3925 99.8688L16.619 88.7542L-23.0582 61.4181L-18.2311 41.6638L-27.5915 29.6084L-35.5717 16.9929L-24.6035 -23.1089L-24.8605 -28.3623L-24.5301 -29.7388L-21.711 -44.928L-20.9254 -48.3217L-16.8766 -75.5369L-1.61731 -188.055L78.963 -139.105L97.0781 -150.725L105.848 -145.922L125.78 -130.312L144.618 -132.508L190.462 -144.069H190.455Z" fill="url(#paint8_linear_0_10)"/>
<path d="M194.83 -150.15L148.252 -138.406L127.696 -134.943L107.242 -150.963L97.8233 -156.945L78.8859 -144.798L-5.42753 -196.018L-21.087 -80.5817L-25.4331 -50.3645L-25.9617 -48.0764L-29.3021 -31.6095L-29.8197 -29.4166L-29.4563 -23.7495L-41.0742 18.7208L-32.6792 30.9519L-21.711 45.0794L-27.7384 66.0199L14.7469 94.3518L18.77 106.868L23.0685 124.251L72.2675 132.579L98.0876 138.385L131.249 142.566L157.965 119.213L182.328 94.0992L184.376 80.7002L186.435 68.6631L191.38 52.3281L196.412 44.1679L207.399 30.4028L207.076 29.3009L203.372 20.5952C203.332 20.5 202.697 19.01 202.671 18.9478L202.318 18.1167L202.124 17.5493L200.821 1.62062L200.689 -3.88539L199.899 -10.054L202.036 -22.7977L202.66 -41.6991L201.515 -62.9031L199.947 -85.1249L194.823 -150.147L194.83 -150.15ZM196.489 -152.457L201.878 -84.0486L203.449 -61.7133L204.517 -41.7906L203.879 -22.6147L201.764 -9.98815L202.667 -2.9372L202.807 3.05939L203.926 17.2052L204.095 17.5969C204.113 17.6408 204.605 18.7977 204.635 18.8636L208.974 29.0666L209.469 30.7579L198.857 44.0544L194.103 51.7496L193.031 53.2287L188.223 69.117L186.222 80.8173L184.064 94.9522L158.49 121.311L131.851 144.488L96.6486 140.051L70.7368 134.146L21.5084 125.755L16.9787 107.41L13.1171 95.3988L-29.9481 66.6715L-23.8217 45.3394L-33.8575 32.4126L-43.049 19.0137L-31.288 -23.9765L-31.6477 -29.618L-31.3026 -31.0787L-28.043 -47.1721L-27.2098 -50.7745L-23.0508 -79.6738L-6.85914 -199.042L78.8712 -146.962L97.9517 -159.2L107.154 -153.372L128.151 -136.927L148.212 -140.284L196.5 -152.46L196.489 -152.457Z" fill="url(#paint9_linear_0_10)"/>
<path d="M200.861 -158.537L151.893 -146.189L130.071 -141.547L108.568 -158.387L98.7006 -165.42L78.7904 -152.651L-10.673 -206.997L-27.2428 -84.8467L-31.7064 -52.8465L-32.2644 -50.4267L-36.0563 -33.019L-36.5995 -30.698L-36.1297 -24.6392L-48.5295 20.6977L-39.0259 33.6464L-27.3162 48.7294L-34.6137 71.2221L11.223 100.941L15.3416 114.395L20.3815 132.967L72.4804 140.6L100.694 145.433L135.537 149.826L163.012 123.599L188.612 97.211L190.73 83.3543L192.745 70.878L197.855 53.9865L203.783 45.6322L215.144 31.3986L214.729 30.249L210.901 21.2432C210.882 21.1956 210.189 19.5701 210.178 19.5408L209.81 18.6805L209.587 18.0948L207.843 1.59867L207.388 -4.20388L206.569 -10.5849L209.073 -23.7495L209.561 -43.7675L208.056 -66.2199L206.294 -89.7267L200.872 -158.523L200.861 -158.537ZM202.52 -160.844L208.217 -88.5369L209.983 -64.9313L211.393 -43.8517L210.897 -23.5665L208.419 -10.5263L209.352 -3.2374L209.847 3.08136L211.371 17.6701L211.543 18.0765C211.554 18.0984 212.086 19.3541 212.101 19.3871L216.59 29.9452L217.233 31.7134L206.253 45.4675L200.656 53.3531L199.503 54.8651L194.529 71.3026L192.569 83.4349L190.333 98.0603L163.508 125.711L136.172 151.748L99.2438 147.091L70.9424 142.204L18.8838 134.549L13.5686 114.959L9.61885 102.051L-36.8345 71.9286L-29.4122 49.0223L-40.1235 35.2242L-50.53 21.0382L-37.9797 -24.8405L-38.4459 -30.8664L-38.0825 -32.4149L-34.3824 -49.4163L-33.5014 -53.2236L-29.2324 -83.807L-12.112 -210.025L78.7684 -154.818L98.8144 -167.675L108.446 -160.818L130.504 -143.542L151.791 -148.06L202.52 -160.851V-160.844Z" fill="url(#paint10_linear_0_10)"/>
<path d="M-41.4926 76.4206L7.69539 107.524L17.6908 141.673L139.82 157.071L194.889 100.308L199.048 73.0782L204.326 55.6339L222.886 32.3797L217.034 18.622L213.221 -11.1377L216.087 -24.727L216.436 -45.8615L206.896 -166.925L132.442 -148.151L99.5742 -173.895L78.695 -160.503L-15.9185 -217.98L-37.9797 -55.336L-43.3794 -31.983L-42.8031 -25.5324L-55.9884 22.6709L-32.9251 52.3756L-41.4926 76.4206ZM-58 23.07L-44.6605 -25.6972L-45.2331 -32.1111L-39.7857 -55.6655L-17.3612 -221L78.6693 -162.663L99.6807 -176.139L132.868 -150.147L208.555 -169.231L218.272 -45.9201L217.919 -24.522L215.082 -11.0645L218.822 18.1387L225 32.6689L205.982 56.4978L200.843 73.4845L196.614 101.161L140.499 159L16.2666 143.339L6.12797 108.699L-43.7134 77.1857L-34.9918 52.7051L-58 23.07Z" fill="url(#paint11_linear_0_10)"/>
</g>
</g>
</g>
<defs>
<linearGradient id="paint0_linear_0_10" x1="225" y1="-31" x2="100.5" y2="-31" gradientUnits="userSpaceOnUse">
<stop stop-color="#4D4C55"/>
<stop offset="0.770047" stop-color="#4D4C55" stop-opacity="0"/>
</linearGradient>
<linearGradient id="paint1_linear_0_10" x1="225" y1="-31" x2="100.5" y2="-31" gradientUnits="userSpaceOnUse">
<stop stop-color="#4D4C55"/>
<stop offset="0.770047" stop-color="#4D4C55" stop-opacity="0"/>
</linearGradient>
<linearGradient id="paint2_linear_0_10" x1="225" y1="-31" x2="100.5" y2="-31" gradientUnits="userSpaceOnUse">
<stop stop-color="#4D4C55"/>
<stop offset="0.770047" stop-color="#4D4C55" stop-opacity="0"/>
</linearGradient>
<linearGradient id="paint3_linear_0_10" x1="225" y1="-31" x2="100.5" y2="-31" gradientUnits="userSpaceOnUse">
<stop stop-color="#4D4C55"/>
<stop offset="0.770047" stop-color="#4D4C55" stop-opacity="0"/>
</linearGradient>
<linearGradient id="paint4_linear_0_10" x1="225" y1="-31" x2="100.5" y2="-31" gradientUnits="userSpaceOnUse">
<stop stop-color="#4D4C55"/>
<stop offset="0.770047" stop-color="#4D4C55" stop-opacity="0"/>
</linearGradient>
<linearGradient id="paint5_linear_0_10" x1="225" y1="-31" x2="100.5" y2="-31" gradientUnits="userSpaceOnUse">
<stop stop-color="#4D4C55"/>
<stop offset="0.770047" stop-color="#4D4C55" stop-opacity="0"/>
</linearGradient>
<linearGradient id="paint6_linear_0_10" x1="225" y1="-31" x2="100.5" y2="-31" gradientUnits="userSpaceOnUse">
<stop stop-color="#4D4C55"/>
<stop offset="0.770047" stop-color="#4D4C55" stop-opacity="0"/>
</linearGradient>
<linearGradient id="paint7_linear_0_10" x1="225" y1="-31" x2="100.5" y2="-31" gradientUnits="userSpaceOnUse">
<stop stop-color="#4D4C55"/>
<stop offset="0.770047" stop-color="#4D4C55" stop-opacity="0"/>
</linearGradient>
<linearGradient id="paint8_linear_0_10" x1="225" y1="-31" x2="100.5" y2="-31" gradientUnits="userSpaceOnUse">
<stop stop-color="#4D4C55"/>
<stop offset="0.770047" stop-color="#4D4C55" stop-opacity="0"/>
</linearGradient>
<linearGradient id="paint9_linear_0_10" x1="225" y1="-31" x2="100.5" y2="-31" gradientUnits="userSpaceOnUse">
<stop stop-color="#4D4C55"/>
<stop offset="0.770047" stop-color="#4D4C55" stop-opacity="0"/>
</linearGradient>
<linearGradient id="paint10_linear_0_10" x1="225" y1="-31" x2="100.5" y2="-31" gradientUnits="userSpaceOnUse">
<stop stop-color="#4D4C55"/>
<stop offset="0.770047" stop-color="#4D4C55" stop-opacity="0"/>
</linearGradient>
<linearGradient id="paint11_linear_0_10" x1="225" y1="-31" x2="100.5" y2="-31" gradientUnits="userSpaceOnUse">
<stop stop-color="#4D4C55"/>
<stop offset="0.770047" stop-color="#4D4C55" stop-opacity="0"/>
</linearGradient>
</defs>
</svg>
