<svg preserveAspectRatio="none" width="100%" height="100%" overflow="visible" style="display: block;" viewBox="0 0 291 12" fill="none" xmlns="http://www.w3.org/2000/svg">
<g id="GRAUS" opacity="0.55" clip-path="url(#clip0_0_123)">
<line id="Line 3" x1="-79" y1="-3.46413e-06" x2="-79" y2="6" stroke="var(--stroke-0, #F8EFFF)"/>
<line id="Line 59" x1="-73" y1="-3.23464e-06" x2="-73" y2="10" stroke="var(--stroke-0, #F8EFFF)"/>
<line id="Line 108" x1="-67" y1="-2.93959e-06" x2="-67" y2="6" stroke="var(--stroke-0, #F8EFFF)"/>
<line id="Line 109" x1="-61" y1="-2.71011e-06" x2="-61" y2="10" stroke="var(--stroke-0, #F8EFFF)"/>
<line id="Line 110" x1="-55" y1="-2.41505e-06" x2="-55" y2="6" stroke="var(--stroke-0, #F8EFFF)"/>
<line id="Line 111" x1="-49" y1="-2.18557e-06" x2="-49" y2="10" stroke="var(--stroke-0, #F8EFFF)"/>
<line id="Line 112" x1="-43" y1="-1.89052e-06" x2="-43" y2="6" stroke="var(--stroke-0, #F8EFFF)"/>
<line id="Line 113" x1="-37" y1="-1.66103e-06" x2="-37" y2="10" stroke="var(--stroke-0, #F8EFFF)"/>
<line id="Line 114" x1="-31" y1="-1.36598e-06" x2="-31" y2="6" stroke="var(--stroke-0, #F8EFFF)"/>
<line id="Line 115" x1="-25" y1="-1.1365e-06" x2="-25" y2="10" stroke="var(--stroke-0, #F8EFFF)"/>
<line id="Line 116" x1="-19" y1="-8.41444e-07" x2="-19" y2="6" stroke="var(--stroke-0, #F8EFFF)"/>
<line id="Line 117" x1="-13" y1="-6.1196e-07" x2="-13" y2="10" stroke="var(--stroke-0, #F8EFFF)"/>
<line id="Line 118" x1="-7" y1="-3.16907e-07" x2="-7" y2="6" stroke="var(--stroke-0, #F8EFFF)"/>
<line id="Line 119" x1="-1" y1="-8.74225e-08" x2="-1" y2="10" stroke="var(--stroke-0, #F8EFFF)"/>
<line id="Line 60" x1="5" y1="2.07629e-07" x2="5" y2="6" stroke="var(--stroke-0, #F8EFFF)"/>
<line id="Line 61" x1="11" y1="4.37114e-07" x2="11" y2="10" stroke="var(--stroke-0, #F8EFFF)"/>
<line id="Line 62" x1="17" y1="7.32166e-07" x2="17" y2="6" stroke="var(--stroke-0, #F8EFFF)"/>
<line id="Line 63" x1="23" y1="9.6165e-07" x2="23" y2="10" stroke="var(--stroke-0, #F8EFFF)"/>
<line id="Line 64" x1="29" y1="1.2567e-06" x2="29" y2="6" stroke="var(--stroke-0, #F8EFFF)"/>
<line id="Line 65" x1="35" y1="1.48619e-06" x2="35" y2="10" stroke="var(--stroke-0, #F8EFFF)"/>
<line id="Line 66" x1="41" y1="1.78124e-06" x2="41" y2="6" stroke="var(--stroke-0, #F8EFFF)"/>
<line id="Line 67" x1="47" y1="2.01072e-06" x2="47" y2="10" stroke="var(--stroke-0, #F8EFFF)"/>
<line id="Line 68" x1="53" y1="2.30578e-06" x2="53" y2="6" stroke="var(--stroke-0, #F8EFFF)"/>
<line id="Line 69" x1="59" y1="2.53526e-06" x2="59" y2="10" stroke="var(--stroke-0, #F8EFFF)"/>
<line id="Line 70" x1="65" y1="2.83031e-06" x2="65" y2="6" stroke="var(--stroke-0, #F8EFFF)"/>
<line id="Line 71" x1="71" y1="3.0598e-06" x2="71" y2="10" stroke="var(--stroke-0, #F8EFFF)"/>
<line id="Line 72" x1="77" y1="3.35485e-06" x2="77" y2="6" stroke="var(--stroke-0, #F8EFFF)"/>
<line id="Line 73" x1="83" y1="3.58433e-06" x2="83" y2="10" stroke="var(--stroke-0, #F8EFFF)"/>
<line id="Line 74" x1="89" y1="3.87939e-06" x2="89" y2="6" stroke="var(--stroke-0, #F8EFFF)"/>
<line id="Line 75" x1="95" y1="4.10887e-06" x2="95" y2="10" stroke="var(--stroke-0, #F8EFFF)"/>
<line id="Line 76" x1="101" y1="4.40392e-06" x2="101" y2="6" stroke="var(--stroke-0, #F8EFFF)"/>
<line id="Line 77" x1="107" y1="4.63341e-06" x2="107" y2="10" stroke="var(--stroke-0, #F8EFFF)"/>
<line id="Line 78" x1="113" y1="4.92846e-06" x2="113" y2="6" stroke="var(--stroke-0, #F8EFFF)"/>
<line id="Line 79" x1="119" y1="5.15794e-06" x2="119" y2="10" stroke="var(--stroke-0, #F8EFFF)"/>
<line id="Line 80" x1="125" y1="5.453e-06" x2="125" y2="6.00001" stroke="var(--stroke-0, #F8EFFF)"/>
<line id="Line 81" x1="131" y1="5.68248e-06" x2="131" y2="10" stroke="var(--stroke-0, #F8EFFF)"/>
<line id="Line 82" x1="137" y1="5.97753e-06" x2="137" y2="6.00001" stroke="var(--stroke-0, #F8EFFF)"/>
<line id="Line 83" x1="143" y1="6.20702e-06" x2="143" y2="10" stroke="var(--stroke-0, #F8EFFF)"/>
<line id="Line 84" x1="149" y1="6.50207e-06" x2="149" y2="6.00001" stroke="var(--stroke-0, #F8EFFF)"/>
<line id="Line 85" x1="155" y1="6.73155e-06" x2="155" y2="10" stroke="var(--stroke-0, #F8EFFF)"/>
<line id="Line 86" x1="161" y1="7.02661e-06" x2="161" y2="6.00001" stroke="var(--stroke-0, #F8EFFF)"/>
<line id="Line 87" x1="167" y1="7.25609e-06" x2="167" y2="10" stroke="var(--stroke-0, #F8EFFF)"/>
<line id="Line 88" x1="173" y1="7.55114e-06" x2="173" y2="6.00001" stroke="var(--stroke-0, #F8EFFF)"/>
<line id="Line 89" x1="179" y1="7.78063e-06" x2="179" y2="10" stroke="var(--stroke-0, #F8EFFF)"/>
<line id="Line 90" x1="185" y1="8.07568e-06" x2="185" y2="6.00001" stroke="var(--stroke-0, #F8EFFF)"/>
<line id="Line 91" x1="191" y1="8.30516e-06" x2="191" y2="10" stroke="var(--stroke-0, #F8EFFF)"/>
<line id="Line 92" x1="197" y1="8.60022e-06" x2="197" y2="6.00001" stroke="var(--stroke-0, #F8EFFF)"/>
<line id="Line 93" x1="203" y1="8.8297e-06" x2="203" y2="10" stroke="var(--stroke-0, #F8EFFF)"/>
<line id="Line 94" x1="209" y1="9.12475e-06" x2="209" y2="6.00001" stroke="var(--stroke-0, #F8EFFF)"/>
<line id="Line 95" x1="215" y1="9.35424e-06" x2="215" y2="10" stroke="var(--stroke-0, #F8EFFF)"/>
<line id="Line 96" x1="221" y1="9.64929e-06" x2="221" y2="6.00001" stroke="var(--stroke-0, #F8EFFF)"/>
<line id="Line 97" x1="227" y1="9.87877e-06" x2="227" y2="10" stroke="var(--stroke-0, #F8EFFF)"/>
<line id="Line 98" x1="233" y1="1.01738e-05" x2="233" y2="6.00001" stroke="var(--stroke-0, #F8EFFF)"/>
<line id="Line 99" x1="239" y1="1.04033e-05" x2="239" y2="10" stroke="var(--stroke-0, #F8EFFF)"/>
<line id="Line 100" x1="245" y1="1.06984e-05" x2="245" y2="6.00001" stroke="var(--stroke-0, #F8EFFF)"/>
<line id="Line 101" x1="251" y1="1.09278e-05" x2="251" y2="10" stroke="var(--stroke-0, #F8EFFF)"/>
<line id="Line 102" x1="257" y1="1.12229e-05" x2="257" y2="6.00001" stroke="var(--stroke-0, #F8EFFF)"/>
<line id="Line 103" x1="263" y1="1.14524e-05" x2="263" y2="10" stroke="var(--stroke-0, #F8EFFF)"/>
<line id="Line 104" x1="269" y1="1.17474e-05" x2="269" y2="6.00001" stroke="var(--stroke-0, #F8EFFF)"/>
<line id="Line 105" x1="275" y1="1.19769e-05" x2="275" y2="10" stroke="var(--stroke-0, #F8EFFF)"/>
<line id="Line 106" x1="281" y1="1.2272e-05" x2="281" y2="6.00001" stroke="var(--stroke-0, #F8EFFF)"/>
<line id="Line 107" x1="287" y1="1.25015e-05" x2="287" y2="10" stroke="var(--stroke-0, #F8EFFF)"/>
</g>
<defs>
<clipPath id="clip0_0_123">
<rect width="291" height="12" fill="white"/>
</clipPath>
</defs>
</svg>
