<svg preserveAspectRatio="none" width="100%" height="100%" overflow="visible" style="display: block;" viewBox="0 0 341 12" fill="none" xmlns="http://www.w3.org/2000/svg">
<g id="GRAUS" opacity="0.55" clip-path="url(#clip0_0_46)">
<line id="Line 3" x1="-29" y1="-1.27856e-06" x2="-29" y2="6" stroke="var(--stroke-0, #F8EFFF)"/>
<line id="Line 59" x1="-23" y1="-1.04907e-06" x2="-23" y2="10" stroke="var(--stroke-0, #F8EFFF)"/>
<line id="Line 108" x1="-17" y1="-7.54021e-07" x2="-17" y2="6" stroke="var(--stroke-0, #F8EFFF)"/>
<line id="Line 109" x1="-11" y1="-5.24537e-07" x2="-11" y2="10" stroke="var(--stroke-0, #F8EFFF)"/>
<line id="Line 110" x1="-5" y1="-2.29485e-07" x2="-5" y2="6" stroke="var(--stroke-0, #F8EFFF)"/>
<line id="Line 111" x1="1" x2="1" y2="10" stroke="var(--stroke-0, #F8EFFF)"/>
<line id="Line 112" x1="7" y1="2.95052e-07" x2="7" y2="6" stroke="var(--stroke-0, #F8EFFF)"/>
<line id="Line 113" x1="13" y1="5.24537e-07" x2="13" y2="10" stroke="var(--stroke-0, #F8EFFF)"/>
<line id="Line 114" x1="19" y1="8.19589e-07" x2="19" y2="6" stroke="var(--stroke-0, #F8EFFF)"/>
<line id="Line 115" x1="25" y1="1.04907e-06" x2="25" y2="10" stroke="var(--stroke-0, #F8EFFF)"/>
<line id="Line 116" x1="31" y1="1.34413e-06" x2="31" y2="6" stroke="var(--stroke-0, #F8EFFF)"/>
<line id="Line 117" x1="37" y1="1.57361e-06" x2="37" y2="10" stroke="var(--stroke-0, #F8EFFF)"/>
<line id="Line 118" x1="43" y1="1.86866e-06" x2="43" y2="6" stroke="var(--stroke-0, #F8EFFF)"/>
<line id="Line 119" x1="49" y1="2.09815e-06" x2="49" y2="10" stroke="var(--stroke-0, #F8EFFF)"/>
<line id="Line 60" x1="55" y1="2.3932e-06" x2="55" y2="6" stroke="var(--stroke-0, #F8EFFF)"/>
<line id="Line 61" x1="61" y1="2.62268e-06" x2="61" y2="10" stroke="var(--stroke-0, #F8EFFF)"/>
<line id="Line 62" x1="67" y1="2.91774e-06" x2="67" y2="6" stroke="var(--stroke-0, #F8EFFF)"/>
<line id="Line 63" x1="73" y1="3.14722e-06" x2="73" y2="10" stroke="var(--stroke-0, #F8EFFF)"/>
<line id="Line 64" x1="79" y1="3.44227e-06" x2="79" y2="6" stroke="var(--stroke-0, #F8EFFF)"/>
<line id="Line 65" x1="85" y1="3.67176e-06" x2="85" y2="10" stroke="var(--stroke-0, #F8EFFF)"/>
<line id="Line 66" x1="91" y1="3.96681e-06" x2="91" y2="6" stroke="var(--stroke-0, #F8EFFF)"/>
<line id="Line 67" x1="97" y1="4.19629e-06" x2="97" y2="10" stroke="var(--stroke-0, #F8EFFF)"/>
<line id="Line 68" x1="103" y1="4.49135e-06" x2="103" y2="6" stroke="var(--stroke-0, #F8EFFF)"/>
<line id="Line 69" x1="109" y1="4.72083e-06" x2="109" y2="10" stroke="var(--stroke-0, #F8EFFF)"/>
<line id="Line 70" x1="115" y1="5.01588e-06" x2="115" y2="6.00001" stroke="var(--stroke-0, #F8EFFF)"/>
<line id="Line 71" x1="121" y1="5.24537e-06" x2="121" y2="10" stroke="var(--stroke-0, #F8EFFF)"/>
<line id="Line 72" x1="127" y1="5.54042e-06" x2="127" y2="6.00001" stroke="var(--stroke-0, #F8EFFF)"/>
<line id="Line 73" x1="133" y1="5.7699e-06" x2="133" y2="10" stroke="var(--stroke-0, #F8EFFF)"/>
<line id="Line 74" x1="139" y1="6.06496e-06" x2="139" y2="6.00001" stroke="var(--stroke-0, #F8EFFF)"/>
<line id="Line 75" x1="145" y1="6.29444e-06" x2="145" y2="10" stroke="var(--stroke-0, #F8EFFF)"/>
<line id="Line 76" x1="151" y1="6.58949e-06" x2="151" y2="6.00001" stroke="var(--stroke-0, #F8EFFF)"/>
<line id="Line 77" x1="157" y1="6.81898e-06" x2="157" y2="10" stroke="var(--stroke-0, #F8EFFF)"/>
<line id="Line 78" x1="163" y1="7.11403e-06" x2="163" y2="6.00001" stroke="var(--stroke-0, #F8EFFF)"/>
<line id="Line 79" x1="169" y1="7.34351e-06" x2="169" y2="10" stroke="var(--stroke-0, #F8EFFF)"/>
<line id="Line 80" x1="175" y1="7.63857e-06" x2="175" y2="6.00001" stroke="var(--stroke-0, #F8EFFF)"/>
<line id="Line 81" x1="181" y1="7.86805e-06" x2="181" y2="10" stroke="var(--stroke-0, #F8EFFF)"/>
<line id="Line 82" x1="187" y1="8.1631e-06" x2="187" y2="6.00001" stroke="var(--stroke-0, #F8EFFF)"/>
<line id="Line 83" x1="193" y1="8.39259e-06" x2="193" y2="10" stroke="var(--stroke-0, #F8EFFF)"/>
<line id="Line 84" x1="199" y1="8.68764e-06" x2="199" y2="6.00001" stroke="var(--stroke-0, #F8EFFF)"/>
<line id="Line 85" x1="205" y1="8.91712e-06" x2="205" y2="10" stroke="var(--stroke-0, #F8EFFF)"/>
<line id="Line 86" x1="211" y1="9.21217e-06" x2="211" y2="6.00001" stroke="var(--stroke-0, #F8EFFF)"/>
<line id="Line 87" x1="217" y1="9.44166e-06" x2="217" y2="10" stroke="var(--stroke-0, #F8EFFF)"/>
<line id="Line 88" x1="223" y1="9.73671e-06" x2="223" y2="6.00001" stroke="var(--stroke-0, #F8EFFF)"/>
<line id="Line 89" x1="229" y1="9.9662e-06" x2="229" y2="10" stroke="var(--stroke-0, #F8EFFF)"/>
<line id="Line 90" x1="235" y1="1.02612e-05" x2="235" y2="6.00001" stroke="var(--stroke-0, #F8EFFF)"/>
<line id="Line 91" x1="241" y1="1.04907e-05" x2="241" y2="10" stroke="var(--stroke-0, #F8EFFF)"/>
<line id="Line 92" x1="247" y1="1.07858e-05" x2="247" y2="6.00001" stroke="var(--stroke-0, #F8EFFF)"/>
<line id="Line 93" x1="253" y1="1.10153e-05" x2="253" y2="10" stroke="var(--stroke-0, #F8EFFF)"/>
<line id="Line 94" x1="259" y1="1.13103e-05" x2="259" y2="6.00001" stroke="var(--stroke-0, #F8EFFF)"/>
<line id="Line 95" x1="265" y1="1.15398e-05" x2="265" y2="10" stroke="var(--stroke-0, #F8EFFF)"/>
<line id="Line 96" x1="271" y1="1.18349e-05" x2="271" y2="6.00001" stroke="var(--stroke-0, #F8EFFF)"/>
<line id="Line 97" x1="277" y1="1.20643e-05" x2="277" y2="10" stroke="var(--stroke-0, #F8EFFF)"/>
<line id="Line 98" x1="283" y1="1.23594e-05" x2="283" y2="6.00001" stroke="var(--stroke-0, #F8EFFF)"/>
<line id="Line 99" x1="289" y1="1.25889e-05" x2="289" y2="10" stroke="var(--stroke-0, #F8EFFF)"/>
<line id="Line 100" x1="295" y1="1.28839e-05" x2="295" y2="6.00001" stroke="var(--stroke-0, #F8EFFF)"/>
<line id="Line 101" x1="301" y1="1.31134e-05" x2="301" y2="10" stroke="var(--stroke-0, #F8EFFF)"/>
<line id="Line 102" x1="307" y1="1.34085e-05" x2="307" y2="6.00001" stroke="var(--stroke-0, #F8EFFF)"/>
<line id="Line 103" x1="313" y1="1.3638e-05" x2="313" y2="10" stroke="var(--stroke-0, #F8EFFF)"/>
<line id="Line 104" x1="319" y1="1.3933e-05" x2="319" y2="6.00001" stroke="var(--stroke-0, #F8EFFF)"/>
<line id="Line 105" x1="325" y1="1.41625e-05" x2="325" y2="10" stroke="var(--stroke-0, #F8EFFF)"/>
<line id="Line 106" x1="331" y1="1.44575e-05" x2="331" y2="6.00001" stroke="var(--stroke-0, #F8EFFF)"/>
<line id="Line 107" x1="337" y1="1.4687e-05" x2="337" y2="10" stroke="var(--stroke-0, #F8EFFF)"/>
</g>
<defs>
<clipPath id="clip0_0_46">
<rect width="341" height="12" fill="white"/>
</clipPath>
</defs>
</svg>
