<svg preserveAspectRatio="none" width="100%" height="100%" overflow="visible" style="display: block;" viewBox="0 0 440 26" fill="none" xmlns="http://www.w3.org/2000/svg">
<g id="Frame 195" clip-path="url(#clip0_0_209)">
<g id="GRAUS">
<g id="Frame 188">
<line id="Line 1" x1="-176.5" y1="14" x2="-176.5" y2="26" stroke="var(--stroke-0, #F8EFFF)"/>
<path id="No Friends Text 2" d="M-174.322 3H-173.152V10H-174.212L-179.682 4.48V10H-180.842V3H-179.562L-174.322 8.31V3Z" fill="var(--fill-0, #F8EFFF)"/>
</g>
<line id="Line 3" x1="-164.5" y1="17" x2="-164.5" y2="23" stroke="var(--stroke-0, #F8EFFF)"/>
<line id="Line 4" x1="-152.5" y1="17" x2="-152.5" y2="23" stroke="var(--stroke-0, #F8EFFF)"/>
<line id="Line 5" x1="-140.5" y1="17" x2="-140.5" y2="23" stroke="var(--stroke-0, #F8EFFF)"/>
<line id="Line 6" x1="-128.5" y1="17" x2="-128.5" y2="23" stroke="var(--stroke-0, #F8EFFF)"/>
<line id="Line 7" x1="-116.5" y1="17" x2="-116.5" y2="23" stroke="var(--stroke-0, #F8EFFF)"/>
<line id="Line 8" x1="-104.5" y1="17" x2="-104.5" y2="23" stroke="var(--stroke-0, #F8EFFF)"/>
<line id="Line 9" x1="-92.5" y1="17" x2="-92.5" y2="23" stroke="var(--stroke-0, #F8EFFF)"/>
<line id="Line 10" x1="-80.5" y1="17" x2="-80.5" y2="23" stroke="var(--stroke-0, #F8EFFF)"/>
<g id="Frame 187">
<line id="Line 2" x1="-68.5" y1="14" x2="-68.5" y2="26" stroke="var(--stroke-0, #F8EFFF)"/>
<path id="No Friends Text 2_2" d="M-70.0899 3H-68.9199V10H-69.9799L-75.4499 4.48V10H-76.6099V3H-75.3299L-70.0899 8.31V3ZM-65.6152 8.95H-59.8352V10H-66.8052V3H-59.9352V4.05H-65.6152V5.92H-60.8352V6.97H-65.6152V8.95Z" fill="var(--fill-0, #F8EFFF)"/>
</g>
<line id="Line 11" x1="-56.5" y1="17" x2="-56.5" y2="23" stroke="var(--stroke-0, #F8EFFF)"/>
<line id="Line 12" x1="-44.5" y1="17" x2="-44.5" y2="23" stroke="var(--stroke-0, #F8EFFF)"/>
<line id="Line 13" x1="-32.5" y1="17" x2="-32.5" y2="23" stroke="var(--stroke-0, #F8EFFF)"/>
<line id="Line 14" x1="-20.5" y1="17" x2="-20.5" y2="23" stroke="var(--stroke-0, #F8EFFF)"/>
<line id="Line 15" x1="-8.49998" y1="17" x2="-8.49999" y2="23" stroke="var(--stroke-0, #F8EFFF)"/>
<line id="Line 16" x1="3.50002" y1="17" x2="3.50001" y2="23" stroke="var(--stroke-0, #F8EFFF)"/>
<line id="Line 17" x1="15.5" y1="17" x2="15.5" y2="23" stroke="var(--stroke-0, #F8EFFF)"/>
<line id="Line 18" x1="27.5" y1="17" x2="27.5" y2="23" stroke="var(--stroke-0, #F8EFFF)"/>
<g id="Frame 189">
<line id="Line 2_2" x1="39.5" y1="14" x2="39.5" y2="26" stroke="var(--stroke-0, #F8EFFF)"/>
<path id="No Friends Text 2_3" d="M37.7331 8.66H43.3531V10H36.1431V3H43.2531V4.34H37.7331V5.78H42.3431V7.12H37.7331V8.66Z" fill="var(--fill-0, #F8EFFF)"/>
</g>
<line id="Line 19" x1="51.5" y1="17" x2="51.5" y2="23" stroke="var(--stroke-0, #F8EFFF)"/>
<line id="Line 20" x1="63.5" y1="17" x2="63.5" y2="23" stroke="var(--stroke-0, #F8EFFF)"/>
<line id="Line 21" x1="75.5" y1="17" x2="75.5" y2="23" stroke="var(--stroke-0, #F8EFFF)"/>
<line id="Line 22" x1="87.5" y1="17" x2="87.5" y2="23" stroke="var(--stroke-0, #F8EFFF)"/>
<line id="Line 23" x1="99.5" y1="17" x2="99.5" y2="23" stroke="var(--stroke-0, #F8EFFF)"/>
<line id="Line 24" x1="111.5" y1="17" x2="111.5" y2="23" stroke="var(--stroke-0, #F8EFFF)"/>
<line id="Line 25" x1="123.5" y1="17" x2="123.5" y2="23" stroke="var(--stroke-0, #F8EFFF)"/>
<line id="Line 26" x1="135.5" y1="17" x2="135.5" y2="23" stroke="var(--stroke-0, #F8EFFF)"/>
<g id="Frame 190">
<line id="Line 2_3" x1="147.5" y1="14" x2="147.5" y2="26" stroke="var(--stroke-0, #F8EFFF)"/>
<path id="No Friends Text 2_4" d="M142.908 5.69C145.138 5.87 146.708 6.34 146.708 7.88C146.708 9.26 145.398 10.22 142.918 10.22C141.148 10.22 139.708 9.72 138.638 8.81L139.558 7.72C140.418 8.51 141.528 8.88 142.958 8.88C144.378 8.88 145.098 8.61 145.098 8.03C145.098 7.45 144.378 7.29 142.768 7.15C140.768 6.98 138.908 6.54 138.908 5.04C138.908 3.58 140.468 2.78 142.628 2.78C144.158 2.78 145.478 3.16 146.368 3.85L145.488 4.96C144.718 4.37 143.768 4.13 142.628 4.12C141.678 4.11 140.518 4.28 140.518 4.92C140.518 5.52 141.518 5.58 142.908 5.69ZM149.598 8.66H155.218V10H148.008V3H155.118V4.34H149.598V5.78H154.208V7.12H149.598V8.66Z" fill="var(--fill-0, #F8EFFF)"/>
</g>
<line id="Line 27" x1="159.5" y1="17" x2="159.5" y2="23" stroke="var(--stroke-0, #F8EFFF)"/>
<line id="Line 28" x1="171.5" y1="17" x2="171.5" y2="23" stroke="var(--stroke-0, #F8EFFF)"/>
<line id="Line 29" x1="183.5" y1="17" x2="183.5" y2="23" stroke="var(--stroke-0, #F8EFFF)"/>
<line id="Line 30" x1="195.5" y1="17" x2="195.5" y2="23" stroke="var(--stroke-0, #F8EFFF)"/>
<line id="Line 31" x1="207.5" y1="17" x2="207.5" y2="23" stroke="var(--stroke-0, #F8EFFF)"/>
<line id="Line 32" x1="219.5" y1="17" x2="219.5" y2="23" stroke="var(--stroke-0, #F8EFFF)"/>
<line id="Line 33" x1="231.5" y1="17" x2="231.5" y2="23" stroke="var(--stroke-0, #F8EFFF)"/>
<line id="Line 34" x1="243.5" y1="17" x2="243.5" y2="23" stroke="var(--stroke-0, #F8EFFF)"/>
<g id="Frame 191">
<line id="Line 2_4" x1="255.5" y1="14" x2="255.5" y2="26" stroke="var(--stroke-0, #F8EFFF)"/>
<path id="No Friends Text 2_5" d="M255.705 5.69C257.935 5.87 259.505 6.34 259.505 7.88C259.505 9.26 258.195 10.22 255.715 10.22C253.945 10.22 252.505 9.72 251.435 8.81L252.355 7.72C253.215 8.51 254.325 8.88 255.755 8.88C257.175 8.88 257.895 8.61 257.895 8.03C257.895 7.45 257.175 7.29 255.565 7.15C253.565 6.98 251.705 6.54 251.705 5.04C251.705 3.58 253.265 2.78 255.425 2.78C256.955 2.78 258.275 3.16 259.165 3.85L258.285 4.96C257.515 4.37 256.565 4.13 255.425 4.12C254.475 4.11 253.315 4.28 253.315 4.92C253.315 5.52 254.315 5.58 255.705 5.69Z" fill="var(--fill-0, #F8EFFF)"/>
</g>
<line id="Line 35" x1="267.5" y1="17" x2="267.5" y2="23" stroke="var(--stroke-0, #F8EFFF)"/>
<line id="Line 36" x1="279.5" y1="17" x2="279.5" y2="23" stroke="var(--stroke-0, #F8EFFF)"/>
<line id="Line 37" x1="291.5" y1="17" x2="291.5" y2="23" stroke="var(--stroke-0, #F8EFFF)"/>
<line id="Line 38" x1="303.5" y1="17" x2="303.5" y2="23" stroke="var(--stroke-0, #F8EFFF)"/>
<line id="Line 39" x1="315.5" y1="17" x2="315.5" y2="23" stroke="var(--stroke-0, #F8EFFF)"/>
<line id="Line 40" x1="327.5" y1="17" x2="327.5" y2="23" stroke="var(--stroke-0, #F8EFFF)"/>
<line id="Line 41" x1="339.5" y1="17" x2="339.5" y2="23" stroke="var(--stroke-0, #F8EFFF)"/>
<line id="Line 42" x1="351.5" y1="17" x2="351.5" y2="23" stroke="var(--stroke-0, #F8EFFF)"/>
<g id="Frame 192">
<line id="Line 2_5" x1="363.5" y1="14" x2="363.5" y2="26" stroke="var(--stroke-0, #F8EFFF)"/>
<path id="No Friends Text 2_6" d="M357.66 5.69C359.89 5.87 361.46 6.34 361.46 7.88C361.46 9.26 360.15 10.22 357.67 10.22C355.9 10.22 354.46 9.72 353.39 8.81L354.31 7.72C355.17 8.51 356.28 8.88 357.71 8.88C359.13 8.88 359.85 8.61 359.85 8.03C359.85 7.45 359.13 7.29 357.52 7.15C355.52 6.98 353.66 6.54 353.66 5.04C353.66 3.58 355.22 2.78 357.38 2.78C358.91 2.78 360.23 3.16 361.12 3.85L360.24 4.96C359.47 4.37 358.52 4.13 357.38 4.12C356.43 4.11 355.27 4.28 355.27 4.92C355.27 5.52 356.27 5.58 357.66 5.69ZM372.107 3H373.757L371.197 10H369.567L367.727 4.72L365.867 10H364.257L361.697 3H363.377L365.097 8.18L366.967 3H368.517L370.377 8.18L372.107 3Z" fill="var(--fill-0, #F8EFFF)"/>
</g>
<line id="Line 43" x1="375.5" y1="17" x2="375.5" y2="23" stroke="var(--stroke-0, #F8EFFF)"/>
<line id="Line 44" x1="387.5" y1="17" x2="387.5" y2="23" stroke="var(--stroke-0, #F8EFFF)"/>
<line id="Line 45" x1="399.5" y1="17" x2="399.5" y2="23" stroke="var(--stroke-0, #F8EFFF)"/>
<line id="Line 46" x1="411.5" y1="17" x2="411.5" y2="23" stroke="var(--stroke-0, #F8EFFF)"/>
<line id="Line 47" x1="423.5" y1="17" x2="423.5" y2="23" stroke="var(--stroke-0, #F8EFFF)"/>
<line id="Line 48" x1="435.5" y1="17" x2="435.5" y2="23" stroke="var(--stroke-0, #F8EFFF)"/>
<line id="Line 49" x1="447.5" y1="17" x2="447.5" y2="23" stroke="var(--stroke-0, #F8EFFF)"/>
<line id="Line 50" x1="459.5" y1="17" x2="459.5" y2="23" stroke="var(--stroke-0, #F8EFFF)"/>
<g id="Frame 193">
<line id="Line 2_6" x1="471.5" y1="14" x2="471.5" y2="26" stroke="var(--stroke-0, #F8EFFF)"/>
<path id="No Friends Text 2_7" d="M476.116 3H477.366L474.806 10H473.566L471.506 4.35L469.436 10H468.206L465.636 3H466.916L468.846 8.6L470.926 3H472.106L474.176 8.6L476.116 3Z" fill="var(--fill-0, #F8EFFF)"/>
</g>
<line id="Line 51" x1="483.5" y1="17" x2="483.5" y2="23" stroke="var(--stroke-0, #F8EFFF)"/>
<line id="Line 52" x1="495.5" y1="17" x2="495.5" y2="23" stroke="var(--stroke-0, #F8EFFF)"/>
<line id="Line 53" x1="507.5" y1="17" x2="507.5" y2="23" stroke="var(--stroke-0, #F8EFFF)"/>
<line id="Line 54" x1="519.5" y1="17" x2="519.5" y2="23" stroke="var(--stroke-0, #F8EFFF)"/>
<line id="Line 55" x1="531.5" y1="17" x2="531.5" y2="23" stroke="var(--stroke-0, #F8EFFF)"/>
<line id="Line 56" x1="543.5" y1="17" x2="543.5" y2="23" stroke="var(--stroke-0, #F8EFFF)"/>
<line id="Line 57" x1="555.5" y1="17" x2="555.5" y2="23" stroke="var(--stroke-0, #F8EFFF)"/>
<line id="Line 58" x1="567.5" y1="17" x2="567.5" y2="23" stroke="var(--stroke-0, #F8EFFF)"/>
<g id="Frame 194">
<line id="Line 2_7" x1="579.5" y1="14" x2="579.5" y2="26" stroke="var(--stroke-0, #F8EFFF)"/>
<path id="No Friends Text 2_8" d="M575.584 3H576.754V10H575.694L570.224 4.48V10H569.064V3H570.344L575.584 8.31V3ZM588.519 3H589.769L587.209 10H585.969L583.909 4.35L581.839 10H580.609L578.039 3H579.319L581.249 8.6L583.329 3H584.509L586.579 8.6L588.519 3Z" fill="var(--fill-0, #F8EFFF)"/>
</g>
</g>
</g>
<defs>
<clipPath id="clip0_0_209">
<rect width="440" height="26" fill="white"/>
</clipPath>
</defs>
</svg>
