<svg preserveAspectRatio="none" width="100%" height="100%" overflow="visible" style="display: block;" viewBox="0 0 17 8" fill="none" xmlns="http://www.w3.org/2000/svg">
<g id="Union" filter="url(#filter0_g_0_31)">
<path fill-rule="evenodd" clip-rule="evenodd" d="M15.6958 1.17385L15.3646 1.30498C15.372 1.33346 15.3912 1.4049 15.4025 1.44657L15.8869 1.3972L16 2.10473L15.5786 2.3495L15.3215 2.70124L14.9378 3.65355L14.6228 4.33835C14.5703 4.65534 14.4263 4.96703 14.2311 5.17167L13.7707 5.6906L13.4112 6.43954H13.4138L13.3869 6.81936L12.8874 7L12.3597 6.10112L12.7986 5.51662L12.7084 5.04184L13.0786 4.67142C13.2401 4.56714 13.4621 4.33723 13.4112 4.30766L13.3318 3.69365L13.7625 3.20149L14.0264 3.02895C14.0519 2.80294 14.1072 2.49669 14.1664 2.26264L14.6604 1.92958L14.8853 1.47752C14.9472 1.32639 15.1425 1.11235 15.2973 1L15.6958 1.17385ZM14.4788 3.53051L14.7318 3.45423L14.4235 3.22827L14.4788 3.53051Z" fill="var(--fill-0, #C8FE4E)"/>
<path d="M9.91094 1.95766L9.92172 2.47398L9.97142 2.91662L9.92974 3.2604L9.65918 3.70436L9.70493 4.22864L8.99683 4.76233L8.53497 5.42441L8.17829 5.96463L8.20117 6.40741C7.73537 6.71903 7.35841 6.695 6.96666 6.366L6.90868 6.02366L7.26418 4.87204C7.46476 4.76638 7.59402 4.51219 7.48229 4.40654L7.40012 3.83014L8.09349 3.22553L8.91597 2.47398L9.07347 1.96837L9.51377 1.71158L9.91094 1.95766Z" fill="var(--fill-0, #C8FE4E)"/>
<path d="M4.88666 1.91351L4.64436 2.00181L4.71299 2.2198L4.62543 2.66114L4.11664 2.92734L3.86882 3.45292L3.67372 3.9358L3.48387 4.44663L2.96286 4.98163L2.50245 5.13288L2.36243 5.57422L1.79158 6.15872L1.11044 6.02223L1.03366 5.38966L1 5.19296L1.02827 4.93082L1.36615 4.49352L1.46988 3.97185L2.16049 3.32727L2.65456 2.7962L3.23211 2.28537L3.61179 1.97229L3.75181 1.52167L4.13952 1.58855L4.86379 1.39458L4.88666 1.91351Z" fill="var(--fill-0, #C8FE4E)"/>
</g>
<defs>
<filter id="filter0_g_0_31" x="0" y="0" width="17" height="8" filterUnits="userSpaceOnUse" color-interpolation-filters="sRGB">
<feFlood flood-opacity="0" result="BackgroundImageFix"/>
<feBlend mode="normal" in="SourceGraphic" in2="BackgroundImageFix" result="shape"/>
<feTurbulence type="fractalNoise" baseFrequency="0.99900001287460327 0.99900001287460327" numOctaves="3" seed="6748" />
<feDisplacementMap in="shape" scale="2" xChannelSelector="R" yChannelSelector="G" result="displacedImage" width="100%" height="100%" />
<feMerge result="effect1_texture_0_31">
<feMergeNode in="displacedImage"/>
</feMerge>
</filter>
</defs>
</svg>
