<svg preserveAspectRatio="none" width="100%" height="100%" overflow="visible" style="display: block;" viewBox="0 0 20 14" fill="none" xmlns="http://www.w3.org/2000/svg">
<g id="Vector">
<path d="M10 2L12.1213 2.88164L13 5.01012L12.1213 7.13859L10 8.02023L7.87868 7.13859L7 5.01012L7.87868 2.88164L10 2Z" fill="var(--fill-0, #F8EFFF)"/>
<path fill-rule="evenodd" clip-rule="evenodd" d="M12.083 8.2406L10 9.10631L7.91699 8.2406L7.14683 9.06407L8.23662 14H11.7633L12.8532 9.06407L12.083 8.2406Z" fill="var(--fill-0, #F8EFFF)"/>
<path d="M17 0L19.1213 0.881643L20 3.01012L19.1213 5.13859L17 6.02023L14.8787 5.13859L14 3.01012L14.8787 0.881643L17 0Z" fill="var(--fill-0, #F8EFFF)"/>
<path fill-rule="evenodd" clip-rule="evenodd" d="M19.083 6.2406L17 7.10631L14.917 6.2406L14.1468 7.06407L15.2366 12H18.7633L19.8532 7.06407L19.083 6.2406Z" fill="var(--fill-0, #F8EFFF)"/>
<path d="M3 0L5.12132 0.881643L6 3.01012L5.12132 5.13859L3 6.02023L0.87868 5.13859L0 3.01012L0.87868 0.881643L3 0Z" fill="var(--fill-0, #F8EFFF)"/>
<path fill-rule="evenodd" clip-rule="evenodd" d="M5.08301 6.2406L3 7.10631L0.916992 6.2406L0.146826 7.06407L1.23662 12H4.76333L5.85317 7.06407L5.08301 6.2406Z" fill="var(--fill-0, #F8EFFF)"/>
</g>
</svg>
