<svg preserveAspectRatio="none" width="100%" height="100%" overflow="visible" style="display: block;" viewBox="0 0 17.8391 10" fill="none" xmlns="http://www.w3.org/2000/svg">
<g id="Union">
<path fill-rule="evenodd" clip-rule="evenodd" d="M9.5 0.872647L12.049 1.32298L14.213 1.68662L15.3292 3.32291L14.9521 5.32291L15.9198 5.82291L17.8391 5.82877V7.82877H17.1273L16.8714 6.82877L16.2036 7.82291H15.4917L15.5428 7.82877L15.9901 9.99414L15.1292 10L14.2405 8.72613L13.0167 9.32291L10.9745 9.31705L10.1476 8.06022L10.5975 5.32291L9.5 4.94687L8.44568 5.40716L7.91618 8.5888L7.12992 9.22942H3.62294L3.13909 8.73723L3.25911 7.96189L3.84148 7.6386L4.66388 7.53216L6.3087 7.31927L6.40348 5.33684L5.28585 5.12395L6 3.5V2L6.3087 1.3637L7.19636 1.04973L9.5 0.872647ZM12.5329 7.32291L14.213 7.45768L13.5006 7.32291L12.5329 6.32291V7.32291Z" fill="var(--fill-0, #F8EFFF)"/>
<path d="M5.02564 1.3637L5.28585 2.91764L4.66379 4.65279L3.38696 4.76664L3.16542 4.56666L2.769 4.5L2.41926 4.76664L1.93541 4.5H0.819155L0 4.0527L9.24605e-05 2L0.819248 0.594034L1.9355 0L3.62294 0.129045L5.02564 1.3637Z" fill="var(--fill-0, #F8EFFF)"/>
</g>
</svg>
