<svg preserveAspectRatio="none" width="100%" height="100%" overflow="visible" style="display: block;" viewBox="0 0 11 13" fill="none" xmlns="http://www.w3.org/2000/svg">
<path id="Vector" d="M10.25 1.5L7.65025 0H4.08745L1.36134 1.5L0.0477738 3.92662L0 4.59029L1.58987 6.16714L1.80981 6.54644L0.810862 7.09796L0.5027 7.1261C0.4588 7.22649 0.449331 7.24791 0.405861 7.3483L1.16637 8.2808L1.6979 8.13L0.728656 9.6136L1.36134 11.5273L1.48357 12.2414C1.82745 12.5279 2.0504 12.7135 2.39428 13L5.16171 12.5884L6.0664 10.5381L6.48775 10.8708L8.28766 9.98282L8.02081 9.54219L7.65025 8.25896L8.37976 7.75911L8.89365 8.1258L11 5.64922L10.25 1.5ZM3.56495 10.3058L3.03858 10.2437L2.75366 9.79716L2.41838 9.56194L2.10979 10.1819L1.95054 10.3088L1.53909 9.93661L1.68413 9.17298L2.17607 8.13L2.89268 8.18671L3.82534 9.99416L3.56495 10.3058ZM8.03717 6.15075L7.40837 6.77326L5.80902 7.27773L3.87053 6.69051L3.69794 6.53552L4.08745 6.1558L5.3003 5.37325L5.70099 5.17079L6.98098 4.60415L8.11938 4.44663L8.34791 4.9049L8.43528 5.06998L8.03717 6.15075Z" fill="var(--fill-0, #F8EFFF)"/>
</svg>
