<svg preserveAspectRatio="none" width="100%" height="100%" overflow="visible" style="display: block;" viewBox="0 0 75 50.0002" fill="none" xmlns="http://www.w3.org/2000/svg">
<g id="Frame 287">
<g id="Vector">
<path d="M42.225 8.88737L49.8437 15.116L49.3175 15.706L48.793 16.296L41.5952 10.4111L36.4264 13.0668L36.0434 12.8732L31.782 10.7009L26.3681 17.0902L25.7401 16.6008L25.1104 16.1114L31.3662 8.73274L31.9528 9.03299L36.4229 11.3089L41.8023 8.54508L42.225 8.88737Z" fill="#F8EFFF" fill-opacity="0.55"/>
<path d="M44.1241 0.456378L54.7904 8.76126L54.0537 9.54791L53.3194 10.3346L43.2425 2.48806L36.0061 6.029L35.4699 5.77078L29.5039 2.87438L21.9245 11.3934L21.0453 10.7409L20.1637 10.0884L28.9218 0.250207L29.7431 0.650539L36.0013 3.68505L43.5324 0L44.1241 0.456378Z" fill="#F8EFFF" fill-opacity="0.55"/>
<path d="M57.3623 29.6821L52.7264 35.6045L52.2873 35.1955L51.8481 34.7878L56.2282 29.1926L54.2516 25.1745L54.3957 24.8768L56.0125 21.5642L51.257 17.3558L51.6213 16.8676L51.9856 16.3781L57.4774 21.241L57.2539 21.697L55.56 25.1719L57.6171 29.3535L57.3623 29.6821Z" fill="#F8EFFF" fill-opacity="0.55"/>
<path d="M63.6374 31.049L57.4561 39.165L56.8707 38.6044L56.2852 38.0457L62.1252 30.3782L59.4897 24.872L59.6819 24.464L61.8377 19.9246L55.4971 14.1574L55.9827 13.4884L56.4684 12.8176L63.7908 19.4816L63.4929 20.1065L61.2343 24.8684L63.9771 30.5988L63.6374 31.049Z" fill="#F8EFFF" fill-opacity="0.55"/>
<path d="M17.5918 29.6821L22.2277 35.6045L22.6668 35.1955L23.106 34.7878L18.7259 29.1926L20.7025 25.1745L20.5584 24.8768L18.9416 21.5642L23.697 17.3558L23.3328 16.8676L22.9685 16.3781L17.4767 21.241L17.7002 21.697L19.3941 25.1719L17.3371 29.3535L17.5918 29.6821Z" fill="#F8EFFF" fill-opacity="0.55"/>
<path d="M11.3167 31.049L17.4979 39.165L18.0834 38.6044L18.6689 38.0457L12.8289 30.3782L15.4644 24.872L15.2722 24.464L13.1164 19.9246L19.457 14.1574L18.9714 13.4884L18.4857 12.8176L11.1633 19.4816L11.4612 20.1065L13.7198 24.8684L10.9771 30.5988L11.3167 31.049Z" fill="#F8EFFF" fill-opacity="0.55"/>
<path d="M41.7543 17.8023L44.6024 26.743L44.6369 26.8522L44.6617 26.9642L46.2151 34.0079L51.4565 48.2685L45.9176 47L42.1152 37.2067H33.5455L29.7432 47L24.2043 48.2685L29.4456 34.0079L30.999 26.9642L31.0239 26.8522L31.0584 26.743L33.9065 17.8023L37.8304 15.116L41.7543 17.8023ZM35.8029 28.1575L34.9071 32.2221H40.7537L39.9771 28.1575L38.1465 22.7869H37.5143L35.8029 28.1575Z" fill="#C8FE4E"/>
<path d="M33.9771 28H41.9771V30H33.9771V28Z" fill="var(--fill-0, #C8FE4E)"/>
</g>
</g>
</svg>
