<svg preserveAspectRatio="none" width="100%" height="100%" overflow="visible" style="display: block;" viewBox="0 0 24 24" fill="none" xmlns="http://www.w3.org/2000/svg">
<g id="icons/AIRDROP">
<g id="Subtract">
<path d="M15.5366 20.5399L12.1377 22L8.73889 21.6348L9.07911 17.2562L12.1377 15.7961H15.5366V20.5399Z" fill="var(--fill-0, #F8EFFF)"/>
<path d="M11.7353 15.501L11.3478 15.6853L9.49899 11.1908L9.75622 11.0973L9.91886 11.0834L11.7353 15.501Z" fill="var(--fill-0, #F8EFFF)"/>
<path d="M12.9277 15.353H12.0448L11.961 15.3928L11.795 15.4724L11.3154 10.9657L11.7394 10.9302L12.1377 14.6744L12.5443 10.8627L12.9758 10.8264L12.5029 15.2569L14.4122 10.7052L14.8943 10.6654L12.9277 15.353Z" fill="var(--fill-0, #F8EFFF)"/>
<path d="M20.2623 9.38272L18.9512 10.2387L15.2503 9.81461L14.8993 9.77566L14.7989 9.78345L13.0713 9.92799L12.6398 9.96521L11.644 10.0483L11.6448 10.0492L11.4241 10.0673L9.57948 10.2231L9.5662 10.2275L9.56703 10.2283L9.16375 10.3737L5.23963 11.7957L3.81901 11.4132L8.17629 9.51947L13.5924 8.65051L20.2623 9.38272Z" fill="var(--fill-0, #F8EFFF)"/>
<path d="M17.0336 2.75212L20.4457 6.49022L21 8.57262L13.5725 7.75731L13.5177 7.76597L7.99456 8.65224L7.94394 8.66003L7.89581 8.6808L3 10.8082L3.21824 8.74572L6.42458 4.04778L11.6208 2L17.0336 2.75212Z" fill="var(--fill-0, #F8EFFF)"/>
</g>
</g>
</svg>
