<svg width="30" height="27" viewBox="0 0 30 27" fill="none" xmlns="http://www.w3.org/2000/svg">
<path d="M0.752782 9.48791L6.58065 13.822L6.36621 14.7999L0 10.8263L0.752782 9.48791Z" fill="#1D1C26"/>
<path d="M8.99291 0.144954C9.37946 -0.048318 9.83488 -0.048318 10.2214 0.144954C12.9823 1.5253 16.232 1.5253 18.9929 0.144954C19.3795 -0.048318 19.8349 -0.048318 20.2214 0.144954L24.0593 2.0639C24.4163 2.24251 24.7122 2.5236 24.908 2.87152L28.4281 9.13L22.5289 13.3437L21.5349 8.81097L21.8552 18.0873C21.3642 17.4689 20.8727 16.8503 20.3816 16.2319C20.2982 14.5973 20.216 12.9622 20.1326 11.3276C20.1242 11.1644 20.1155 11.0005 20.1072 10.8373C20.0988 11.0005 20.0901 11.1644 20.0818 11.3276C19.9966 12.9973 19.9121 14.6676 19.8269 16.3373L19.8318 16.4409L19.8787 16.5004C20.5553 17.5578 21.2332 18.6149 21.9099 19.6723L22.071 24.3373L12.0681 25.6733C12.4577 24.7995 12.9016 23.9231 13.3406 23.0619C13.9615 22.718 14.583 22.3747 15.2039 22.0307L15.2917 21.9907L15.3191 21.8793C15.5514 20.3936 15.7831 18.9071 16.0154 17.4213C16.0458 17.2268 16.0767 17.0319 16.1072 16.8373C16.0604 17.0286 16.0133 17.2203 15.9665 17.4116C15.6186 18.8352 15.2705 20.2594 14.9226 21.683C14.2711 21.975 13.62 22.268 12.9685 22.56L12.8747 22.6118L12.8376 22.683C12.2009 23.7088 11.5722 24.7201 10.9997 25.8168L7.10717 26.3373L7.23705 22.3539C7.29903 22.2872 7.36159 22.2205 7.42358 22.1537C8.06539 21.4624 8.70755 20.7709 9.34936 20.0795L9.42846 19.9545C10.0269 18.0966 10.6259 16.2382 11.2244 14.3803L11.2185 14.393C11.5885 13.5787 11.9589 12.7639 12.3289 11.9496C12.4215 11.7456 12.5145 11.5413 12.6072 11.3373C12.4996 11.5339 12.3915 11.7306 12.2839 11.9272C11.8545 12.7117 11.4253 13.4971 10.9958 14.2817L10.99 14.2944C10.2665 16.0751 9.5426 17.8564 8.81909 19.6371C8.3058 20.1136 7.79221 20.5902 7.27905 21.0668L7.67944 8.81097L6.68782 13.3331L0.859953 8.99896L4.30639 2.87152C4.50215 2.5236 4.798 2.24251 5.15502 2.0639L8.99291 0.144954ZM16.908 8.69183C16.3168 9.7561 15.7745 10.8425 15.282 11.9506C15.1627 12.2189 15.0434 12.4879 14.9246 12.7563L14.9177 12.7739C14.6282 13.6463 14.3403 14.5203 14.0544 15.394C14.0126 15.5217 13.9712 15.65 13.9294 15.7778C13.9728 15.6504 14.4148 15.5141 14.4148 15.5141C14.7093 14.6468 15.0019 13.7781 15.2927 12.9096C15.411 12.6444 15.5302 12.3791 15.6482 12.1137C16.1408 11.0054 16.5834 9.8743 16.9773 8.7221C17.021 8.5942 17.0647 8.46578 17.1072 8.33734C17.0403 8.45498 16.9736 8.57365 16.908 8.69183Z" fill="#1D1C26"/>
<path d="M22.7215 13.6777L28.6208 9.46398L29.2998 10.6713L22.9336 14.6449L22.7215 13.6777Z" fill="#1D1C26"/>
</svg>
