<svg preserveAspectRatio="none" width="100%" height="100%" overflow="visible" style="display: block;" viewBox="0 0 12.071 9" fill="none" xmlns="http://www.w3.org/2000/svg">
<g id="Frame 198">
<g id="Vector" filter="url(#filter0_g_0_194)">
<path d="M7.35888 1.05911L6.54182 1.39471L5.834 1.6281L5.29884 1.91715L4.64705 2.58152L3.81107 2.87556L3.09699 4.18835L2.13555 5.2575L1.34741 6.10278L0.644245 6.37227C0.236776 7.2091 0.343093 7.69904 0.93355 8.00207L1.48452 7.84782L3.23809 6.58959C3.36852 6.24857 3.74634 5.90264 3.93342 5.98105L4.85828 5.70059L5.687 4.35949L6.72427 2.74537L7.49389 2.19104L7.81941 1.42565L7.35888 1.05911Z" fill="var(--fill-0, #C8FE4E)"/>
<path d="M11.671 7.74165L11.3354 6.92459L11.102 6.21677L10.8129 5.68161L10.1486 5.02982L9.85453 4.19384L8.54174 3.47976L7.47259 2.51831L6.62731 1.73018L6.35781 1.02701C5.52098 0.619543 5.03104 0.72586 4.72801 1.31632L4.88226 1.86728L6.1405 3.62086C6.48151 3.75128 6.82744 4.12911 6.74903 4.31618L7.0295 5.24105L8.3706 6.06976L9.98471 7.10704L10.539 7.87666L11.3044 8.20218L11.671 7.74165Z" fill="var(--fill-0, #C8FE4E)"/>
</g>
</g>
<defs>
<filter id="filter0_g_0_194" x="7.45058e-09" y="0.382767" width="12.071" height="8.21941" filterUnits="userSpaceOnUse" color-interpolation-filters="sRGB">
<feFlood flood-opacity="0" result="BackgroundImageFix"/>
<feBlend mode="normal" in="SourceGraphic" in2="BackgroundImageFix" result="shape"/>
<feTurbulence type="fractalNoise" baseFrequency="0.99900001287460327 0.99900001287460327" numOctaves="3" seed="6748" />
<feDisplacementMap in="shape" scale="0.80000001192092896" xChannelSelector="R" yChannelSelector="G" result="displacedImage" width="100%" height="100%" />
<feMerge result="effect1_texture_0_194">
<feMergeNode in="displacedImage"/>
</feMerge>
</filter>
</defs>
</svg>
