<svg preserveAspectRatio="none" width="100%" height="100%" overflow="visible" style="display: block;" viewBox="0 0 255.468 344.153" fill="none" xmlns="http://www.w3.org/2000/svg">
<g id="Vector" opacity="0.05">
<path d="M160.413 241.695L139.554 254.928L135.703 268.127L101.47 272.457L89.5145 260.094L88.2354 251.692L82.9236 234.08L85.6607 228.281L78.3177 219.05L80.6273 213.603C80.8228 213.135 80.9355 212.873 81.0647 212.568L81.2867 212.048L78.7849 201.892L76.2632 199.326L77.7908 187.373L74.2055 170.318L74.0464 160.673L76.2566 132.53L98.8755 138.253L117.057 123.966L131.12 133.014L165.393 112.126L172.13 161.956L175.321 175.802L174.675 183.04L174.947 183.975L181.017 206.235L158.262 235.638L160.413 241.695ZM182.833 206.597L176.537 183.51L176.351 182.877L176.994 175.686L173.76 161.658L166.696 109.391L131.144 131.058L116.961 121.934L98.4911 136.446L74.7588 130.441L72.3896 160.623L72.552 170.503L76.1108 187.439L74.5169 199.913L77.2838 202.731L79.547 211.905L79.4377 212.157C79.3449 212.379 79.2455 212.615 79.103 212.956L76.409 219.312L83.7222 228.506L81.1542 233.947L86.615 252.057L87.957 260.866L100.857 274.205L136.989 269.636L140.969 255.992L162.418 242.388L160.128 235.936L182.833 206.597Z" fill="var(--fill-0, #F8EFFF)" style="mix-blend-mode:difference"/>
<path d="M70.809 124.934L95.585 131.204L104.976 125.793L115.861 117.242L121.12 119.417L131.203 125.906L170.125 102.183L177.684 158.093L180.752 172.559L181.007 173.67L180.769 181.76L181.063 182.811L181.498 185.112L186.322 202.804L186.746 208.672L182.19 214.558L178.456 222.273L164.31 237.896L161.357 242.448L162.839 249.583L139.361 262.182L133.35 274.5L115.553 276.751L96.9138 276.42L83.8415 262.902L82.4995 254.086L80.3291 246.357L77.0784 235.575L79.0069 229.6L71.8031 220.542L71.4121 219.899L73.8377 214.18C74.0166 213.755 74.179 213.371 74.2982 213.095L74.5302 212.548L74.4706 212.17L72.4559 201.859L70.2291 199.024L70.746 194.969L71.4518 186.494L69.8911 177.46L68.3171 167.297L68.3337 156.489L70.8123 124.931L70.809 124.934ZM69.3112 122.845L66.6636 156.558L66.6504 167.589L68.1548 177.267L69.7685 186.577L69.066 194.996L68.4729 199.647L70.9183 202.757L72.8171 212.336L72.7044 212.598C72.6216 212.8 72.4824 213.125 72.3532 213.437L69.5233 220.114L70.1131 221.089L77.0386 229.793L75.2327 235.403L75.6336 236.523L78.775 246.937L80.8791 254.424L82.2874 263.678L96.3173 278.187L115.328 278.452L134.639 276.008L140.776 263.287L164.78 250.349L163.2 242.766L166.046 238.38L180.454 222.455L184.298 214.548L188.483 209.14L188.012 202.688L183.101 184.678L182.664 182.373L182.465 181.664L182.71 173.653L182.306 171.896L179.337 157.914L171.434 99.4441L131.233 123.946L120.977 117.348L115.792 115.19L104.519 124.046L95.2537 129.407L69.3145 122.845H69.3112Z" fill="var(--fill-0, #F8EFFF)" style="mix-blend-mode:difference"/>
<path d="M65.3647 117.338L92.3012 124.152L102.839 119.808L114.668 110.511L120.335 111.738L131.296 118.79L174.867 92.236L183.247 154.224L186.422 170.305L186.707 171.535L186.876 180.477L187.19 181.644L187.532 184.3L193.065 204.588L192.489 211.106L187.267 217.857L184.679 226.978L167.507 243.854L164.469 249.255L165.277 257.464L139.182 269.434L131.008 280.869L111.693 283.313L92.3675 280.378L78.1818 265.707L76.7768 256.476L74.6429 248.353L71.2398 237.067L72.3598 230.913L64.8146 221.431L64.5065 220.741L67.0447 214.753C67.2038 214.372 67.4192 213.868 67.5252 213.616L67.7704 213.042L67.7406 212.648L66.1268 201.822L64.1917 198.719L64.7351 194.475L65.1095 185.619L63.6714 175.573L62.4255 164.28L62.6144 152.308L65.3614 117.332L65.3647 117.338ZM63.8669 115.249L60.9443 152.493L60.7554 164.675L61.9517 175.397L63.4362 185.715L63.0617 194.508L62.4388 199.376L64.5628 202.774L66.097 212.757L65.9777 213.032C65.9015 213.215 65.7259 213.629 65.6099 213.908L62.6442 220.904L63.1048 221.948L70.3617 231.069L69.3179 236.851L69.7884 237.999L73.0788 248.91L75.1465 256.788L76.6244 266.486L91.7876 282.165L111.427 285.023L132.297 282.384L140.591 270.584L167.15 258.313L166.278 249.603L169.204 244.404L186.67 227.216L189.341 217.883L194.136 211.69L194.762 204.528L189.139 183.905L188.797 181.253L188.582 180.467L188.43 171.634L187.982 169.688L184.914 154.181L176.173 89.504L131.323 116.838L120.195 109.679L114.619 108.452L102.388 118.064L92.0196 122.375L63.8736 115.253L63.8669 115.249Z" fill="var(--fill-0, #F8EFFF)" style="mix-blend-mode:difference"/>
<path d="M59.9171 109.742L89.0108 117.103L100.695 113.83L113.472 103.787L119.543 104.063L131.379 111.679L179.599 82.2893L188.801 150.358L192.085 168.05L192.396 169.403L192.969 179.2L193.307 180.487L193.553 183.497L199.792 206.381L198.215 213.553L192.323 221.165L190.882 231.692L170.685 249.825L167.564 256.075L167.703 265.362L138.994 276.698L128.658 287.252L107.829 289.887L87.8212 284.35L72.5188 268.525L71.0509 258.88L68.9567 250.359L65.4011 238.572L65.7126 232.243L57.8295 222.333L57.6075 221.6L60.2617 215.34C60.4042 214.998 60.6693 214.375 60.7654 214.153L61.0205 213.556V213.145L59.8044 201.806L58.1642 198.434L58.7308 193.998L58.7772 184.757L57.465 173.703L56.5438 161.28L56.9083 148.14L59.9237 109.749L59.9171 109.742ZM58.4193 107.653L55.2184 148.425L54.8539 161.754L55.7419 173.524L57.0972 184.847L57.0475 194.018L56.398 199.1L58.2006 202.791L59.3737 213.178L59.251 213.463C59.1848 213.626 58.9694 214.13 58.8667 214.378L55.7651 221.696L56.0965 222.81L63.6847 232.349L63.403 238.3L63.9465 239.474L67.386 250.883L69.414 259.149L70.9581 269.288L87.2546 286.138L107.524 291.585L129.951 288.75L140.402 277.872L169.515 266.271L169.353 256.43L172.359 250.419L192.883 231.971L194.384 221.212L199.789 214.229L201.512 206.355L195.176 183.116L194.931 180.112L194.702 179.25L194.149 169.598L193.659 167.463L190.494 150.434L180.911 79.5539L131.412 109.722L119.413 102.004L113.445 101.705L100.254 112.07L88.7788 115.329L58.426 107.65L58.4193 107.653Z" fill="var(--fill-0, #F8EFFF)" style="mix-blend-mode:difference"/>
<path d="M54.4695 102.146L85.7237 110.054L98.5507 107.849L112.276 97.0635L118.751 96.3904L131.465 104.57L184.334 72.3492L194.358 146.499L197.748 165.805L198.086 167.277L199.066 177.927L199.424 179.33L199.573 182.695L206.522 208.175L203.944 215.996L197.383 224.474L197.088 236.407L173.866 255.793L170.659 262.889L170.128 273.25L138.801 283.953L126.302 293.624L103.955 296.452L83.2616 288.313L66.8459 271.333L65.315 261.271L63.2605 252.352L59.5559 240.064L59.0589 233.559L50.8377 223.224L50.7019 222.449L53.4721 215.917C53.598 215.618 53.9128 214.873 53.9956 214.68L54.2607 214.057L54.2905 213.629L53.4721 201.776L52.1234 198.135L52.7133 193.507L52.4316 183.882L51.2453 171.816L50.6489 158.262L51.189 143.959L54.4728 102.15L54.4695 102.146ZM52.9717 100.057L49.4924 144.36L48.9523 158.839L49.5322 171.654L50.7582 183.985L51.0366 193.533L50.3606 198.835L51.8418 202.814L52.6503 213.603L52.5211 213.901C52.4614 214.044 52.2096 214.637 52.1201 214.856L48.8827 222.495L49.0848 223.679L57.0044 233.635L57.4849 239.756L58.0979 240.959L61.6866 252.866L63.6781 261.519L65.2918 272.103L82.7182 290.123L103.617 298.16L127.601 295.126L140.21 285.169L171.878 274.235L172.422 263.267L175.51 256.447L199.093 236.735L199.421 224.551L205.432 216.782L208.252 208.198L201.2 182.343L201.048 178.988L200.806 178.046L199.855 167.573L199.318 165.252L196.054 146.698L185.633 69.6138L131.485 102.614L118.615 94.3348L112.259 94.968L98.1067 106.088L85.5248 108.297L52.9684 100.061L52.9717 100.057Z" fill="var(--fill-0, #F8EFFF)" style="mix-blend-mode:difference"/>
<path d="M49.0219 94.5503L82.4332 103.002L96.4068 101.864L111.08 90.3329L117.962 88.7115L131.551 97.4547L189.069 62.3991L199.915 142.629L203.411 163.547L203.778 165.139L205.167 176.641L205.548 178.159L205.601 181.876L213.255 209.952L209.677 218.427L202.45 227.767L203.301 241.105L177.054 261.745L173.764 269.689L172.564 281.128L138.619 291.2L123.96 299.99L100.095 303.007L78.7186 292.265L61.1862 274.135L59.5924 263.658L57.5777 254.344L53.7206 241.556L52.415 234.875L43.8559 224.113L43.8062 223.291L46.6891 216.491C46.7951 216.235 47.1629 215.37 47.2358 215.201L47.5109 214.551L47.5672 214.107L47.1497 201.74L46.0959 197.827L46.7123 193.006L46.0992 183L45.0356 169.923L44.7672 155.239L45.4829 139.771L49.0351 94.547L49.0219 94.5503ZM47.5241 92.4615L43.7664 140.295L43.0507 155.925L43.3224 169.787L44.4192 183.126L45.0223 193.053L44.3165 198.57L45.4763 202.84L45.9203 214.034L45.7878 214.342C45.7381 214.465 45.4465 215.148 45.3702 215.333L41.997 223.294L42.0666 224.547L50.3175 234.922L51.5601 241.211L52.246 242.442L55.9871 254.845L57.9422 263.887L59.6222 274.914L78.1818 294.105L99.7105 304.731L125.255 301.502L140.018 292.467L174.241 282.199L175.493 270.1L178.661 262.468L205.303 241.497L204.461 227.883L211.082 219.325L214.995 210.032L207.231 181.561L207.175 177.854L206.92 176.836L205.571 165.543L204.991 163.033L201.628 142.954L190.368 59.6638L131.571 95.4985L117.829 86.6559L111.083 88.2175L95.9694 100.091L82.2808 101.251L47.5175 92.4548L47.5241 92.4615Z" fill="var(--fill-0, #F8EFFF)" style="mix-blend-mode:difference"/>
<path d="M43.5776 86.9543L79.1494 95.9528L94.2695 95.8831L109.89 83.6089L117.177 81.036L131.644 90.3428L193.808 52.4557L205.475 138.763L209.077 161.293L209.471 163.004L211.267 175.357L211.668 176.992L211.625 181.064L219.989 211.736L215.409 220.86L207.513 231.066L209.511 245.81L180.238 267.706L176.862 276.499L174.993 289.015L138.43 298.455L121.61 306.363L96.2279 309.572L74.1657 296.227L55.5166 276.943L53.8598 266.052L51.8848 256.34L47.8753 243.048L45.7613 236.188L36.8608 225.002L36.894 224.136L39.8928 217.064C39.9823 216.852 40.3998 215.864 40.4594 215.725L40.7477 215.048L40.8339 214.584L40.814 201.7L40.0519 197.519L40.6914 192.506L39.7503 182.115L38.8126 168.027L38.8689 152.211L39.757 135.581L43.5776 86.941V86.9543ZM42.0798 84.8655L38.0471 136.23L37.1558 153.01L37.1193 167.917L38.0869 182.264L39.018 192.565L38.2857 198.298L39.1241 202.86L39.2036 214.458L39.0677 214.78C39.0246 214.879 38.6966 215.655 38.6336 215.811L35.1245 224.09L35.0649 225.413L43.6472 236.202L45.6519 242.664L46.4074 243.92L50.2976 256.821L52.2162 266.254L53.9625 277.726L73.6521 298.087L95.8104 311.306L122.913 307.878L139.832 299.764L176.61 290.163L178.572 276.937L181.819 268.492L211.519 246.258L209.504 231.218L216.735 221.875L221.745 211.872L213.269 180.785L213.308 176.73L213.037 175.636L211.29 163.521L210.667 160.822L207.208 139.221L195.11 49.727L131.667 88.3932L117.054 78.9903L109.916 81.4803L93.8454 94.1093L79.0533 94.2187L42.0831 84.8655H42.0798Z" fill="var(--fill-0, #F8EFFF)" style="mix-blend-mode:difference"/>
<path d="M38.13 79.3583L75.859 88.9039L92.1223 89.9052L108.69 76.8849L116.381 73.3637L131.723 83.2375L198.536 42.5156L211.025 134.904L214.733 159.048L215.154 160.878L217.358 174.084L217.782 175.838L217.643 180.265L226.715 213.536L221.135 223.311L212.569 234.378L215.717 250.532L183.419 273.681L179.957 283.319L177.415 296.91L138.235 305.719L119.251 312.742L92.3509 316.143L69.6028 300.199L49.8403 279.762L48.1206 268.456L46.1821 258.346L42.0235 244.554L39.0975 237.518L29.8591 225.903L29.9784 224.995L33.0899 217.651C33.1595 217.482 33.63 216.371 33.6798 216.262L33.978 215.562L34.094 215.081L34.4717 201.683L34.0045 197.234L34.6705 192.028L33.3981 181.253L32.5829 166.153L32.964 149.208L34.0277 131.41L38.1167 79.3517L38.13 79.3583ZM36.6322 77.2695L32.3212 132.162L31.2542 150.089L30.9062 166.041L31.7446 181.392L33.0005 192.071L32.2416 198.023L32.7586 202.873L32.4736 214.876L32.3311 215.207C32.298 215.287 31.9302 216.152 31.8804 216.278L28.2355 224.879L28.0466 226.271L36.9602 237.478L39.7271 244.109L40.5522 245.396L44.5915 258.791L46.4737 268.611L48.2896 280.528L69.1124 302.059L91.9003 317.868L120.56 314.244L139.636 307.052L178.969 298.117L181.64 283.76L184.967 274.506L217.725 251.012L214.538 234.547L222.378 224.415L228.485 213.699L219.296 179.996L219.432 175.59L219.147 174.419L217.003 161.485L216.337 158.601L212.778 135.474L199.842 39.777L131.75 81.278L116.269 71.3147L108.743 74.7364L91.7114 88.1214L75.8126 87.1797L36.6355 77.2695H36.6322Z" fill="var(--fill-0, #F8EFFF)" style="mix-blend-mode:difference"/>
<path d="M32.6823 71.7623L72.5718 81.8516L89.9817 83.9205L107.498 70.1576L115.593 65.6882L131.813 76.1256L203.275 32.5722L216.589 131.042L220.406 156.797L220.857 158.75L223.465 172.811L223.912 174.681L223.68 179.462L233.459 215.33L226.881 225.758L217.646 237.69L221.94 255.25L186.614 279.656L183.068 290.143L179.857 304.811L138.059 312.987L116.915 319.127L88.4972 322.722L65.0665 304.174L44.1873 282.583L42.4045 270.863L40.5058 260.356L36.1948 246.062L32.4603 238.851L22.8839 226.812L23.0894 225.857L26.3169 218.241C26.3699 218.115 26.8934 216.885 26.9266 216.802L27.2347 216.076L27.3805 215.579L28.1592 201.667L27.9836 196.949L28.6729 191.554L27.0724 180.397L26.3831 164.287L27.0923 146.21L28.3316 127.248L32.689 71.7756L32.6823 71.7623ZM31.1846 69.6735L26.5952 128.097L25.3526 147.175L24.6965 164.174L25.4023 180.533L26.9862 191.591L26.1976 197.758L26.3931 202.9L25.7469 215.307L25.6011 215.652C25.5746 215.711 25.1703 216.666 25.1306 216.762L21.3497 225.685L21.0316 227.147L30.2767 238.771L33.8057 245.571L34.7037 246.884L38.8921 260.777L40.7345 270.985L42.6166 283.346L64.5694 306.048L87.9869 324.446L118.204 320.623L139.438 314.353L181.322 306.084L184.702 290.6L188.108 280.534L223.925 255.777L219.568 237.886L228.018 226.968L235.221 215.542L225.32 179.223L225.552 174.466L225.254 173.219L222.709 159.463L222 156.389L218.345 131.741L204.57 29.8369L131.83 74.1694L115.477 63.6458L107.56 67.9958L89.5675 82.1334L72.5619 80.1441L31.178 69.6735H31.1846Z" fill="var(--fill-0, #F8EFFF)" style="mix-blend-mode:difference"/>
<path d="M27.2347 64.1663L69.2814 74.8027L87.8377 77.9392L106.301 63.4303L114.804 58.0126L131.899 69.0137L208.01 22.6255L222.146 127.172L226.069 154.539L226.546 156.611L229.562 171.525L230.029 173.511L229.701 178.643L240.189 217.107L232.61 228.185L222.709 240.979L228.15 259.944L189.798 285.604L186.166 296.94L182.286 312.682L137.874 320.225L114.565 325.483L84.6302 329.27L60.5135 308.12L38.521 285.375L36.672 273.24L34.813 262.338L30.3496 247.544L25.8066 240.154L15.8889 227.687L16.1805 226.689L19.5239 218.805C19.5604 218.719 20.1336 217.369 20.1568 217.313L20.4749 216.56L20.6506 216.046L21.8269 201.62L21.9462 196.634L22.6586 191.047L20.7301 179.505L20.1668 162.387L21.2006 143.183L22.6155 123.058L27.2414 64.1696L27.2347 64.1663ZM25.737 62.0775L20.8726 124.032L19.4543 144.261L18.4901 162.304L19.0666 179.671L20.9753 191.106L20.1601 197.492L20.0342 202.923L19.0236 215.735L18.8711 216.089C18.8546 216.129 18.4105 217.177 18.384 217.237L14.4673 226.477L14.02 228.009L23.5997 240.051L27.8908 247.02L28.8584 248.36L33.1993 262.749L35.0052 273.346L36.9536 286.147L60.0397 310.02L84.0867 331.01L115.864 326.992L139.255 321.644L183.694 314.045L187.784 297.43L191.269 286.552L230.145 260.535L224.615 241.215L233.674 229.507L241.971 217.372L231.354 178.438L231.679 173.328L231.368 172.005L228.425 157.43L227.673 154.168L223.919 127.994L209.302 19.8868L131.912 67.0542L114.688 55.9702L106.381 61.2486L87.4269 76.1422L69.3179 73.1018L25.727 62.0742L25.737 62.0775Z" fill="var(--fill-0, #F8EFFF)" style="mix-blend-mode:difference"/>
<path d="M21.7904 56.5704L65.9943 67.7538L85.6938 71.9579L105.105 56.7063L114.012 50.3371L131.985 61.9018L212.745 12.6821L227.703 123.31L231.732 152.291L232.236 154.483L235.659 170.248L236.149 172.35L235.725 177.838L246.919 218.898L238.34 230.625L227.769 244.285L234.357 264.656L192.979 291.572L189.261 303.756L184.712 320.576L137.681 327.489L112.213 331.866L80.7598 335.845L55.9573 312.092L32.848 288.193L30.9361 275.644L29.1169 264.344L24.5043 249.046L19.1528 241.48L8.8971 228.589L9.27154 227.548L12.7277 219.392C12.7442 219.349 13.3705 217.876 13.3804 217.85L13.7118 217.071L13.9139 216.54L15.4879 201.6L15.8988 196.345L16.6377 190.566L14.3778 178.643L13.9371 160.514L15.2957 140.179L16.8863 118.89L21.7805 56.5836L21.7904 56.5704ZM20.2927 54.4815L15.1499 119.967L13.5561 141.346L12.2836 160.437L12.731 178.809L14.9677 190.619L14.126 197.22L13.6787 202.943L12.3035 216.156L12.1478 216.524C12.1378 216.544 11.6574 217.681 11.6441 217.711L7.59153 227.273L7.01164 228.874L16.9227 241.331L21.976 248.473L23.0165 249.842L27.5065 264.729L29.2759 275.717L31.2939 288.962L55.51 314.005L80.1866 337.585L113.522 333.368L139.07 328.942L186.064 322.009L190.862 304.267L194.427 292.576L236.361 265.296L229.661 244.55L239.33 232.054L248.725 219.206L237.395 177.655L237.816 172.198L237.488 170.795L234.148 155.398L233.353 151.95L229.499 124.251L214.044 9.9401L132.005 59.939L113.909 48.2947L105.214 54.5047L85.3028 70.151L66.0871 66.0595L20.2927 54.4749V54.4815Z" fill="var(--fill-0, #F8EFFF)" style="mix-blend-mode:difference"/>
<path d="M240.566 269.364L196.164 297.533L187.141 328.461L76.8928 342.406L27.1817 290.998L23.4274 266.337L18.6624 250.538L1.90865 229.478L7.19058 217.018L10.6334 190.065L8.0455 177.758L7.7307 158.617L16.3428 48.9744L83.5532 65.9766L113.223 42.6615L132.071 54.7899L217.48 2.73535L237.395 150.036L242.27 171.186L241.749 177.029L253.652 220.685L232.832 247.587L240.566 269.364ZM255.468 221.046L243.426 176.879L243.943 171.07L239.026 149.738L218.783 0L132.095 52.8337L113.127 40.6291L83.1688 64.1696L14.8451 46.8856L6.07389 158.564L6.392 177.944L8.95343 190.132L5.57684 216.58L0 229.74L17.1679 251.321L21.807 266.705L25.6243 291.771L76.2798 344.153L188.426 329.969L197.579 298.597L242.571 270.057L234.698 247.886L255.468 221.046Z" fill="var(--fill-0, #F8EFFF)" style="mix-blend-mode:difference"/>
</g>
</svg>
