<svg preserveAspectRatio="none" width="100%" height="100%" overflow="visible" style="display: block;" viewBox="0 0 129 164" fill="none" xmlns="http://www.w3.org/2000/svg">
<path id="Intersect" d="M73.9121 1.12988L73.3076 4.94824L72.9189 7.39941L75.0225 6.08301L82.9346 1.12988H91.0176L90.249 2.98438L89.6006 4.54688H111.558L111.876 4.27344L115.425 1.2168L127.87 3.73633V30.1396L124.951 38.9355L124.79 39.4189L125.046 39.8594L127.87 44.7197V74.1006L124.97 81.5918L124.894 81.7891V99.1699L124.906 99.2559L127.87 118.386V154.277L119.316 162.87H72.0957L69.4463 158.308L69.1191 157.745H44.6758L45.6611 159.442L46.6602 161.162H31.8145L1.12988 158.141V94.873C2.49002 86.7649 4.02591 77.9204 5.08203 71.9463L5.13086 71.6699L5.04492 71.4033L1.12988 59.2695V14.8848L16.3125 1.12988H73.9121Z" fill="var(--fill-0, #1D1C26)" fill-opacity="0.85" stroke="var(--stroke-0, #9D0DE9)" stroke-width="2.25967"/>
</svg>
