<svg preserveAspectRatio="none" width="100%" height="100%" overflow="visible" style="display: block;" viewBox="0 0 129 164" fill="none" xmlns="http://www.w3.org/2000/svg">
<g id="Intersect">
<path d="M91.2923 3.41667H111.138L115.108 0L129 2.81274V30.3229L126.023 39.2917L129 44.4167V74.3125L126.023 82V99.0833L129 118.302V154.744L119.786 164H71.4462L68.4692 158.875H46.6385L48.6231 162.292H31.7538L0 159.165V94.7791C1.36464 86.6418 2.90862 77.7495 3.96923 71.75L0 59.448V14.384L15.8769 0H75.2351L74.4231 5.125L82.6096 0H92.7091L91.2923 3.41667Z" fill="var(--fill-0, #1D1C26)" fill-opacity="0.85"/>
<path d="M73.9121 1.12988L73.3076 4.94824L72.9189 7.39941L75.0225 6.08301L82.9346 1.12988H91.0176L90.249 2.98438L89.6006 4.54688H111.558L111.876 4.27344L115.425 1.2168L127.87 3.73633V30.1396L124.951 38.9355L124.79 39.4189L125.046 39.8594L127.87 44.7197V74.1006L124.97 81.5918L124.894 81.7891V99.1699L124.906 99.2559L127.87 118.386V154.277L119.316 162.87H72.0957L69.4463 158.308L69.1191 157.745H44.6758L45.6611 159.442L46.6602 161.162H31.8145L1.12988 158.141V94.873C2.49002 86.7649 4.02591 77.9204 5.08203 71.9463L5.13086 71.6699L5.04492 71.4033L1.12988 59.2695V14.8848L16.3125 1.12988H73.9121Z" stroke="var(--stroke-0, #F8EFFF)" stroke-opacity="0.1" stroke-width="2.25967"/>
</g>
</svg>
