<svg preserveAspectRatio="none" width="100%" height="100%" overflow="visible" style="display: block;" viewBox="0 0 75.0455 46.0001" fill="none" xmlns="http://www.w3.org/2000/svg">
<g id="Frame 286">
<path id="No Friends Text 2" d="M61.6816 16.515V29.3985H42.799V46H29.6486V29.3985H10.6816V16.515H29.6486V0H42.799V16.515H61.6816Z" fill="var(--fill-0, #C8FE4E)"/>
<g id="Union">
<path d="M16.3281 36.6466C16.5233 36.4514 16.8398 36.4514 17.0351 36.6466L20.2167 39.8283C20.4119 40.0235 20.412 40.3401 20.2167 40.5353C20.0215 40.7305 19.705 40.7304 19.5097 40.5353L17.1816 38.2072V46.0001H16.1816V38.2072L13.8535 40.5353C13.6582 40.7305 13.3417 40.7304 13.1464 40.5353C12.9512 40.34 12.9512 40.0235 13.1464 39.8283L16.3281 36.6466Z" fill="var(--fill-0, white)" fill-opacity="0.55"/>
<path d="M56.3281 36.6466C56.5233 36.4514 56.8398 36.4514 57.0351 36.6466L60.2167 39.8283C60.4119 40.0235 60.412 40.3401 60.2167 40.5353C60.0215 40.7305 59.705 40.7304 59.5097 40.5353L57.1816 38.2072V46.0001H56.1816V38.2072L53.8535 40.5353C53.6582 40.7305 53.3417 40.7304 53.1464 40.5353C52.9512 40.34 52.9512 40.0235 53.1464 39.8283L56.3281 36.6466Z" fill="var(--fill-0, white)" fill-opacity="0.55"/>
<path d="M66.9746 13.2931C67.3651 12.9026 67.9981 12.9026 68.3886 13.2931L74.7529 19.6574C75.1429 20.0479 75.1432 20.6811 74.7529 21.0714C74.3625 21.4618 73.7294 21.4615 73.3388 21.0714L68.6816 16.4142V31.0001H66.6816V16.4142L62.0244 21.0714C61.6339 21.4616 61.0007 21.4617 60.6103 21.0714C60.2199 20.681 60.2201 20.0479 60.6103 19.6574L66.9746 13.2931Z" fill="var(--fill-0, white)" fill-opacity="0.55"/>
<path d="M3.32807 17.6466C3.52334 17.4514 3.83984 17.4514 4.03511 17.6466L7.21675 20.8283C7.41191 21.0235 7.41197 21.3401 7.21675 21.5353C7.02152 21.7305 6.70498 21.7304 6.50971 21.5353L4.18159 19.2072V27.0001H3.18159V19.2072L0.853464 21.5353C0.658234 21.7305 0.341695 21.7304 0.146433 21.5353C-0.04882 21.34 -0.048802 21.0235 0.146433 20.8283L3.32807 17.6466Z" fill="var(--fill-0, white)" fill-opacity="0.55"/>
<path d="M15.9746 0.293105C16.3651 -0.097354 16.9981 -0.0973981 17.3886 0.293105L23.7529 6.65736C24.1429 7.0479 24.1432 7.68106 23.7529 8.07143C23.3625 8.46179 22.7294 8.46146 22.3388 8.07143L17.6816 3.4142V14.0001H15.6816V3.4142L11.0244 8.07143C10.6339 8.46159 10.0007 8.46166 9.6103 8.07143C9.21987 7.681 9.22007 7.04791 9.6103 6.65736L15.9746 0.293105Z" fill="var(--fill-0, white)" fill-opacity="0.55"/>
<path d="M56.3281 0.64662C56.5233 0.451358 56.8398 0.451358 57.0351 0.64662L60.2167 3.82826C60.4119 4.02353 60.412 4.34006 60.2167 4.53529C60.0215 4.73049 59.705 4.73044 59.5097 4.53529L57.1816 2.20717V10.0001H56.1816V2.20717L53.8535 4.53529C53.6582 4.73049 53.3417 4.73044 53.1464 4.53529C52.9512 4.34004 52.9512 4.02353 53.1464 3.82826L56.3281 0.64662Z" fill="var(--fill-0, white)" fill-opacity="0.55"/>
</g>
</g>
</svg>
