<svg preserveAspectRatio="none" width="100%" height="100%" overflow="visible" style="display: block;" viewBox="0 0 75 50.0002" fill="none" xmlns="http://www.w3.org/2000/svg">
<g id="Frame 287">
<g id="Vector">
<path d="M28.3724 45.9102L28.6987 46.1579L25.6747 49.6524L25.4575 49.9047L25.1527 49.7515L22.8376 48.5968L20.0496 50L15.8842 46.664L16.1559 46.3644L16.4285 46.0649L20.1578 49.0526L22.8358 47.7043L23.0333 47.8027L25.2412 48.9048L28.047 45.6617L28.3724 45.9102Z" fill="var(--fill-0, #F8EFFF)" fill-opacity="0.55"/>
<path d="M50.7129 48.9048L52.9208 47.8027L53.1192 47.7043L55.7972 49.0526L59.5265 46.0649L59.7982 46.3644L60.0708 46.664L56.1235 49.8255L55.9045 50L53.1174 48.5968L50.8014 49.7515L50.4975 49.9047L47.2563 46.1579L47.5826 45.9102L47.9079 45.6617L50.7129 48.9048Z" fill="var(--fill-0, #F8EFFF)" fill-opacity="0.55"/>
<path d="M27.0683 44.2357L24.6763 47.154L22.7375 46.1289L20.973 47.055L20.7111 47.1929L17.612 44.5771L18.1734 43.9926L20.8255 46.2311L22.7401 45.225L22.9457 45.3332L24.4555 46.1327L26.4032 43.7563L27.0683 44.2357Z" fill="var(--fill-0, #F8EFFF)" fill-opacity="0.55"/>
<path d="M51.4995 46.1327L53.214 45.225L55.1295 46.2311L57.7807 43.9926L58.343 44.5771L55.243 47.1929L54.982 47.055L53.2166 46.1289L51.2778 47.154L48.8858 44.2357L49.5509 43.7563L51.4995 46.1327Z" fill="var(--fill-0, #F8EFFF)" fill-opacity="0.55"/>
<path d="M55.1769 39.8951L56.6187 39.995L56.5195 41.0399L57.3901 41.7823L57.1497 41.9865L56.4095 42.2022L56.2504 43.8843L51.6881 43.5703L51.8481 41.8806L51.1089 41.6184L51.9402 40.9096L52.0573 39.6802L53.2837 39.7648L54.1543 39.0232L55.1769 39.8951Z" fill="#C8FE4E"/>
<path d="M23.0003 39.7755L24.2445 39.7031L24.342 40.9195L24.948 41.4362L24.3965 41.6047L24.5565 43.5962L19.9906 43.8622L19.8842 42.5452L19.6912 42.4728L18.8813 41.7823L19.7636 41.03L19.6786 39.9691L21.1053 39.8852L22.118 39.0232L23.0003 39.7755Z" fill="#C8FE4E"/>
<path d="M20.8755 33.6019L20.9158 33.9471L16.1765 34.3541L15.3845 36.7794L12.8691 37.4851L13.409 41.1436L13.0041 41.1862L12.6001 41.2304L12.02 37.2885L11.9771 37.0042L12.2962 36.915L14.7159 36.2352L15.54 33.7109L15.8171 33.6865L20.8335 33.2551L20.8755 33.6019Z" fill="var(--fill-0, #F8EFFF)" fill-opacity="0.55"/>
<path d="M60.137 33.6865L60.4141 33.7109L61.2391 36.2352L63.6579 36.915L63.9771 37.0042L63.354 41.2304L62.95 41.1862L62.546 41.1436L63.085 37.4851L60.5705 36.7794L59.7785 34.3541L55.0384 33.9471L55.1206 33.2551L60.137 33.6865Z" fill="var(--fill-0, #F8EFFF)" fill-opacity="0.55"/>
<path d="M13.409 8.85644L12.8691 12.5149L15.178 13.1619L15.3845 13.2206L16.1765 15.6459L20.9158 16.0529L20.8755 16.3981L20.8335 16.7442L15.8171 16.3135L15.54 16.2891L14.7159 13.7648L12.2962 13.085L11.9771 12.9958L12.02 12.7115L12.6001 8.76955L13.409 8.85644Z" fill="var(--fill-0, #F8EFFF)" fill-opacity="0.55"/>
<path d="M63.9771 12.9958L63.6579 13.085L61.2391 13.7648L60.4141 16.2891L60.137 16.3135L55.1206 16.7442L55.0384 16.0529L59.7785 15.6459L60.5705 13.2206L60.777 13.1619L63.085 12.5149L62.546 8.85644L63.354 8.76955L63.9771 12.9958Z" fill="var(--fill-0, #F8EFFF)" fill-opacity="0.55"/>
<path d="M24.4224 8.30691L25.0812 8.45401L24.4894 8.95857L24.5958 9.99741L23.146 10.1049L22.118 10.9821L21.2536 10.2451L20.0362 10.3358L19.9093 9.09881L18.9215 8.25661L19.8038 8.05921L19.6393 6.44797L24.1989 6.10957L24.4224 8.30691Z" fill="#C8FE4E"/>
<path d="M56.7188 6.5402L56.4864 8.05539L57.3481 8.25737L56.3211 9.13234L56.1262 10.4097L54.9749 10.2817L54.1543 10.9821L53.0861 10.0713L51.5889 9.90518L51.7391 8.92275L51.2492 8.50508L51.8231 8.37017L52.1806 6.03564L56.7188 6.5402Z" fill="#C8FE4E"/>
<path d="M20.973 2.94503L22.7375 3.87107L24.6763 2.84519L27.0683 5.76354L26.4032 6.24371L24.4555 3.8665L22.9457 4.66678L22.7401 4.77501L20.8255 3.76894L18.1734 6.00744L17.612 5.42209L20.7111 2.80632L20.973 2.94503Z" fill="var(--fill-0, #F8EFFF)" fill-opacity="0.55"/>
<path d="M58.343 5.42209L57.7807 6.00744L55.1295 3.76894L53.214 4.77501L53.0093 4.66678L51.4995 3.8665L49.5509 6.24371L48.8858 5.76354L51.2778 2.84519L53.2166 3.87107L54.982 2.94503L55.243 2.80632L58.343 5.42209Z" fill="var(--fill-0, #F8EFFF)" fill-opacity="0.55"/>
<path d="M22.8376 1.40316L25.4575 0.0952715L25.6747 0.34755L28.6987 3.84135L28.3724 4.08981L28.047 4.33828L25.2412 1.09448L23.0333 2.19734L22.8358 2.29566L20.1578 0.94738L16.4285 3.93509L16.1559 3.63556L15.8842 3.33603L19.8315 0.173775L20.0496 0L22.8376 1.40316Z" fill="var(--fill-0, #F8EFFF)" fill-opacity="0.55"/>
<path d="M56.1235 0.173775L60.0708 3.33603L59.7982 3.63556L59.5265 3.93509L55.7972 0.94738L53.1192 2.29566L52.9208 2.19734L50.7129 1.09448L47.9079 4.33828L47.5826 4.08981L47.2563 3.84135L50.4975 0.0952715L50.8014 0.247706L53.1174 1.40316L55.9045 0L56.1235 0.173775Z" fill="var(--fill-0, #F8EFFF)" fill-opacity="0.55"/>
<path d="M15.9378 8.6758L15.4703 11.2923L17.0828 11.707L17.3018 11.7641L17.8364 13.524L21.293 13.7435L21.2322 14.4363L17.1937 14.1794L17.1213 13.9386L16.6279 12.3175L14.5577 11.7839L15.1324 8.57062L15.9378 8.6758Z" fill="var(--fill-0, #F8EFFF)" fill-opacity="0.55"/>
<path d="M61.3964 11.7839L59.3262 12.3175L58.8328 13.9386L58.7604 14.1794L54.7219 14.4363L54.662 13.7435L58.1177 13.524L58.6532 11.7641L58.8713 11.707L60.4847 11.2923L60.0163 8.6758L60.8226 8.57062L61.3964 11.7839Z" fill="var(--fill-0, #F8EFFF)" fill-opacity="0.55"/>
<path d="M16.1353 41.1352L16.7709 41.3737L22.118 36.8159L26.5212 40.5704L34.4815 32.9161C36.2886 31.1785 39.3902 31.1785 41.1974 32.9161L49.4365 40.8379L54.1543 36.8159L59.4362 41.3196L59.9326 41.175V41.0011L55.0607 36.2817L55.7483 36.3254L54.7122 35.6758L54.6906 35.9227L47.3653 30.312L45.3446 27.6489C44.0659 25.9637 44.403 23.7011 46.1317 22.366L51.1089 18.5224L59.7544 8.82138L59.379 8.73296L54.1543 13.1894L49.4946 9.21618L46.3132 14.6044L41.1401 18.112C39.5038 19.2216 37.2289 19.2226 35.5914 18.1145L30.284 14.5232L26.9664 9.05384L22.118 13.1894L16.871 8.71543L16.399 8.82138L26.3746 19.3288L30.1756 22.4425C31.8268 23.7951 32.1148 26.0102 30.8539 27.6587L28.6988 30.4762L21.284 36.159L21.2766 36.0738L21.1427 36.2655L21.1759 36.2634L16.1353 41.1352Z" fill="#C8FE4E"/>
<path fill-rule="evenodd" clip-rule="evenodd" d="M21.2766 36.0738L21.2322 35.5637L17.1937 35.8205L17.1213 36.0614L16.6279 37.6825L14.5577 38.2161L15.1324 41.4294L15.9378 41.3242L15.4703 38.7077L17.3018 38.2359L17.8364 36.476L21.1427 36.2655L21.2766 36.0738Z" fill="var(--fill-0, #F8EFFF)" fill-opacity="0.55"/>
<path fill-rule="evenodd" clip-rule="evenodd" d="M60.053 41.1176L60.4847 38.7077L58.8713 38.2923L58.6532 38.2359L58.1177 36.476L55.7483 36.3254L54.7122 35.6758L54.7219 35.5637L58.7604 35.8205L58.8328 36.0614L59.3262 37.6825L61.3964 38.2161L60.8226 41.4294L60.0163 41.3242L60.0485 41.1413L59.9326 41.175V41.0011L60.053 41.1176Z" fill="var(--fill-0, #F8EFFF)" fill-opacity="0.55"/>
</g>
</g>
</svg>
