<svg preserveAspectRatio="none" width="100%" height="100%" overflow="visible" style="display: block;" viewBox="0 0 8 24" fill="none" xmlns="http://www.w3.org/2000/svg">
<path id="Union" opacity="0.25" fill-rule="evenodd" clip-rule="evenodd" d="M7.01856 0.539477L6.23327 1.15674C6.25847 1.26441 6.32365 1.53418 6.36178 1.69154L7.54581 1.33937L8 4.03726L7.02012 5.12389L6.47216 6.56944L5.76047 10.379L5.15206 13.1316C5.10082 14.3746 4.82219 15.6277 4.3908 16.4838L3.38233 18.6434L2.68006 21.6587L2.68655 21.6578L2.71395 23.1353L1.52539 24L0 20.7003L0.939018 18.2944L0.598886 16.4888L1.4214 14.9334C1.79435 14.4764 2.2858 13.5136 2.15273 13.4163L1.80477 11.0688L2.7465 9.02256L3.35535 8.26763C3.3626 7.38528 3.42317 6.18286 3.51152 5.25824L4.64908 3.80603L5.09237 1.98341C5.20789 1.37846 5.63713 0.485914 5.99162 0L7.01856 0.539477ZM4.59645 10.0562L5.20248 9.67701L4.38534 8.90601L4.59645 10.0562Z" fill="var(--fill-0, #F8EFFF)"/>
</svg>
