<svg preserveAspectRatio="none" width="100%" height="100%" overflow="visible" style="display: block;" viewBox="0 0 18 18" fill="none" xmlns="http://www.w3.org/2000/svg">
<path id="Icon" d="M9 18C7.755 18 6.585 17.7637 5.49 17.2912C4.395 16.8187 3.4425 16.1775 2.6325 15.3675C1.8225 14.5575 1.18125 13.605 0.70875 12.51C0.23625 11.415 0 10.245 0 9C0 7.755 0.23625 6.585 0.70875 5.49C1.18125 4.395 1.8225 3.4425 2.6325 2.6325C3.4425 1.8225 4.395 1.18125 5.49 0.70875C6.585 0.23625 7.755 0 9 0C10.245 0 11.415 0.23625 12.51 0.70875C13.605 1.18125 14.5575 1.8225 15.3675 2.6325C16.1775 3.4425 16.8187 4.395 17.2912 5.49C17.7637 6.585 18 7.755 18 9C18 10.245 17.7637 11.415 17.2912 12.51C16.8187 13.605 16.1775 14.5575 15.3675 15.3675C14.5575 16.1775 13.605 16.8187 12.51 17.2912C11.415 17.7637 10.245 18 9 18ZM8.1 16.155V14.4C7.605 14.4 7.18125 14.2237 6.82875 13.8712C6.47625 13.5187 6.3 13.095 6.3 12.6V11.7L1.98 7.38C1.935 7.65 1.89375 7.92 1.85625 8.19C1.81875 8.46 1.8 8.73 1.8 9C1.8 10.815 2.39625 12.405 3.58875 13.77C4.78125 15.135 6.285 15.93 8.1 16.155ZM14.31 13.86C14.925 13.185 15.3937 12.4312 15.7162 11.5987C16.0387 10.7662 16.2 9.9 16.2 9C16.2 7.53 15.7913 6.1875 14.9738 4.9725C14.1563 3.7575 13.065 2.88 11.7 2.34V2.7C11.7 3.195 11.5238 3.61875 11.1713 3.97125C10.8188 4.32375 10.395 4.5 9.9 4.5H8.1V6.3C8.1 6.555 8.01375 6.76875 7.84125 6.94125C7.66875 7.11375 7.455 7.2 7.2 7.2H5.4V9H10.8C11.055 9 11.2687 9.08625 11.4412 9.25875C11.6137 9.43125 11.7 9.645 11.7 9.9V12.6H12.6C12.99 12.6 13.3425 12.7162 13.6575 12.9487C13.9725 13.1812 14.19 13.485 14.31 13.86Z" fill="var(--fill-0, #E8FFB5)"/>
</svg>
