<svg preserveAspectRatio="none" width="100%" height="100%" overflow="visible" style="display: block;" viewBox="0 0 9.00059 16.5012" fill="none" xmlns="http://www.w3.org/2000/svg">
<path id="Vector" d="M8.78063 8.78122L5.03063 12.5312L3.15563 14.4062L1.28063 16.2812C1.17573 16.3862 1.04204 16.4578 0.89648 16.4867C0.750917 16.5157 0.600025 16.5009 0.462907 16.4441C0.32579 16.3872 0.208613 16.291 0.12621 16.1676C0.0438069 16.0441 -0.000116571 15.899 2.3235e-07 15.7506V12.0006V10.1256V8.25059V6.37559V4.50059V0.750591C-0.000116571 0.602169 0.0438069 0.457049 0.12621 0.333604C0.208613 0.210159 0.32579 0.113938 0.462907 0.0571237C0.600025 0.000309371 0.750917 -0.0145441 0.89648 0.0144437C1.04204 0.0434315 1.17573 0.114957 1.28063 0.219966L3.15563 2.09497L5.03063 3.96997L6.90563 5.84497L8.78063 7.71997C8.85036 7.78962 8.90568 7.87234 8.94342 7.96339C8.98116 8.05443 9.00059 8.15203 9.00059 8.25059C9.00059 8.34915 8.98116 8.44675 8.94342 8.5378C8.90568 8.62885 8.85036 8.71156 8.78063 8.78122Z" fill="var(--fill-0, #F8EFFF)"/>
</svg>
