<svg preserveAspectRatio="none" width="100%" height="100%" overflow="visible" style="display: block;" viewBox="0 0 18 18" fill="none" xmlns="http://www.w3.org/2000/svg">
<g id="MagnifyingGlass">
<path id="Vector" d="M16.347 15.153L13.0078 11.8125C14.009 10.5078 14.4764 8.87118 14.3153 7.23455C14.1541 5.59792 13.3765 4.08387 12.14 2.99952C10.9036 1.91518 9.30105 1.34174 7.65739 1.39553C6.01372 1.44933 4.45206 2.12632 3.28919 3.28919C2.12632 4.45206 1.44933 6.01372 1.39553 7.65739C1.34174 9.30105 1.91518 10.9036 2.99952 12.14C4.08387 13.3765 5.59792 14.1541 7.23455 14.3153C8.87118 14.4764 10.5078 14.009 11.8125 13.0078L15.1545 16.3505C15.2329 16.429 15.3261 16.4912 15.4287 16.5337C15.5312 16.5762 15.6411 16.598 15.7521 16.598C15.8631 16.598 15.973 16.5762 16.0756 16.5337C16.1781 16.4912 16.2713 16.429 16.3498 16.3505C16.4283 16.272 16.4905 16.1788 16.533 16.0763C16.5755 15.9737 16.5973 15.8638 16.5973 15.7528C16.5973 15.6418 16.5755 15.5319 16.533 15.4294C16.4905 15.3268 16.4283 15.2336 16.3498 15.1552L16.347 15.153ZM3.09375 7.875C3.09375 6.92936 3.37417 6.00495 3.89954 5.21868C4.42491 4.43241 5.17164 3.81958 6.04529 3.4577C6.91895 3.09582 7.8803 3.00113 8.80778 3.18562C9.73525 3.37011 10.5872 3.82548 11.2559 4.49415C11.9245 5.16282 12.3799 6.01475 12.5644 6.94222C12.7489 7.8697 12.6542 8.83105 12.2923 9.70471C11.9304 10.5784 11.3176 11.3251 10.5313 11.8505C9.74505 12.3758 8.82064 12.6562 7.875 12.6562C6.60733 12.6549 5.39196 12.1508 4.49558 11.2544C3.59921 10.358 3.09505 9.14267 3.09375 7.875Z" fill="var(--fill-0, #F8EFFF)" fill-opacity="0.55"/>
</g>
</svg>
