<svg preserveAspectRatio="none" width="100%" height="100%" overflow="visible" style="display: block;" viewBox="0 0 14 18" fill="none" xmlns="http://www.w3.org/2000/svg">
<path id="Icon" d="M1.75 18C1.26875 18 0.856771 17.8321 0.514062 17.4964C0.171354 17.1607 0 16.7571 0 16.2857V7.71429C0 7.24286 0.171354 6.83929 0.514062 6.50357C0.856771 6.16786 1.26875 6 1.75 6H2.625V4.28571C2.625 3.1 3.05156 2.08929 3.90469 1.25357C4.75781 0.417857 5.78958 0 7 0C8.21042 0 9.24219 0.417857 10.0953 1.25357C10.9484 2.08929 11.375 3.1 11.375 4.28571V6H12.25C12.7313 6 13.1432 6.16786 13.4859 6.50357C13.8286 6.83929 14 7.24286 14 7.71429V16.2857C14 16.7571 13.8286 17.1607 13.4859 17.4964C13.1432 17.8321 12.7313 18 12.25 18H1.75ZM1.75 16.2857H12.25V7.71429H1.75V16.2857ZM7 13.7143C7.48125 13.7143 7.89323 13.5464 8.23594 13.2107C8.57865 12.875 8.75 12.4714 8.75 12C8.75 11.5286 8.57865 11.125 8.23594 10.7893C7.89323 10.4536 7.48125 10.2857 7 10.2857C6.51875 10.2857 6.10677 10.4536 5.76406 10.7893C5.42135 11.125 5.25 11.5286 5.25 12C5.25 12.4714 5.42135 12.875 5.76406 13.2107C6.10677 13.5464 6.51875 13.7143 7 13.7143ZM4.375 6H9.625V4.28571C9.625 3.57143 9.36979 2.96429 8.85938 2.46429C8.34896 1.96429 7.72917 1.71429 7 1.71429C6.27083 1.71429 5.65104 1.96429 5.14062 2.46429C4.63021 2.96429 4.375 3.57143 4.375 4.28571V6Z" fill="var(--fill-0, #C8FE4E)"/>
</svg>
