<svg preserveAspectRatio="none" width="100%" height="100%" overflow="visible" style="display: block;" viewBox="0 0 32 14" fill="none" xmlns="http://www.w3.org/2000/svg">
<g id="Union" filter="url(#filter0_g_0_98)">
<path fill-rule="evenodd" clip-rule="evenodd" d="M30.3916 1.34769L29.7292 1.60997C29.7439 1.66693 29.7824 1.80979 29.8049 1.89314L30.7739 1.79439L31 3.20946L30.1573 3.699L29.643 4.40249L28.8757 6.30709L28.2457 7.67671C28.1407 8.31068 27.8525 8.93407 27.4621 9.34334L26.5413 10.3812L25.8224 11.8791H25.8277L25.7738 12.6387L24.7749 13L23.7194 11.2022L24.5971 10.0332L24.4167 9.08368L25.1572 8.34284C25.4802 8.13427 25.9243 7.67445 25.8224 7.61532L25.6636 6.38729L26.525 5.40299L27.0527 5.05791C27.1039 4.60588 27.2143 3.99338 27.3328 3.52528L28.3209 2.85915L28.7705 1.95505C28.8944 1.65278 29.2849 1.2247 29.5946 1L30.3916 1.34769ZM27.9575 6.06102L28.4637 5.90846L27.8471 5.45654L27.9575 6.06102Z" fill="var(--fill-0, #F8EFFF)"/>
<path d="M18.8219 2.91532L18.8434 3.94795L18.9428 4.83325L18.8595 5.5208L18.3184 6.40871L18.4099 7.45728L16.9937 8.52465L16.0699 9.84881L15.3566 10.9293L15.4023 11.8148C14.4707 12.4381 13.7168 12.39 12.9333 11.732L12.8174 11.0473L13.5284 8.74408C13.9295 8.53275 14.188 8.02439 13.9646 7.81307L13.8002 6.66027L15.187 5.45105L16.8319 3.94795L17.1469 2.93674L18.0275 2.42317L18.8219 2.91532Z" fill="var(--fill-0, #F8EFFF)"/>
<path d="M8.77333 2.82702L8.28873 3.00361L8.42598 3.4396L8.25086 4.32229L7.23328 4.85467L6.73764 5.90585L6.34743 6.87161L5.96775 7.89327L4.92571 8.96325L4.00489 9.26576L3.72486 10.1484L2.58317 11.3174L1.22087 11.0445L1.06731 9.77933L1 9.38592L1.05653 8.86164L1.73229 7.98705L1.93975 6.94371L3.32098 5.65455L4.30911 4.5924L5.46421 3.57074L6.22359 2.94458L6.50362 2.04334L7.27903 2.17709L8.72758 1.78917L8.77333 2.82702Z" fill="var(--fill-0, #F8EFFF)"/>
</g>
<defs>
<filter id="filter0_g_0_98" x="0" y="0" width="32" height="14" filterUnits="userSpaceOnUse" color-interpolation-filters="sRGB">
<feFlood flood-opacity="0" result="BackgroundImageFix"/>
<feBlend mode="normal" in="SourceGraphic" in2="BackgroundImageFix" result="shape"/>
<feTurbulence type="fractalNoise" baseFrequency="0.99900001287460327 0.99900001287460327" numOctaves="3" seed="6748" />
<feDisplacementMap in="shape" scale="2" xChannelSelector="R" yChannelSelector="G" result="displacedImage" width="100%" height="100%" />
<feMerge result="effect1_texture_0_98">
<feMergeNode in="displacedImage"/>
</feMerge>
</filter>
</defs>
</svg>
