<svg preserveAspectRatio="none" width="100%" height="100%" overflow="visible" style="display: block;" viewBox="0 0 12 18" fill="none" xmlns="http://www.w3.org/2000/svg">
<path id="Subtract" fill-rule="evenodd" clip-rule="evenodd" d="M12 7.875L11.9521 8L11.7861 8.4375V9H12V10L11.5713 11V11.25H12V18H0V9L0.857422 7.2002L0.642578 7.08789L0.428711 7.2002L0 6.75V1.7998H2.57129V0.900391H5.14258L6 1.5752H9L10.0674 0H12V7.875ZM1 13V16H3V13H1ZM5 16H7V13H5V16ZM9 16H11V13H9V16ZM1 11H3V8H1V11ZM5 11H7V8H5V11ZM9 11H11V8H9V11ZM1 6H3V3H1V6ZM5 6H7V3H5V6ZM9 6H11V3H9V6Z" fill="var(--fill-0, #F8EFFF)"/>
</svg>
