<svg preserveAspectRatio="none" width="100%" height="100%" overflow="visible" style="display: block;" viewBox="0 0 14 18" fill="none" xmlns="http://www.w3.org/2000/svg">
<path id="Union" fill-rule="evenodd" clip-rule="evenodd" d="M12.3443 2.32216L12.5513 2.92919L12 4.5H13L13.1722 4.75026L14 7.17835L13.4329 12.462L10.8233 16.4957L7 18L3.17672 16.4957L2.52432 15.4873L2.19813 14.983V13.5L1.65569 13.4626V12.6938L0.567148 12.462L0 7.17835L1.65569 2.32216L5.00765 0H8.99235L10.6683 1.16108L12.3443 2.32216ZM5.75003 11.2537L5.23209 13.2632L5.75003 15.2726L7 16.1053L8.24997 15.2726L8.76791 13.2632L8.24997 11.2537L7 10.4211L5.75003 11.2537ZM2.5 9L7 7.10526L11.5 8.5L12.3443 5.5L7 6.63158L1.65569 5.29823L2.5 9Z" fill="var(--fill-0, #F8EFFF)"/>
</svg>
