<svg preserveAspectRatio="none" width="100%" height="100%" overflow="visible" style="display: block;" viewBox="0 0 38 24" fill="none" xmlns="http://www.w3.org/2000/svg">
<g id="Frame 215" clip-path="url(#clip0_0_297)">
<g id="Vector" opacity="0.1">
<path d="M-26.7314 -75.2633L-26.892 -50.5613L-36.0421 -40.2987L-21.5641 -8.97706L-4.74242 -5.39502L3.05939 -8.76485L20.8089 -13.5987L24.2746 -18.9939L35.9942 -17.6616L39.3885 -22.508C39.6813 -22.9216 39.8436 -23.156 40.0338 -23.4273L40.3574 -23.8915L50.2946 -27.1545L53.8075 -26.377L63.1321 -34.0092L79.4939 -40.0115L87.7562 -44.9902L110.446 -61.7847L93.6021 -77.9289L96.0761 -100.92L80.9484 -108.046L80.4886 -148.18L34.6669 -127.474L21.2354 -122.839L15.441 -118.454L14.5042 -118.188L-7.58895 -111.533L-20.4551 -76.6514L-26.7314 -75.2633ZM-8.85809 -112.881L14.0545 -119.783L14.6898 -119.961L20.4466 -124.319L34.0556 -129.014L82.1175 -150.735L82.5947 -109.103L97.8504 -101.916L95.338 -78.561L113.011 -61.6222L88.6767 -43.6118L80.2132 -38.5111L63.9665 -32.5496L54.2357 -24.5852L50.3792 -25.4371L41.4006 -22.4921L41.2449 -22.2658C41.1058 -22.0693 40.9589 -21.8602 40.7449 -21.5584L36.784 -15.9044L25.1112 -17.2307L21.8594 -12.1687L3.60924 -7.19761L-4.57173 -3.66493L-22.7206 -7.53091L-38.0028 -40.589L-28.5445 -51.1968L-28.3818 -76.5957L-21.6971 -78.075L-8.85809 -112.881Z" fill="var(--fill-0, #F8EFFF)" style="mix-blend-mode:difference"/>
<path d="M119.775 -61.1929L101.323 -78.8761L100.932 -89.7073L102.412 -103.47L97.7793 -106.776L86.9318 -111.885L86.4108 -157.464L34.9976 -134.231L21.1054 -129.163L20.0283 -128.79L13.2954 -124.299L12.2479 -123.992L10.0667 -123.14L-7.49194 -117.851L-12.6927 -115.099L-15.2671 -108.116L-19.8289 -100.859L-25.5757 -80.5818L-27.8702 -75.6649L-34.7053 -73.138L-32.941 -46.5523L-40.198 -34.9253L-32.671 -18.6414L-22.5079 -3.01326L-4.11589 0.903894L4.0707 -2.6323L11.7744 -4.88952L22.64 -7.84977L26.6834 -12.6526L38.183 -11.3469L38.9357 -11.3564L42.4991 -16.4453C42.764 -16.822 43.004 -17.1636 43.1741 -17.4106L43.515 -17.8974L43.8671 -18.0472L53.6782 -21.8058L57.2624 -21.4207L60.4265 -24.0088L67.2378 -29.1003L75.7259 -32.5671L85.1768 -36.6203L94.3327 -42.3648L119.776 -61.1975L119.775 -61.1929ZM122.34 -61.0304L95.1591 -40.9119L85.8131 -35.0524L76.8095 -31.1968L68.06 -27.6291L61.2947 -22.5703L57.665 -19.6011L53.7315 -20.0258L44.6032 -16.5573L44.4408 -16.3229C44.3133 -16.1454 44.1116 -15.8552 43.9158 -15.5804L39.7543 -9.64069L38.6151 -9.62399L27.5639 -10.8817L23.7647 -6.37625L22.6019 -6.12206L12.1064 -3.2642L4.64305 -1.07912L-3.94978 2.63292L-23.6901 -1.57062L-33.9937 -17.5486L-42.1605 -35.2184L-34.6274 -47.1666L-36.3842 -74.3783L-29.1169 -77.0583L-26.9067 -81.7974L-21.0429 -102.456L-16.376 -109.908L-14.0097 -116.323L-8.28953 -119.345L9.58471 -124.73L11.7704 -125.581L12.4774 -125.788L19.1394 -130.243L20.8437 -130.832L34.2728 -135.727L88.0389 -160.026L88.5774 -112.95L99.6091 -107.752L104.189 -104.499L102.656 -90.246L103.023 -79.5479L122.338 -61.0332L122.34 -61.0304Z" fill="var(--fill-0, #F8EFFF)" style="mix-blend-mode:difference"/>
<path d="M129.102 -60.6039L109.044 -79.8307L107.14 -91.068L108.751 -106.027L104.707 -110.181L92.9155 -115.736L92.3305 -166.758L35.3286 -140.999L20.0111 -135.165L18.8171 -134.755L11.1455 -130.157L9.98911 -129.805L7.55634 -128.687L-12.5795 -122.623L-17.8007 -118.678L-20.7557 -110.671L-27.1173 -103.641L-32.3228 -80.1342L-35.2913 -74.6943L-42.6806 -71.0275L-38.9944 -42.5562L-44.3563 -29.5621L-36.1878 -11.8895L-23.4542 2.94035L-3.49359 7.18981L5.0778 3.48727L13.0967 0.989957L24.4704 -2.10825L29.0943 -6.32044L41.1347 -4.9504L41.8828 -5.05473L45.6142 -10.3815C45.8531 -10.7185 46.1662 -11.1683 46.3237 -11.3919L46.68 -11.9039L47.0304 -12.0878L57.0646 -16.4588L60.7219 -16.4633L64.0322 -19.1742L71.3425 -24.1868L80.623 -28.2937L90.8586 -33.2244L100.91 -39.7321L129.109 -60.6046L129.102 -60.6039ZM131.667 -60.4414L101.638 -38.2176L91.4095 -31.5992L81.6838 -26.9286L72.1482 -22.717L64.8913 -17.7377L61.0946 -14.629L57.087 -14.6282L47.809 -10.6362L47.6389 -10.3892C47.5247 -10.2279 47.2664 -9.85922 47.0917 -9.61322L42.7323 -3.38961L41.6026 -3.22643L30.0215 -4.54364L25.6721 -0.592956L24.4499 -0.38371L13.4537 2.61139L5.6779 5.03481L-3.32853 8.9234L-24.662 4.3795L-37.4978 -10.7577L-46.3244 -29.8517L-40.7165 -43.1403L-44.3929 -72.1649L-36.5457 -76.0438L-33.6889 -81.2809L-28.3756 -105.203L-21.8779 -112.416L-19.1686 -119.765L-13.4284 -124.093L7.03884 -130.259L9.46878 -131.375L10.2492 -131.609L17.8192 -136.163L19.7066 -136.816L34.4815 -142.435L93.9548 -169.314L94.5573 -116.794L106.526 -111.155L110.523 -107.077L108.857 -91.6105L110.7 -80.5341L131.661 -60.4453L131.667 -60.4414Z" fill="var(--fill-0, #F8EFFF)" style="mix-blend-mode:difference"/>
<path d="M138.431 -60.0122L116.765 -80.778L113.345 -92.4196L115.086 -108.578L111.634 -113.579L98.9017 -119.577L98.2555 -176.044L35.6622 -147.758L18.9204 -141.162L17.6083 -140.709L8.99713 -136.001L7.72717 -135.605L5.04456 -134.217L-17.6667 -127.375L-22.9112 -122.236L-26.2422 -113.204L-34.4036 -106.401L-39.0706 -79.6628L-42.7149 -73.7026L-50.663 -68.8969L-45.0536 -38.5446L-48.5224 -24.1863L-39.714 -5.12775L-24.4117 8.90098L-2.88076 13.4855L6.07542 9.61666L14.4106 6.87469L26.2896 3.64029L31.4911 0.0205008L44.0733 1.45035L44.8123 1.25011L48.7128 -4.31917C48.9268 -4.62103 49.3147 -5.17626 49.4521 -5.37551L49.8229 -5.90827L50.1715 -6.12624L60.4307 -11.1069L64.1593 -11.5039L67.6203 -14.3363L75.4307 -19.2747L85.499 -24.0227L96.5212 -29.8283L107.469 -37.1036L138.421 -60.0143L138.431 -60.0122ZM140.996 -59.8497L108.123 -35.5195L97.0151 -28.144L86.5644 -22.6567L76.2455 -17.8028L68.4959 -12.8985L64.5306 -9.65304L60.446 -9.22498L51.0165 -4.71229L50.8397 -4.45716C50.7371 -4.31484 50.424 -3.86502 50.2676 -3.64609L45.7076 2.86323L44.5873 3.1729L32.4763 1.79621L27.5795 5.19033L26.2962 5.35185L14.7991 8.48418L6.71555 11.147L-2.69989 15.2132L-25.6266 10.3289L-40.9918 -3.96925L-50.4782 -24.4875L-46.7955 -39.1164L-52.3942 -69.9521L-43.9644 -75.0317L-40.461 -80.767L-35.7009 -107.95L-27.3743 -114.927L-24.3191 -123.211L-18.556 -128.847L4.50702 -135.796L7.184 -137.181L8.03615 -137.444L16.5131 -142.092L18.5835 -142.808L34.6998 -149.153L99.8791 -178.607L100.543 -120.642L113.449 -114.561L116.866 -109.659L115.072 -92.9793L118.392 -81.5217L140.995 -59.857L140.996 -59.8497Z" fill="var(--fill-0, #F8EFFF)" style="mix-blend-mode:difference"/>
<path d="M147.759 -59.4204L124.484 -81.728L119.553 -93.7729L121.422 -111.128L118.559 -116.975L104.883 -123.419L104.173 -185.329L35.9883 -154.516L17.8212 -147.154L16.3938 -146.66L6.84412 -141.846L5.46524 -141.405L2.53275 -139.748L-22.7556 -132.13L-28.0205 -125.798L-31.7304 -115.74L-41.6917 -109.164L-45.8174 -79.1959L-50.1328 -72.7144L-58.6369 -66.7717L-51.1028 -34.5355L-52.6765 -18.8101L-43.2266 1.63716L-25.3538 14.8676L-2.25423 19.7845L7.08951 15.7475L15.741 12.7608L28.1235 9.38744L33.9027 6.36002L47.024 7.85145L47.7538 7.55531L51.8233 1.74355C52.0095 1.47858 52.4752 0.816167 52.5943 0.643973L52.9823 0.0887309L53.3291 -0.16331L63.8132 -5.75359L67.615 -6.54018L71.2268 -9.49423L79.5371 -14.3584L90.3961 -19.7493L102.205 -26.4296L114.046 -34.4709L147.755 -59.4214L147.759 -59.4204ZM150.325 -59.2579L114.605 -32.8197L102.615 -24.6852L91.4422 -18.3829L80.3372 -12.8851L72.0932 -8.05851L67.9564 -4.67458L63.7976 -3.82107L54.2212 1.21337L54.0367 1.48115C53.9474 1.60731 53.5778 2.1355 53.4396 2.32737L48.6789 9.12238L47.5682 9.57854L34.9273 8.14238L29.483 10.98L28.1375 11.0983L16.1397 14.3679L7.74654 17.2672L-2.0825 21.51L-26.6006 16.2881L-44.4952 2.82903L-54.6386 -19.1152L-52.8811 -35.0845L-60.3994 -67.7331L-51.388 -74.0087L-47.2426 -80.2431L-43.0329 -110.689L-32.8755 -117.428L-29.4756 -126.643L-23.6924 -133.585L1.96816 -141.313L4.89395 -142.963L5.82059 -143.257L15.2055 -148.004L17.458 -148.779L34.9201 -155.849L105.804 -187.88L106.531 -124.473L120.374 -117.95L123.207 -112.225L121.281 -94.3298L126.08 -82.4911L150.323 -59.2533L150.325 -59.2579Z" fill="var(--fill-0, #F8EFFF)" style="mix-blend-mode:difference"/>
<path d="M157.088 -58.8286L132.208 -82.677L125.764 -95.128L127.763 -113.683L125.488 -120.378L110.871 -127.264L110.099 -194.619L36.3228 -161.279L16.7333 -153.153L15.1889 -152.621L4.70062 -147.7L3.21102 -147.218L0.0315302 -145.292L-27.8323 -136.897L-33.1204 -129.37L-37.2081 -118.29L-48.9692 -111.941L-52.5536 -78.7434L-57.5448 -71.7417L-66.6076 -64.6601L-57.1515 -30.5384L-56.832 -13.4487L-46.7378 8.38559L-26.2962 20.8149L-1.62911 26.0686L8.09942 21.8653L17.0643 18.6358L29.9522 15.1262L36.309 12.6911L49.9721 14.2424L50.6957 13.8486L54.9331 7.7989C55.0934 7.57364 55.6321 6.80298 55.7368 6.65152L56.142 6.07378L56.4888 5.79048L67.1961 -0.412229L71.0721 -1.59303L74.8328 -4.67149L83.6421 -9.45685L95.2936 -15.4879L107.887 -23.0457L120.622 -31.8529L157.084 -58.8416L157.088 -58.8286ZM159.653 -58.6661L121.088 -30.1198L108.215 -21.2265L96.3171 -14.1074L84.426 -7.9656L75.6894 -3.21399L71.3857 0.309484L67.15 1.59022L57.4238 7.14817L57.2327 7.42403C57.155 7.53121 56.7305 8.14058 56.6134 8.30363L51.6521 15.3843L50.5525 15.9898L37.3817 14.4942L31.39 16.7752L29.9834 16.8458L17.4831 20.2498L8.78032 23.3857L-1.46053 27.8078L-27.5718 22.2456L-47.9958 9.62557L-58.8008 -13.7457L-58.9668 -31.0525L-68.4046 -65.514L-58.8105 -72.9903L-54.0185 -79.7228L-50.3621 -113.43L-38.3729 -119.934L-34.6272 -130.085L-28.822 -138.33L-0.565751 -146.842L2.60709 -148.759L3.6054 -149.083L13.8955 -153.926L16.331 -154.765L35.1391 -162.559L111.73 -197.17L112.519 -128.318L127.302 -121.355L129.554 -114.807L127.5 -95.6976L133.774 -83.4759L159.662 -58.664L159.653 -58.6661Z" fill="var(--fill-0, #F8EFFF)" style="mix-blend-mode:difference"/>
<path d="M166.415 -58.2396L139.926 -83.6299L131.969 -96.4869L134.095 -116.239L132.413 -123.781L116.851 -131.114L116.018 -203.908L36.6528 -168.043L15.6408 -159.152L13.9811 -158.58L2.55429 -153.553L0.955764 -153.026L-2.47359 -150.831L-32.9145 -141.661L-38.2232 -132.94L-42.6897 -120.834L-56.2507 -114.711L-59.2965 -78.2828L-64.9617 -70.7581L-74.5833 -62.5377L-63.2024 -26.5321L-60.9896 -8.07817L-50.2538 15.1449L-27.2418 26.7759L-1.00436 32.3647L9.10898 27.995L18.3901 24.5208L31.7861 20.8733L38.7234 19.0289L52.9273 20.6445L53.6435 20.1576L58.05 13.8655C58.1824 13.6771 58.7988 12.7993 58.8853 12.6749L59.3059 12.0718L59.6538 11.7527L70.5888 4.93862L74.5379 3.36819L78.4494 0.168095L87.7588 -4.54302L100.201 -11.2169L113.581 -19.6496L127.211 -29.2198L166.426 -58.2467L166.415 -58.2396ZM168.98 -58.0771L127.567 -27.4255L113.811 -17.7734L101.191 -9.83924L88.5142 -3.05351L79.286 1.61858L74.8136 5.2788L70.5009 6.98676L60.625 13.0682L60.4244 13.3539C60.3629 13.4432 59.8789 14.1327 59.7802 14.2687L54.621 21.6333L53.5309 22.3853L39.833 20.8284L33.2911 22.5546L31.8251 22.5803L18.824 26.1215L9.80888 29.4958L-0.843854 34.0972L-28.5466 28.1975L-51.5027 16.4182L-62.9648 -8.37901L-65.0559 -27.0262L-76.4133 -63.3005L-66.2393 -71.9758L-60.8007 -79.2064L-57.6948 -116.177L-43.8749 -122.442L-39.7861 -133.526L-33.9609 -143.078L-3.10882 -152.372L0.308248 -154.556L1.38003 -154.905L12.5781 -159.848L15.1967 -160.751L35.3461 -169.27L117.641 -206.459L118.492 -132.167L134.212 -124.762L135.885 -117.39L133.698 -97.0677L141.447 -84.4677L168.978 -58.0799L168.98 -58.0771Z" fill="var(--fill-0, #F8EFFF)" style="mix-blend-mode:difference"/>
<path d="M175.744 -57.6479L147.647 -84.5771L138.176 -97.8357L140.432 -118.787L139.34 -127.175L122.834 -134.948L121.939 -213.188L36.9825 -174.795L14.5452 -165.138L12.7702 -164.525L0.404804 -159.392L-1.30721 -158.822L-4.98643 -156.357L-38.0073 -146.41L-43.3364 -136.496L-48.179 -123.366L-63.5443 -117.471L-66.0489 -77.8125L-72.3853 -69.7664L-82.5611 -60.4061L-69.2581 -22.5149L-65.1476 -2.69567L-53.7702 21.9161L-28.1905 32.7505L-0.384499 38.6717L10.1136 34.1356L19.7128 30.4196L33.6124 26.6331L41.129 25.3838L55.8748 27.0593L56.5818 26.4765L61.1591 19.9447C61.2656 19.796 61.9579 18.8082 62.0243 18.7081L62.4593 18.0843L62.8055 17.7311L73.9654 10.3074L77.9858 8.34452L82.0464 5.02L91.8575 0.385924L105.092 -6.92808L119.258 -16.2355L133.785 -26.5734L175.756 -57.6401L175.744 -57.6479ZM178.309 -57.4854L134.052 -24.7274L119.417 -14.3181L106.077 -5.56619L92.6161 1.86175L82.8952 6.45889L78.2514 10.2576L73.8645 12.391L63.8389 18.996L63.6333 19.2926C63.5834 19.3629 63.0447 20.1335 62.9642 20.2425L57.6043 27.8928L56.5237 28.7913L42.2959 27.1749L35.2065 28.3446L33.6783 28.327L20.1794 32.0038L10.8546 35.6146L-0.211702 40.3926L-29.5077 34.1525L-54.9932 23.2123L-67.1151 -3.00916L-71.1314 -22.9967L-84.4083 -61.0839L-73.6516 -70.9599L-67.5693 -78.6868L-65.0166 -118.918L-49.3659 -124.945L-44.9314 -136.964L-39.0832 -147.824L-5.63536 -157.901L-1.97126 -160.353L-0.827798 -160.731L11.2755 -165.771L14.0744 -166.735L35.5696 -175.979L123.569 -215.747L124.481 -136.009L141.137 -128.165L142.225 -119.971L139.906 -98.433L149.134 -85.4518L178.307 -57.4882L178.309 -57.4854Z" fill="var(--fill-0, #F8EFFF)" style="mix-blend-mode:difference"/>
<path d="M185.073 -57.0561L155.37 -85.5289L144.385 -99.1936L146.768 -121.342L146.266 -130.575L128.816 -138.795L127.858 -222.477L37.3079 -181.56L13.4463 -171.142L11.5516 -170.489L-1.75347 -165.245L-3.57617 -164.633L-7.50701 -161.901L-43.1033 -151.176L-48.4574 -140.071L-53.6789 -125.914L-70.844 -120.246L-72.8083 -77.3532L-79.8205 -68.787L-90.555 -58.2878L-75.3273 -18.5128L-69.3235 2.67068L-57.3046 28.6712L-29.1561 38.7045L0.220241 44.9608L11.1031 40.2584L21.0186 36.2977L35.4234 32.375L43.5178 31.7181L58.8026 33.4551L59.5033 32.7747L64.2496 26.0004C64.3283 25.8886 65.0937 24.7926 65.1464 24.7205L65.5987 24.0743L65.9431 23.687L77.3262 15.6509L81.4197 13.2984L85.6282 9.85399L95.9365 5.29592L109.962 -2.66099L124.913 -12.8459L140.333 -23.9498L185.058 -57.0547L185.073 -57.0561ZM187.638 -56.8936L140.534 -22.0275L125.017 -10.8594L110.952 -1.29068L96.7067 6.78403L86.4915 11.3034L81.6807 15.2417L77.2168 17.8023L67.0397 24.928L66.8246 25.2344C66.7881 25.2885 66.1928 26.1376 66.1323 26.2222L60.5718 34.1583L59.5007 35.2032L44.743 33.5274L37.1062 34.1405L35.5168 34.0752L21.5171 37.8892L11.8845 41.7395L0.406378 46.6968L-30.481 40.1192L-58.4959 30.018L-71.2748 2.37053L-77.2163 -18.9574L-92.4111 -58.8547L-81.0745 -69.9295L-74.3456 -78.1546L-72.3433 -121.649L-54.8637 -127.44L-50.0861 -140.393L-44.2179 -152.558L-8.17421 -163.419L-4.26304 -166.138L-3.04792 -166.546L9.96514 -171.681L12.9471 -172.71L35.7836 -182.678L129.49 -225.026L130.466 -139.846L148.059 -131.56L148.568 -122.541L146.12 -99.7898L156.823 -86.4257L187.641 -56.888L187.638 -56.8936Z" fill="var(--fill-0, #F8EFFF)" style="mix-blend-mode:difference"/>
<path d="M194.401 -56.4643L163.091 -86.4761L150.593 -100.547L153.106 -123.894L153.192 -133.976L134.801 -142.638L133.781 -231.765L37.6425 -188.323L12.3584 -177.141L10.3484 -176.447L-3.89522 -171.097L-5.82687 -170.44L-10.0047 -167.44L-48.1782 -155.94L-53.5528 -143.642L-59.152 -128.463L-78.117 -123.022L-79.5399 -76.8997L-87.2261 -67.8104L-98.5166 -56.1742L-81.3658 -14.5182L-73.4671 8.03245L-60.8066 35.4217L-30.0877 44.6567L0.857301 51.2453L12.1267 46.3793L22.3557 42.1758L37.2658 38.1168L45.9407 38.0506L61.769 39.8503L62.4606 39.0739L67.3731 32.0589C67.4269 31.9823 68.2671 30.7808 68.3026 30.7312L68.7721 30.0625L69.1148 29.6411L80.7228 20.9954L84.8877 18.2505L89.2469 14.6845L100.055 10.2006L114.868 1.60256L130.603 -9.45539L146.917 -21.3251L194.395 -56.4682L194.401 -56.4643ZM196.966 -56.3018L147.015 -19.3305L130.615 -7.40344L115.828 2.98027L100.797 11.6989L90.0887 16.1434L85.1065 20.2201L80.5684 23.2062L70.2416 30.8554L70.0216 31.1727C69.9967 31.2079 69.3437 32.1398 69.3072 32.1939L63.5488 40.414L62.4872 41.6054L47.1978 39.8673L39.0135 39.9238L37.3648 39.8136L22.8626 43.762L12.9205 47.8488L1.03326 52.9838L-31.4473 46.0657L-61.9944 36.8054L-75.4349 7.73089L-83.3016 -14.9374L-100.419 -56.6458L-88.4995 -68.9213L-81.124 -77.6444L-79.6749 -124.4L-60.3618 -129.954L-55.2384 -143.842L-49.3483 -157.311L-10.7071 -168.951L-6.54714 -171.936L-5.26031 -172.373L8.65795 -177.605L11.823 -178.697L36.0054 -189.39L135.418 -234.313L136.455 -143.688L154.985 -134.96L154.914 -125.118L152.335 -101.151L164.514 -87.4088L196.975 -56.2951L196.966 -56.3018Z" fill="var(--fill-0, #F8EFFF)" style="mix-blend-mode:difference"/>
<path d="M203.728 -55.8753L170.81 -87.4261L156.801 -101.9L159.442 -126.445L160.12 -137.374L140.785 -146.482L139.701 -241.052L37.9714 -195.083L11.2621 -183.134L9.13681 -182.399L-6.0454 -176.943L-8.08774 -176.244L-12.5155 -172.975L-53.2643 -160.697L-58.6593 -147.206L-64.6374 -131.001L-85.4022 -125.786L-86.2867 -76.4329L-94.6469 -66.8204L-106.496 -54.0454L-87.4233 -10.5038L-77.6314 13.4111L-64.3293 42.1891L-31.0399 50.6258L1.47538 57.5494L13.1296 52.5172L23.6748 48.069L39.0913 43.8693L48.3438 44.3954L64.7112 46.2566L65.3954 45.3872L70.4787 38.1325C70.5065 38.0956 71.4227 36.7841 71.4399 36.7616L71.9248 36.0676L72.2675 35.6149L84.1004 26.3596L88.3384 23.225L92.8466 19.5346L104.154 15.1296L119.759 5.89142L136.281 -6.04129L153.488 -18.6769L203.722 -55.8599L203.728 -55.8753ZM206.293 -55.7128L153.495 -16.6334L136.213 -3.9475L120.701 7.25298L104.887 16.6138L93.6871 20.9788L88.5361 25.1922L83.9211 28.6056L73.4474 36.7765L73.2179 37.1037C73.2063 37.1226 72.4968 38.133 72.4785 38.16L66.5195 46.6657L65.4691 48.0064L49.6527 46.2071L40.9181 45.7089L39.2054 45.5526L24.2025 49.6383L13.9479 53.9635L1.64711 59.275L-32.4249 52.0194L-65.5013 43.598L-79.5988 13.0976L-89.3908 -10.9111L-108.427 -54.4323L-95.9283 -67.9068L-87.9062 -77.128L-87.0077 -127.147L-65.8655 -132.465L-60.3963 -147.288L-54.4832 -162.065L-13.2463 -174.488L-8.84208 -177.738L-7.47902 -178.204L7.34725 -183.535L10.6926 -184.689L36.2208 -196.106L141.338 -243.607L142.439 -147.539L161.906 -138.37L161.25 -127.705L158.541 -102.527L172.198 -88.4031L206.299 -55.7164L206.293 -55.7128Z" fill="var(--fill-0, #F8EFFF)" style="mix-blend-mode:difference"/>
<path d="M-92.6864 -128.555L-93.0296 -75.9723L-114.469 -51.9247L-67.8426 48.9467L2.10122 63.841L25.0017 53.9495L40.9235 49.6136L67.6629 52.6532L75.4272 41.5687L96.4544 24.3601L108.262 20.0294L124.658 10.1483L213.057 -55.2836L163.008 -103.256L167.046 -140.775L146.77 -150.325L145.625 -250.341L10.1714 -189.131L-10.3458 -182.051L-15.0234 -178.512L-58.3494 -165.459L-70.1218 -133.543L-92.6864 -128.555ZM-59.6186 -166.807L-15.7858 -180.013L-11.1346 -183.531L9.56001 -190.671L147.254 -252.895L148.416 -151.382L168.82 -141.771L164.744 -103.888L215.622 -55.1211L125.581 11.525L108.981 21.5298L97.2889 25.8198L76.6538 42.705L68.4527 54.4103L41.0524 51.2956L25.5487 55.5185L2.2719 65.571L-68.9991 50.3928L-116.43 -52.215L-94.6822 -76.6077L-94.3368 -129.888L-71.3639 -134.967L-59.6186 -166.807Z" fill="var(--fill-0, #F8EFFF)" style="mix-blend-mode:difference"/>
</g>
</g>
<defs>
<clipPath id="clip0_0_297">
<rect width="38" height="24" fill="white"/>
</clipPath>
</defs>
</svg>
