<svg preserveAspectRatio="none" width="100%" height="100%" overflow="visible" style="display: block;" viewBox="0 0 198 24" fill="none" xmlns="http://www.w3.org/2000/svg">
<g id="Frame 215" clip-path="url(#clip0_0_4)">
<g id="Vector" opacity="0.1">
<path d="M53.2686 -75.2633L53.108 -50.5613L43.9579 -40.2987L58.4359 -8.97706L75.2576 -5.39502L83.0594 -8.76485L100.809 -13.5987L104.275 -18.9939L115.994 -17.6616L119.389 -22.508C119.681 -22.9216 119.844 -23.156 120.034 -23.4273L120.357 -23.8915L130.295 -27.1545L133.807 -26.377L143.132 -34.0092L159.494 -40.0115L167.756 -44.9902L190.446 -61.7847L173.602 -77.9289L176.076 -100.92L160.948 -108.046L160.489 -148.18L114.667 -127.474L101.235 -122.839L95.441 -118.454L94.5042 -118.188L72.411 -111.533L59.5449 -76.6514L53.2686 -75.2633ZM71.1419 -112.881L94.0545 -119.783L94.6898 -119.961L100.447 -124.319L114.056 -129.014L162.117 -150.735L162.595 -109.103L177.85 -101.916L175.338 -78.561L193.011 -61.6222L168.677 -43.6118L160.213 -38.5111L143.967 -32.5496L134.236 -24.5852L130.379 -25.4371L121.401 -22.4921L121.245 -22.2658C121.106 -22.0693 120.959 -21.8602 120.745 -21.5584L116.784 -15.9044L105.111 -17.2307L101.859 -12.1687L83.6092 -7.19761L75.4283 -3.66493L57.2794 -7.53091L41.9972 -40.589L51.4555 -51.1968L51.6182 -76.5957L58.3029 -78.075L71.1419 -112.881Z" fill="var(--fill-0, #F8EFFF)" style="mix-blend-mode:difference"/>
<path d="M199.775 -61.1929L181.323 -78.8761L180.932 -89.7073L182.412 -103.47L177.779 -106.776L166.932 -111.885L166.411 -157.464L114.998 -134.231L101.105 -129.163L100.028 -128.79L93.2954 -124.299L92.2479 -123.992L90.0667 -123.14L72.5081 -117.851L67.3073 -115.099L64.7329 -108.116L60.1711 -100.859L54.4243 -80.5818L52.1298 -75.6649L45.2947 -73.138L47.059 -46.5523L39.802 -34.9253L47.329 -18.6414L57.4921 -3.01326L75.8841 0.903894L84.0707 -2.6323L91.7744 -4.88952L102.64 -7.84977L106.683 -12.6526L118.183 -11.3469L118.936 -11.3564L122.499 -16.4453C122.764 -16.822 123.004 -17.1636 123.174 -17.4106L123.515 -17.8974L123.867 -18.0472L133.678 -21.8058L137.262 -21.4207L140.426 -24.0088L147.238 -29.1003L155.726 -32.5671L165.177 -36.6203L174.333 -42.3648L199.776 -61.1975L199.775 -61.1929ZM202.34 -61.0304L175.159 -40.9119L165.813 -35.0524L156.81 -31.1968L148.06 -27.6291L141.295 -22.5703L137.665 -19.6011L133.732 -20.0258L124.603 -16.5573L124.441 -16.3229C124.313 -16.1454 124.112 -15.8552 123.916 -15.5804L119.754 -9.64069L118.615 -9.62399L107.564 -10.8817L103.765 -6.37625L102.602 -6.12206L92.1064 -3.2642L84.6431 -1.07912L76.0502 2.63292L56.3099 -1.57062L46.0063 -17.5486L37.8395 -35.2184L45.3726 -47.1666L43.6158 -74.3783L50.8831 -77.0583L53.0933 -81.7974L58.9571 -102.456L63.624 -109.908L65.9903 -116.323L71.7105 -119.345L89.5847 -124.73L91.7704 -125.581L92.4774 -125.788L99.1394 -130.243L100.844 -130.832L114.273 -135.727L168.039 -160.026L168.577 -112.95L179.609 -107.752L184.189 -104.499L182.656 -90.246L183.023 -79.5479L202.338 -61.0332L202.34 -61.0304Z" fill="var(--fill-0, #F8EFFF)" style="mix-blend-mode:difference"/>
<path d="M209.102 -60.6039L189.044 -79.8307L187.14 -91.068L188.751 -106.027L184.707 -110.181L172.915 -115.736L172.331 -166.758L115.329 -140.999L100.011 -135.165L98.8171 -134.755L91.1455 -130.157L89.9891 -129.805L87.5563 -128.687L67.4205 -122.623L62.1993 -118.678L59.2443 -110.671L52.8827 -103.641L47.6772 -80.1342L44.7087 -74.6943L37.3194 -71.0275L41.0056 -42.5562L35.6437 -29.5621L43.8122 -11.8895L56.5458 2.94035L76.5064 7.18981L85.0778 3.48727L93.0967 0.989957L104.47 -2.10825L109.094 -6.32044L121.135 -4.9504L121.883 -5.05473L125.614 -10.3815C125.853 -10.7185 126.166 -11.1683 126.324 -11.3919L126.68 -11.9039L127.03 -12.0878L137.065 -16.4588L140.722 -16.4633L144.032 -19.1742L151.342 -24.1868L160.623 -28.2937L170.859 -33.2244L180.91 -39.7321L209.109 -60.6046L209.102 -60.6039ZM211.667 -60.4414L181.638 -38.2176L171.41 -31.5992L161.684 -26.9286L152.148 -22.717L144.891 -17.7377L141.095 -14.629L137.087 -14.6282L127.809 -10.6362L127.639 -10.3892C127.525 -10.2279 127.266 -9.85922 127.092 -9.61322L122.732 -3.38961L121.603 -3.22643L110.022 -4.54364L105.672 -0.592956L104.45 -0.38371L93.4537 2.61139L85.6779 5.03481L76.6715 8.9234L55.338 4.3795L42.5022 -10.7577L33.6756 -29.8517L39.2835 -43.1403L35.6071 -72.1649L43.4543 -76.0438L46.3111 -81.2809L51.6244 -105.203L58.1221 -112.416L60.8314 -119.765L66.5716 -124.093L87.0388 -130.259L89.4688 -131.375L90.2492 -131.609L97.8192 -136.163L99.7066 -136.816L114.482 -142.435L173.955 -169.314L174.557 -116.794L186.526 -111.155L190.523 -107.077L188.857 -91.6105L190.7 -80.5341L211.661 -60.4453L211.667 -60.4414Z" fill="var(--fill-0, #F8EFFF)" style="mix-blend-mode:difference"/>
<path d="M218.431 -60.0122L196.765 -80.778L193.345 -92.4196L195.086 -108.578L191.634 -113.579L178.902 -119.577L178.256 -176.044L115.662 -147.758L98.9204 -141.162L97.6083 -140.709L88.9971 -136.001L87.7272 -135.605L85.0446 -134.217L62.3333 -127.375L57.0888 -122.236L53.7578 -113.204L45.5964 -106.401L40.9294 -79.6628L37.2851 -73.7026L29.337 -68.8969L34.9464 -38.5446L31.4776 -24.1863L40.286 -5.12775L55.5883 8.90098L77.1192 13.4855L86.0754 9.61666L94.4106 6.87469L106.29 3.64029L111.491 0.0205008L124.073 1.45035L124.812 1.25011L128.713 -4.31917C128.927 -4.62103 129.315 -5.17626 129.452 -5.37551L129.823 -5.90827L130.171 -6.12624L140.431 -11.1069L144.159 -11.5039L147.62 -14.3363L155.431 -19.2747L165.499 -24.0227L176.521 -29.8283L187.469 -37.1036L218.421 -60.0143L218.431 -60.0122ZM220.996 -59.8497L188.123 -35.5195L177.015 -28.144L166.564 -22.6567L156.245 -17.8028L148.496 -12.8985L144.531 -9.65304L140.446 -9.22498L131.016 -4.71229L130.84 -4.45716C130.737 -4.31484 130.424 -3.86502 130.268 -3.64609L125.708 2.86323L124.587 3.1729L112.476 1.79621L107.579 5.19033L106.296 5.35185L94.7991 8.48418L86.7156 11.147L77.3001 15.2132L54.3734 10.3289L39.0082 -3.96925L29.5218 -24.4875L33.2045 -39.1164L27.6058 -69.9521L36.0356 -75.0317L39.539 -80.767L44.2991 -107.95L52.6257 -114.927L55.6809 -123.211L61.444 -128.847L84.507 -135.796L87.184 -137.181L88.0361 -137.444L96.5131 -142.092L98.5835 -142.808L114.7 -149.153L179.879 -178.607L180.543 -120.642L193.449 -114.561L196.866 -109.659L195.072 -92.9793L198.392 -81.5217L220.995 -59.857L220.996 -59.8497Z" fill="var(--fill-0, #F8EFFF)" style="mix-blend-mode:difference"/>
<path d="M227.759 -59.4204L204.484 -81.728L199.553 -93.7729L201.422 -111.128L198.559 -116.975L184.883 -123.419L184.173 -185.329L115.988 -154.516L97.8212 -147.154L96.3938 -146.66L86.8441 -141.846L85.4652 -141.405L82.5328 -139.748L57.2444 -132.13L51.9795 -125.798L48.2696 -115.74L38.3083 -109.164L34.1826 -79.1959L29.8672 -72.7144L21.3631 -66.7717L28.8972 -34.5355L27.3235 -18.8101L36.7734 1.63716L54.6462 14.8676L77.7458 19.7845L87.0895 15.7475L95.741 12.7608L108.124 9.38744L113.903 6.36002L127.024 7.85145L127.754 7.55531L131.823 1.74355C132.01 1.47858 132.475 0.816167 132.594 0.643973L132.982 0.0887309L133.329 -0.16331L143.813 -5.75359L147.615 -6.54018L151.227 -9.49423L159.537 -14.3584L170.396 -19.7493L182.205 -26.4296L194.046 -34.4709L227.755 -59.4214L227.759 -59.4204ZM230.325 -59.2579L194.605 -32.8197L182.615 -24.6852L171.442 -18.3829L160.337 -12.8851L152.093 -8.05851L147.956 -4.67458L143.798 -3.82107L134.221 1.21337L134.037 1.48115C133.947 1.60731 133.578 2.1355 133.44 2.32737L128.679 9.12238L127.568 9.57854L114.927 8.14238L109.483 10.98L108.137 11.0983L96.1397 14.3679L87.7465 17.2672L77.9175 21.51L53.3994 16.2881L35.5048 2.82903L25.3614 -19.1152L27.1189 -35.0845L19.6006 -67.7331L28.612 -74.0087L32.7574 -80.2431L36.9671 -110.689L47.1245 -117.428L50.5244 -126.643L56.3076 -133.585L81.9682 -141.313L84.894 -142.963L85.8206 -143.257L95.2055 -148.004L97.458 -148.779L114.92 -155.849L185.804 -187.88L186.531 -124.473L200.374 -117.95L203.207 -112.225L201.281 -94.3298L206.08 -82.4911L230.323 -59.2533L230.325 -59.2579Z" fill="var(--fill-0, #F8EFFF)" style="mix-blend-mode:difference"/>
<path d="M237.088 -58.8286L212.208 -82.677L205.764 -95.128L207.763 -113.683L205.488 -120.378L190.871 -127.264L190.099 -194.619L116.323 -161.279L96.7333 -153.153L95.1889 -152.621L84.7006 -147.7L83.211 -147.218L80.0315 -145.292L52.1677 -136.897L46.8796 -129.37L42.7919 -118.29L31.0308 -111.941L27.4464 -78.7434L22.4552 -71.7417L13.3924 -64.6601L22.8485 -30.5384L23.168 -13.4487L33.2622 8.38559L53.7038 20.8149L78.3709 26.0686L88.0994 21.8653L97.0643 18.6358L109.952 15.1262L116.309 12.6911L129.972 14.2424L130.696 13.8486L134.933 7.7989C135.093 7.57364 135.632 6.80298 135.737 6.65152L136.142 6.07378L136.489 5.79048L147.196 -0.412229L151.072 -1.59303L154.833 -4.67149L163.642 -9.45685L175.294 -15.4879L187.887 -23.0457L200.622 -31.8529L237.084 -58.8416L237.088 -58.8286ZM239.653 -58.6661L201.088 -30.1198L188.215 -21.2265L176.317 -14.1074L164.426 -7.9656L155.689 -3.21399L151.386 0.309484L147.15 1.59022L137.424 7.14817L137.233 7.42403C137.155 7.53121 136.73 8.14058 136.613 8.30363L131.652 15.3843L130.553 15.9898L117.382 14.4942L111.39 16.7752L109.983 16.8458L97.4831 20.2498L88.7803 23.3857L78.5395 27.8078L52.4282 22.2456L32.0042 9.62557L21.1992 -13.7457L21.0332 -31.0525L11.5954 -65.514L21.1895 -72.9903L25.9815 -79.7228L29.6379 -113.43L41.6271 -119.934L45.3728 -130.085L51.178 -138.33L79.4342 -146.842L82.6071 -148.759L83.6054 -149.083L93.8955 -153.926L96.331 -154.765L115.139 -162.559L191.73 -197.17L192.519 -128.318L207.302 -121.355L209.554 -114.807L207.5 -95.6976L213.774 -83.4759L239.662 -58.664L239.653 -58.6661Z" fill="var(--fill-0, #F8EFFF)" style="mix-blend-mode:difference"/>
<path d="M246.415 -58.2396L219.926 -83.6299L211.969 -96.4869L214.095 -116.239L212.413 -123.781L196.851 -131.114L196.018 -203.908L116.653 -168.043L95.6408 -159.152L93.9811 -158.58L82.5543 -153.553L80.9558 -153.026L77.5264 -150.831L47.0855 -141.661L41.7768 -132.94L37.3103 -120.834L23.7493 -114.711L20.7035 -78.2828L15.0383 -70.7581L5.4167 -62.5377L16.7976 -26.5321L19.0104 -8.07817L29.7462 15.1449L52.7582 26.7759L78.9956 32.3647L89.109 27.995L98.3901 24.5208L111.786 20.8733L118.723 19.0289L132.927 20.6445L133.643 20.1576L138.05 13.8655C138.182 13.6771 138.799 12.7993 138.885 12.6749L139.306 12.0718L139.654 11.7527L150.589 4.93862L154.538 3.36819L158.449 0.168095L167.759 -4.54302L180.201 -11.2169L193.581 -19.6496L207.211 -29.2198L246.426 -58.2467L246.415 -58.2396ZM248.98 -58.0771L207.567 -27.4255L193.811 -17.7734L181.191 -9.83924L168.514 -3.05351L159.286 1.61858L154.814 5.2788L150.501 6.98676L140.625 13.0682L140.424 13.3539C140.363 13.4432 139.879 14.1327 139.78 14.2687L134.621 21.6333L133.531 22.3853L119.833 20.8284L113.291 22.5546L111.825 22.5803L98.824 26.1215L89.8089 29.4958L79.1561 34.0972L51.4534 28.1975L28.4973 16.4182L17.0352 -8.37901L14.9441 -27.0262L3.58668 -63.3005L13.7607 -71.9758L19.1993 -79.2064L22.3052 -116.177L36.1251 -122.442L40.2139 -133.526L46.0391 -143.078L76.8912 -152.372L80.3082 -154.556L81.38 -154.905L92.5781 -159.848L95.1967 -160.751L115.346 -169.27L197.641 -206.459L198.492 -132.167L214.212 -124.762L215.885 -117.39L213.698 -97.0677L221.447 -84.4677L248.978 -58.0799L248.98 -58.0771Z" fill="var(--fill-0, #F8EFFF)" style="mix-blend-mode:difference"/>
<path d="M255.744 -57.6479L227.647 -84.5771L218.176 -97.8357L220.432 -118.787L219.34 -127.175L202.834 -134.948L201.939 -213.188L116.982 -174.795L94.5452 -165.138L92.7702 -164.525L80.4048 -159.392L78.6928 -158.822L75.0136 -156.357L41.9927 -146.41L36.6636 -136.496L31.821 -123.366L16.4557 -117.471L13.9511 -77.8125L7.61472 -69.7664L-2.56109 -60.4061L10.7419 -22.5149L14.8524 -2.69567L26.2298 21.9161L51.8095 32.7505L79.6155 38.6717L90.1136 34.1356L99.7128 30.4196L113.612 26.6331L121.129 25.3838L135.875 27.0593L136.582 26.4765L141.159 19.9447C141.266 19.796 141.958 18.8082 142.024 18.7081L142.459 18.0843L142.805 17.7311L153.965 10.3074L157.986 8.34452L162.046 5.02L171.858 0.385924L185.092 -6.92808L199.258 -16.2355L213.785 -26.5734L255.756 -57.6401L255.744 -57.6479ZM258.309 -57.4854L214.052 -24.7274L199.417 -14.3181L186.077 -5.56619L172.616 1.86175L162.895 6.45889L158.251 10.2576L153.864 12.391L143.839 18.996L143.633 19.2926C143.583 19.3629 143.045 20.1335 142.964 20.2425L137.604 27.8928L136.524 28.7913L122.296 27.1749L115.207 28.3446L113.678 28.327L100.179 32.0038L90.8546 35.6146L79.7883 40.3926L50.4923 34.1525L25.0068 23.2123L12.8849 -3.00916L8.86862 -22.9967L-4.40832 -61.0839L6.3484 -70.9599L12.4307 -78.6868L14.9834 -118.918L30.6341 -124.945L35.0686 -136.964L40.9168 -147.824L74.3646 -157.901L78.0287 -160.353L79.1722 -160.731L91.2755 -165.771L94.0744 -166.735L115.57 -175.979L203.569 -215.747L204.481 -136.009L221.137 -128.165L222.225 -119.971L219.906 -98.433L229.134 -85.4518L258.307 -57.4882L258.309 -57.4854Z" fill="var(--fill-0, #F8EFFF)" style="mix-blend-mode:difference"/>
<path d="M265.073 -57.0561L235.37 -85.5289L224.385 -99.1936L226.768 -121.342L226.266 -130.575L208.816 -138.795L207.858 -222.477L117.308 -181.56L93.4463 -171.142L91.5516 -170.489L78.2465 -165.245L76.4238 -164.633L72.493 -161.901L36.8967 -151.176L31.5426 -140.071L26.3211 -125.914L9.15601 -120.246L7.19172 -77.3532L0.179547 -68.787L-10.555 -58.2878L4.67274 -18.5128L10.6765 2.67068L22.6954 28.6712L50.8439 38.7045L80.2202 44.9608L91.1031 40.2584L101.019 36.2977L115.423 32.375L123.518 31.7181L138.803 33.4551L139.503 32.7747L144.25 26.0004C144.328 25.8886 145.094 24.7926 145.146 24.7205L145.599 24.0743L145.943 23.687L157.326 15.6509L161.42 13.2984L165.628 9.85399L175.937 5.29592L189.962 -2.66099L204.913 -12.8459L220.333 -23.9498L265.058 -57.0547L265.073 -57.0561ZM267.638 -56.8936L220.534 -22.0275L205.017 -10.8594L190.952 -1.29068L176.707 6.78403L166.491 11.3034L161.681 15.2417L157.217 17.8023L147.04 24.928L146.825 25.2344C146.788 25.2885 146.193 26.1376 146.132 26.2222L140.572 34.1583L139.501 35.2032L124.743 33.5274L117.106 34.1405L115.517 34.0752L101.517 37.8892L91.8845 41.7395L80.4064 46.6968L49.519 40.1192L21.5041 30.018L8.7252 2.37053L2.78369 -18.9574L-12.4111 -58.8547L-1.07449 -69.9295L5.65444 -78.1546L7.65669 -121.649L25.1363 -127.44L29.9139 -140.393L35.7821 -152.558L71.8258 -163.419L75.737 -166.138L76.9521 -166.546L89.9651 -171.681L92.9471 -172.71L115.784 -182.678L209.49 -225.026L210.466 -139.846L228.059 -131.56L228.568 -122.541L226.12 -99.7898L236.823 -86.4257L267.641 -56.888L267.638 -56.8936Z" fill="var(--fill-0, #F8EFFF)" style="mix-blend-mode:difference"/>
<path d="M274.401 -56.4643L243.091 -86.4761L230.593 -100.547L233.106 -123.894L233.192 -133.976L214.801 -142.638L213.781 -231.765L117.642 -188.323L92.3584 -177.141L90.3484 -176.447L76.1048 -171.097L74.1731 -170.44L69.9953 -167.44L31.8218 -155.94L26.4472 -143.642L20.848 -128.463L1.88303 -123.022L0.460057 -76.8997L-7.2261 -67.8104L-18.5166 -56.1742L-1.36581 -14.5182L6.5329 8.03245L19.1934 35.4217L49.9123 44.6567L80.8573 51.2453L92.1267 46.3793L102.356 42.1758L117.266 38.1168L125.941 38.0506L141.769 39.8503L142.461 39.0739L147.373 32.0589C147.427 31.9823 148.267 30.7808 148.303 30.7312L148.772 30.0625L149.115 29.6411L160.723 20.9954L164.888 18.2505L169.247 14.6845L180.055 10.2006L194.868 1.60256L210.603 -9.45539L226.917 -21.3251L274.395 -56.4682L274.401 -56.4643ZM276.966 -56.3018L227.015 -19.3305L210.615 -7.40344L195.828 2.98027L180.797 11.6989L170.089 16.1434L165.106 20.2201L160.568 23.2062L150.242 30.8554L150.022 31.1727C149.997 31.2079 149.344 32.1398 149.307 32.1939L143.549 40.414L142.487 41.6054L127.198 39.8673L119.014 39.9238L117.365 39.8136L102.863 43.762L92.9205 47.8488L81.0333 52.9838L48.5527 46.0657L18.0056 36.8054L4.56513 7.73089L-3.3016 -14.9374L-20.4187 -56.6458L-8.49948 -68.9213L-1.12397 -77.6444L0.325057 -124.4L19.6382 -129.954L24.7616 -143.842L30.6517 -157.311L69.2929 -168.951L73.4529 -171.936L74.7397 -172.373L88.6579 -177.605L91.823 -178.697L116.005 -189.39L215.418 -234.313L216.455 -143.688L234.985 -134.96L234.914 -125.118L232.335 -101.151L244.514 -87.4088L276.975 -56.2951L276.966 -56.3018Z" fill="var(--fill-0, #F8EFFF)" style="mix-blend-mode:difference"/>
<path d="M283.728 -55.8753L250.81 -87.4261L236.801 -101.9L239.442 -126.445L240.12 -137.374L220.785 -146.482L219.701 -241.052L117.971 -195.083L91.2621 -183.134L89.1368 -182.399L73.9546 -176.943L71.9123 -176.244L67.4845 -172.975L26.7357 -160.697L21.3407 -147.206L15.3626 -131.001L-5.40221 -125.786L-6.28669 -76.4329L-14.6469 -66.8204L-26.4962 -54.0454L-7.42334 -10.5038L2.3686 13.4111L15.6707 42.1891L48.9601 50.6258L81.4754 57.5494L93.1296 52.5172L103.675 48.069L119.091 43.8693L128.344 44.3954L144.711 46.2566L145.395 45.3872L150.479 38.1325C150.506 38.0956 151.423 36.7841 151.44 36.7616L151.925 36.0676L152.267 35.6149L164.1 26.3596L168.338 23.225L172.847 19.5346L184.154 15.1296L199.759 5.89142L216.281 -6.04129L233.488 -18.6769L283.722 -55.8599L283.728 -55.8753ZM286.293 -55.7128L233.495 -16.6334L216.213 -3.9475L200.701 7.25298L184.887 16.6138L173.687 20.9788L168.536 25.1922L163.921 28.6056L153.447 36.7765L153.218 37.1037C153.206 37.1226 152.497 38.133 152.478 38.16L146.519 46.6657L145.469 48.0064L129.653 46.2071L120.918 45.7089L119.205 45.5526L104.203 49.6383L93.9479 53.9635L81.6471 59.275L47.5751 52.0194L14.4987 43.598L0.401168 13.0976L-9.39076 -10.9111L-28.4274 -54.4323L-15.9283 -67.9068L-7.90622 -77.128L-7.00766 -127.147L14.1345 -132.465L19.6037 -147.288L25.5168 -162.065L66.7537 -174.488L71.1579 -177.738L72.521 -178.204L87.3472 -183.535L90.6926 -184.689L116.221 -196.106L221.338 -243.607L222.439 -147.539L241.906 -138.37L241.25 -127.705L238.541 -102.527L252.198 -88.4031L286.299 -55.7164L286.293 -55.7128Z" fill="var(--fill-0, #F8EFFF)" style="mix-blend-mode:difference"/>
<path d="M-12.6864 -128.555L-13.0296 -75.9723L-34.469 -51.9247L12.1574 48.9467L82.1012 63.841L105.002 53.9495L120.923 49.6136L147.663 52.6532L155.427 41.5687L176.454 24.3601L188.262 20.0294L204.658 10.1483L293.057 -55.2836L243.008 -103.256L247.046 -140.775L226.77 -150.325L225.625 -250.341L90.1714 -189.131L69.6542 -182.051L64.9766 -178.512L21.6506 -165.459L9.87817 -133.543L-12.6864 -128.555ZM20.3814 -166.807L64.2142 -180.013L68.8654 -183.531L89.56 -190.671L227.254 -252.895L228.416 -151.382L248.82 -141.771L244.744 -103.888L295.622 -55.1211L205.581 11.525L188.981 21.5298L177.289 25.8198L156.654 42.705L148.453 54.4103L121.052 51.2956L105.549 55.5185L82.2719 65.571L11.0009 50.3928L-36.4298 -52.215L-14.6822 -76.6077L-14.3368 -129.888L8.63607 -134.967L20.3814 -166.807Z" fill="var(--fill-0, #F8EFFF)" style="mix-blend-mode:difference"/>
</g>
</g>
<defs>
<clipPath id="clip0_0_4">
<rect width="198" height="24" fill="white"/>
</clipPath>
</defs>
</svg>
