<svg preserveAspectRatio="none" width="100%" height="100%" overflow="visible" style="display: block;" viewBox="0 0 14 48" fill="none" xmlns="http://www.w3.org/2000/svg">
<g id="Frame 210" clip-path="url(#clip0_0_200)">
<rect width="14" height="48" fill="white" fill-opacity="0.55"/>
<g id="Vector">
<path d="M-50.2968 -43.3043L-50.4181 -24.6426L-57.3308 -16.8894L-46.393 6.77339L-33.6846 9.47954L-27.7906 6.93371L-14.3812 3.28186L-11.763 -0.794071L-2.90909 0.212413L-0.344724 -3.44893C-0.12357 -3.76141 -0.000908136 -3.93849 0.142722 -4.14345L0.387239 -4.49416L7.89458 -6.95928L10.5484 -6.37186L17.593 -12.1378L29.954 -16.6724L36.1959 -20.4337L53.3377 -33.1215L40.6123 -45.3182L42.4814 -62.6871L31.0528 -68.0712L30.7054 -98.3915L-3.91181 -82.7482L-14.059 -79.2465L-18.4365 -75.9336L-19.1443 -75.7331L-35.8351 -70.7055L-45.5552 -44.353L-50.2968 -43.3043ZM-36.7939 -71.7239L-19.484 -76.9379L-19.004 -77.0727L-14.6549 -80.3649L-4.37366 -83.912L31.936 -100.321L32.2966 -68.8696L43.8218 -63.4396L41.9238 -45.7957L55.2756 -32.9988L36.8914 -19.3923L30.4973 -15.5389L18.2234 -11.0351L10.872 -5.01821L7.95848 -5.66176L1.17536 -3.43691L1.05774 -3.26593C0.952603 -3.11752 0.84163 -2.95956 0.679947 -2.7315L-2.3124 1.53994L-11.1309 0.537945L-13.5875 4.36219L-27.3752 8.11772L-33.5557 10.7866L-47.2667 7.86593L-58.8121 -17.1087L-51.6666 -25.1226L-51.5436 -44.3109L-46.4935 -45.4285L-36.7939 -71.7239Z" fill="var(--fill-0, #9D0DE9)"/>
<path d="M60.3853 -32.6745L46.4455 -46.0338L46.1503 -54.2165L47.2677 -64.6141L43.7682 -67.1114L35.5731 -70.9715L35.1795 -105.405L-3.66198 -87.8527L-14.1572 -84.0242L-14.9709 -83.7428L-20.0575 -80.3496L-20.8489 -80.1175L-22.4967 -79.4739L-35.7618 -75.4782L-39.6909 -73.3993L-41.6358 -68.1236L-45.0821 -62.6412L-49.4237 -47.3223L-51.1571 -43.6078L-56.3209 -41.6987L-54.9881 -21.6138L-60.4705 -12.8299L-54.7841 -0.527821L-47.1061 11.2789L-33.2113 14.2382L-27.0265 11.5667L-21.2066 9.86143L-12.9979 7.62503L-9.94318 3.99663L-1.25549 4.98301L-0.686852 4.97584L2.00521 1.13131C2.20539 0.846709 2.38671 0.588661 2.51521 0.402024L2.77275 0.0343148L3.03875 -0.0788743L10.4508 -2.91843L13.1586 -2.62749L15.549 -4.58277L20.6948 -8.42925L27.1073 -11.0483L34.2473 -14.1104L41.1643 -18.4503L60.3861 -32.6779L60.3853 -32.6745ZM62.3233 -32.5517L41.7886 -17.3526L34.728 -12.9259L27.926 -10.0131L21.3159 -7.31777L16.2049 -3.49599L13.4627 -1.25286L10.4911 -1.57366L3.59485 1.0467L3.47218 1.22378C3.37581 1.35786 3.22343 1.57714 3.07555 1.78476L-0.0683908 6.27204L-0.929041 6.28465L-9.27799 5.33446L-12.1482 8.73824L-13.0266 8.93028L-20.9558 11.0893L-26.5941 12.7401L-33.0858 15.5445L-47.9991 12.3688L-55.7833 0.29778L-61.9531 -13.0514L-56.262 -22.0779L-57.5893 -42.6358L-52.099 -44.6604L-50.4292 -48.2407L-45.9993 -63.8481L-42.4735 -69.4775L-40.6858 -74.3243L-36.3644 -76.6072L-22.8608 -80.6753L-21.2096 -81.318L-20.6754 -81.4749L-15.6425 -84.8404L-14.3549 -85.2853L-4.20958 -88.9836L36.4095 -107.341L36.8163 -71.7755L45.1505 -67.8488L48.6102 -65.3915L47.4527 -54.6234L47.7294 -46.5413L62.3219 -32.5538L62.3233 -32.5517Z" fill="var(--fill-0, #9D0DE9)"/>
<path d="M67.4317 -32.2295L52.2782 -46.7549L50.8398 -55.2444L52.0569 -66.5458L49.0015 -69.684L40.0937 -73.8809L39.6517 -112.427L-3.41188 -92.9663L-14.9839 -88.559L-15.886 -88.2488L-21.6817 -84.7755L-22.5553 -84.5096L-24.3932 -83.6645L-39.6054 -79.0832L-43.5499 -76.103L-45.7823 -70.054L-50.5884 -64.743L-54.521 -46.9842L-56.7636 -42.8745L-62.3461 -40.1043L-59.5612 -18.5949L-63.612 -8.77817L-57.4409 4.5731L-47.821 15.7767L-32.7412 18.9871L-26.2657 16.1899L-20.2076 14.3032L-11.615 11.9626L-8.12179 8.78041L0.974436 9.81544L1.53961 9.73662L4.35859 5.71235C4.53913 5.45775 4.77568 5.11792 4.89462 4.94907L5.16383 4.56225L5.42852 4.42333L13.0092 1.1211L15.7722 1.11768L18.273 -0.930275L23.7958 -4.71721L30.807 -7.81986L38.5398 -11.5449L46.1333 -16.4613L67.4372 -32.23L67.4317 -32.2295ZM69.3696 -32.1067L46.6832 -15.3172L38.9559 -10.3171L31.6084 -6.78862L24.4044 -3.60679L18.922 0.154916L16.0537 2.50348L13.0261 2.5041L6.01673 5.51995L5.88822 5.70659C5.80194 5.82845 5.60681 6.10694 5.47486 6.29279L2.18145 10.9946L1.32796 11.1179L-7.4213 10.1227L-10.7072 13.1074L-11.6305 13.2655L-19.9379 15.5282L-25.8123 17.359L-32.6165 20.2968L-48.7334 16.864L-58.4306 5.42816L-65.0989 -8.99695L-60.8622 -19.0361L-63.6397 -40.9636L-57.7113 -43.894L-55.5531 -47.8505L-51.539 -65.923L-46.6301 -71.3721L-44.5833 -76.9242L-40.2467 -80.1939L-24.7842 -84.852L-22.9484 -85.6958L-22.3588 -85.8726L-16.6399 -89.3127L-15.214 -89.8057L-4.05186 -94.0513L40.8788 -114.357L41.334 -74.68L50.3761 -70.4196L53.3957 -67.3386L52.1375 -55.6543L53.5294 -47.2863L69.3648 -32.1097L69.3696 -32.1067Z" fill="var(--fill-0, #9D0DE9)"/>
<path d="M74.4793 -31.7824L58.1114 -47.4705L55.5278 -56.2655L56.8431 -68.4727L54.2354 -72.251L44.6161 -76.7825L44.1279 -119.442L-3.15992 -98.0722L-15.8079 -93.0895L-16.7992 -92.7472L-23.3047 -89.1902L-24.2642 -88.8914L-26.2908 -87.8426L-43.4486 -82.6736L-47.4107 -78.7908L-49.9272 -71.9677L-56.093 -66.828L-59.6188 -46.628L-62.372 -42.1253L-68.3765 -38.4947L-64.1388 -15.5642L-66.7594 -4.71685L-60.1049 9.68146L-48.5443 20.2798L-32.2782 23.7434L-25.512 20.8205L-19.215 18.749L-10.2407 16.3055L-6.31105 13.5708L3.19454 14.6511L3.75283 14.4998L6.69951 10.2923C6.8612 10.0643 7.15429 9.64481 7.25809 9.49428L7.53819 9.09179L7.80155 8.92712L15.5521 5.16434L18.369 4.86444L20.9838 2.72461L26.8843 -1.00624L34.4907 -4.59325L42.8177 -8.9792L51.0884 -14.4756L74.4724 -31.784L74.4793 -31.7824ZM76.4172 -31.6597L51.5826 -13.2788L43.1908 -7.70678L35.2955 -3.56123L27.4998 0.105769L21.6452 3.81085L18.6496 6.26271L15.5637 6.58609L8.43993 9.99533L8.3064 10.1881C8.22887 10.2956 7.99232 10.6354 7.87417 10.8008L4.42917 15.7185L3.58284 15.9524L-5.56675 14.9123L-9.26619 17.4765L-10.2357 17.5985L-18.9214 19.965L-25.0284 21.9766L-32.1416 25.0486L-49.4621 21.3586L-61.0702 10.5567L-68.237 -4.94441L-65.4548 -15.9962L-69.6845 -39.2919L-63.3159 -43.1294L-60.6692 -47.4622L-57.0731 -67.9985L-50.7825 -73.2694L-48.4744 -79.5281L-44.1205 -83.7858L-26.6969 -89.0354L-24.6745 -90.0815L-24.0307 -90.2804L-17.6266 -93.7917L-16.0624 -94.3328L-3.88698 -99.1263L45.3545 -121.378L45.8559 -77.5872L55.606 -72.993L58.1875 -69.2897L56.8321 -56.6884L59.3405 -48.0324L76.4167 -31.6653L76.4172 -31.6597Z" fill="var(--fill-0, #9D0DE9)"/>
<path d="M81.5269 -31.3354L63.9432 -48.1883L60.2179 -57.2879L61.6294 -70.3996L59.4671 -74.8167L49.1351 -79.6849L48.5986 -126.456L-2.91354 -103.178L-16.6383 -97.6161L-17.7167 -97.2429L-24.9313 -93.6057L-25.973 -93.2732L-28.1884 -92.0208L-47.2932 -86.2661L-51.2707 -81.482L-54.0735 -73.8836L-61.599 -68.9152L-64.7158 -46.2753L-67.9761 -41.3787L-74.4007 -36.8891L-68.7088 -12.5354L-69.8977 -0.655273L-62.7586 14.7922L-49.2561 24.7875L-31.8049 28.5021L-24.7459 25.4522L-18.2099 23.1959L-8.85517 20.6473L-4.48915 18.3602L5.42367 19.4869L5.97506 19.2632L9.04945 14.8726C9.19016 14.6724 9.54193 14.172 9.63193 14.0419L9.92503 13.6224L10.1871 13.432L18.1076 9.20865L20.9797 8.6144L23.7083 6.38268L29.9866 2.70791L38.1904 -1.3648L47.1115 -6.4116L56.0573 -12.4866L81.5235 -31.3362L81.5269 -31.3354ZM83.4649 -31.2126L56.4799 -11.2391L47.4214 -5.09377L38.9806 -0.3325L30.591 3.82098L24.3629 7.46733L21.2377 10.0238L18.0958 10.6686L10.861 14.472L10.7216 14.6743C10.6542 14.7696 10.3749 15.1687 10.2706 15.3136L6.67397 20.4471L5.83481 20.7917L-3.7151 19.7067L-7.82814 21.8505L-8.84463 21.9399L-17.9087 24.4099L-24.2495 26.6004L-31.6751 29.8056L-50.198 25.8607L-63.717 15.6926L-71.3801 -0.88574L-70.0523 -12.9502L-75.7322 -37.6154L-68.9243 -42.3566L-65.7925 -47.0665L-62.6122 -70.0679L-54.9385 -75.1584L-52.37 -82.1203L-48.0009 -87.3648L-28.615 -93.2037L-26.4046 -94.45L-25.7045 -94.6722L-18.6145 -98.2582L-16.9128 -98.8439L-3.72051 -104.185L49.8304 -128.384L50.3802 -80.4812L60.8383 -75.5531L62.9783 -71.2283L61.5235 -57.7087L65.1485 -48.7648L83.4641 -31.2092L83.4649 -31.2126Z" fill="var(--fill-0, #9D0DE9)"/>
<path d="M88.5746 -30.8883L69.7786 -48.9052L64.9101 -58.3116L66.4199 -72.3292L64.7018 -77.3872L53.6583 -82.59L53.0756 -133.475L-2.66079 -108.287L-17.4602 -102.148L-18.627 -101.746L-26.5506 -98.0286L-27.676 -97.6645L-30.078 -96.2097L-51.1285 -89.8674L-55.1236 -84.1806L-58.2117 -75.8103L-67.097 -71.0133L-69.8049 -45.9335L-73.5756 -40.6439L-80.4224 -35.2939L-73.2785 -9.51568L-73.0371 3.39514L-65.4112 19.8905L-49.968 29.2805L-31.3326 33.2496L-23.9829 30.0741L-17.2101 27.6342L-7.47365 24.9828L-2.67122 23.1432L7.65094 24.3151L8.19755 24.0176L11.3988 19.4472C11.5199 19.2771 11.9269 18.6948 12.006 18.5804L12.3121 18.144L12.5742 17.9299L20.6633 13.2439L23.5914 12.3519L26.4326 10.0262L33.0879 6.41092L41.8903 1.85463L51.4042 -3.85516L61.0252 -10.5088L88.5714 -30.8981L88.5746 -30.8883ZM90.5125 -30.7655L61.3771 -9.19944L51.6521 -2.48076L42.6635 2.89756L33.6801 7.53753L27.0798 11.1273L23.8284 13.7892L20.6284 14.7567L13.2805 18.9556L13.1361 19.164C13.0774 19.245 12.7567 19.7054 12.6683 19.8286L8.9201 25.1779L8.08942 25.6353L-1.86081 24.5054L-6.38743 26.2286L-7.4501 26.2819L-16.8938 28.8536L-23.4685 31.2227L-31.2052 34.5635L-50.9317 30.3614L-66.3616 20.8273L-74.5245 3.17079L-74.6499 -9.90412L-81.78 -35.939L-74.5318 -41.5872L-70.9116 -46.6734L-68.1492 -72.1386L-59.0917 -77.0522L-56.2619 -84.7207L-51.8763 -90.9499L-30.5293 -97.3802L-28.1323 -98.8288L-27.3781 -99.0731L-19.6041 -102.732L-17.7641 -103.366L-3.55509 -109.254L54.3075 -135.402L54.9034 -83.3862L66.0716 -78.1257L67.7735 -73.1786L66.2216 -58.7419L70.961 -49.5088L90.5194 -30.7639L90.5125 -30.7655Z" fill="var(--fill-0, #9D0DE9)"/>
<path d="M95.6209 -30.4433L75.6091 -49.6251L69.5976 -59.3383L71.2035 -74.2604L69.933 -79.9585L58.1767 -85.498L57.547 -140.493L-2.41148 -113.397L-18.2856 -106.681L-19.5394 -106.248L-28.1722 -102.45L-29.3798 -102.052L-31.9706 -100.394L-54.968 -93.466L-58.9786 -86.8779L-62.3529 -77.7322L-72.5979 -73.1065L-74.899 -45.5855L-79.1789 -39.9008L-86.4478 -33.6904L-77.8498 -6.48904L-76.1781 7.45248L-68.0675 24.997L-50.6824 33.7839L-30.8606 38.0061L-23.2202 34.7049L-16.2085 32.0803L-6.08815 29.3247L-0.847181 27.9312L9.88353 29.1518L10.4246 28.784L13.7536 24.0304C13.8536 23.8881 14.3193 23.2249 14.3846 23.1309L14.7024 22.6754L14.9652 22.4342L23.2264 17.2864L26.2098 16.0999L29.1649 13.6823L36.1979 10.1232L45.5976 5.08121L55.7057 -1.28944L66.0031 -8.51955L95.6294 -30.4487L95.6209 -30.4433ZM97.5588 -30.3206L66.2717 -7.164L55.8801 0.127989L46.3459 6.12204L36.7686 11.2485L29.7969 14.7782L26.4181 17.5434L23.1599 18.8337L15.6989 23.4281L15.5474 23.6439C15.5009 23.7114 15.1353 24.2323 15.0607 24.335L11.163 29.8988L10.3395 30.4669L-0.00892542 29.2907L-4.95123 30.5949L-6.05876 30.6142L-15.8807 33.2896L-22.6915 35.8387L-30.7394 39.315L-51.6681 34.8579L-69.011 25.9589L-77.6703 7.22521L-79.2501 -6.86232L-87.8304 -34.2667L-80.1441 -40.8207L-76.0354 -46.2833L-73.6889 -74.2135L-63.2483 -78.9468L-60.1594 -87.3206L-55.7585 -94.5365L-32.4505 -101.558L-29.869 -103.208L-29.0593 -103.472L-20.5994 -107.206L-18.6211 -107.888L-3.3987 -114.324L58.7733 -142.42L59.4163 -86.2937L71.2925 -80.6993L72.5563 -75.13L70.9037 -59.7771L76.7583 -50.2581L97.5575 -30.3227L97.5588 -30.3206Z" fill="var(--fill-0, #9D0DE9)"/>
<path d="M102.669 -29.9963L81.4423 -50.3407L74.2869 -60.3572L75.991 -76.1852L75.166 -82.5221L62.6962 -88.3948L62.0203 -147.503L-2.16245 -118.498L-19.1133 -111.203L-20.4542 -110.739L-29.796 -106.861L-31.0894 -106.431L-33.869 -104.569L-58.8155 -97.0538L-62.8415 -89.5644L-66.5 -79.6446L-78.1081 -75.1911L-80.0002 -45.2302L-84.7873 -39.1516L-92.4749 -32.08L-82.4248 -3.45416L-79.3194 11.5188L-70.724 30.1125L-51.3991 38.2976L-30.3923 42.7709L-22.4612 39.344L-15.2093 36.5367L-4.70849 33.676L0.970195 32.7323L12.1103 33.998L12.6444 33.5577L16.1024 28.6231C16.1829 28.5108 16.7059 27.7645 16.7561 27.6889L17.0847 27.2176L17.3463 26.9508L25.7773 21.3423L28.8146 19.8594L31.8823 17.3478L39.2944 13.8469L49.2928 8.32135L59.995 1.28984L70.9697 -6.52022L102.678 -29.9904L102.669 -29.9963ZM104.606 -29.8735L71.1711 -5.12564L60.1149 2.73834L50.0366 9.35023L39.8674 14.9619L32.5236 18.4349L29.0153 21.3047L25.701 22.9165L18.1269 27.9064L17.9716 28.1304C17.9339 28.1835 17.5269 28.7658 17.4661 28.8481L13.4169 34.6277L12.6005 35.3065L1.85174 34.0854L-3.50414 34.969L-4.65867 34.9558L-14.8568 37.7335L-21.9014 40.4614L-30.2618 44.0711L-52.3942 39.3568L-71.6479 31.0917L-80.8057 11.282L-83.84 -3.81815L-93.8704 -32.5921L-85.7439 -40.0532L-81.1489 -45.8907L-79.2204 -76.2848L-67.3967 -80.8377L-64.0465 -89.9181L-59.6283 -98.1221L-34.3592 -105.735L-31.5911 -107.587L-30.7272 -107.874L-21.5835 -111.681L-19.469 -112.409L-3.22985 -119.393L63.2516 -149.436L63.9408 -89.1967L76.5237 -83.2706L77.346 -77.0797L75.5941 -60.8085L82.5652 -51.0015L104.605 -29.8756L104.606 -29.8735Z" fill="var(--fill-0, #9D0DE9)"/>
<path d="M109.716 -29.5492L87.2763 -51.0597L78.9778 -61.3831L80.7781 -78.1156L80.3986 -85.0912L67.216 -91.3007L66.4917 -154.521L-1.9166 -123.609L-19.9435 -115.738L-21.3749 -115.245L-31.4266 -111.283L-32.8036 -110.821L-35.7732 -108.757L-62.6654 -100.655L-66.7103 -92.2648L-70.655 -81.5697L-83.6229 -77.2875L-85.1068 -44.8832L-90.4044 -38.4116L-98.5141 -30.4798L-87.0099 -0.430673L-82.4742 15.573L-73.3941 35.2158L-52.1286 42.7957L-29.9355 47.5222L-21.7137 43.9696L-14.2228 40.9774L-3.34026 38.0139L2.77486 37.5177L14.3221 38.8299L14.8515 38.3159L18.4372 33.1981C18.4967 33.1136 19.0749 32.2856 19.1148 32.2312L19.4564 31.7429L19.7166 31.4503L28.3163 25.3792L31.4089 23.602L34.5883 20.9998L42.376 17.5563L52.9717 11.545L64.2668 3.85054L75.9166 -4.53814L109.705 -29.5481L109.716 -29.5492ZM111.654 -29.4264L76.0683 -3.08594L64.3456 5.35135L53.7195 12.5803L42.9578 18.6805L35.2405 22.0948L31.606 25.0701L28.2336 27.0046L20.5451 32.3879L20.3826 32.6194C20.355 32.6603 19.9053 33.3017 19.8596 33.3657L15.6587 39.3612L14.8495 40.1506L3.70046 38.8846L-2.06899 39.3477L-3.26971 39.2984L-13.8462 42.1798L-21.1234 45.0886L-29.7948 48.8337L-53.1295 43.8644L-74.2941 36.2332L-83.9483 15.3462L-88.437 -0.766531L-99.9163 -30.908L-91.3518 -39.2748L-86.2682 -45.4886L-84.7556 -78.3478L-71.5501 -82.7225L-67.9407 -92.5082L-63.5074 -101.699L-36.2773 -109.904L-33.3225 -111.958L-32.4045 -112.266L-22.5734 -116.146L-20.3206 -116.923L-3.06815 -124.454L67.7249 -156.446L68.4624 -92.0948L81.7533 -85.835L82.1376 -79.0218L80.2884 -61.8336L88.374 -51.7373L111.657 -29.4222L111.654 -29.4264Z" fill="var(--fill-0, #9D0DE9)"/>
<path d="M116.764 -29.1021L93.1095 -51.7753L83.6679 -62.4055L85.5664 -80.0439L85.6311 -87.6604L71.7371 -94.2045L70.9666 -161.538L-1.66385 -128.718L-20.7653 -120.27L-22.2839 -119.746L-33.0446 -115.704L-34.5039 -115.208L-37.6602 -112.942L-66.4994 -104.254L-70.5597 -94.9627L-74.7898 -83.4957L-89.1174 -79.3848L-90.1924 -44.5406L-95.9992 -37.6738L-104.529 -28.8829L-91.5718 2.58722L-85.6046 19.6237L-76.0398 40.3157L-52.8324 47.2925L-29.4542 52.27L-20.9404 48.5939L-13.2127 45.4182L-1.94838 42.3518L4.60526 42.3017L16.5632 43.6613L17.0857 43.0748L20.797 37.7751C20.8376 37.7172 21.4724 36.8095 21.4992 36.7721L21.8539 36.2669L22.1128 35.9485L30.8824 29.4169L34.0288 27.3432L37.3221 24.6491L45.4876 21.2617L56.6785 14.7661L68.5657 6.41202L80.8906 -2.55529L116.759 -29.105L116.764 -29.1021ZM118.702 -28.9794L80.9643 -1.04838L68.5749 7.96223L57.4032 15.8069L46.0477 22.3936L37.9581 25.7513L34.1941 28.8312L30.7657 31.0871L22.9641 36.8659L22.7979 37.1056C22.779 37.1322 22.2857 37.8363 22.2581 37.8771L17.9078 44.0872L17.1058 44.9873L5.55503 43.6742L-0.628015 43.7169L-1.8736 43.6336L-12.8297 46.6165L-20.3407 49.704L-29.3212 53.5834L-53.8596 48.357L-76.9372 41.361L-87.0912 19.3959L-93.0343 2.27048L-105.966 -29.2392L-96.9612 -38.5131L-91.3891 -45.1032L-90.2944 -80.4262L-75.7038 -84.6219L-71.8332 -95.1142L-67.3833 -105.29L-38.1908 -114.084L-35.0481 -116.338L-34.0759 -116.668L-23.561 -120.621L-21.1699 -121.446L-2.90062 -129.525L72.2033 -163.463L72.987 -94.9978L86.9859 -88.4041L86.9321 -80.9686L84.9836 -62.8621L94.1844 -52.48L118.708 -28.9743L118.702 -28.9794Z" fill="var(--fill-0, #9D0DE9)"/>
<path d="M123.81 -28.6572L98.9413 -52.4931L88.358 -63.4279L90.3527 -81.9708L90.865 -90.2274L76.2582 -97.1082L75.4393 -168.554L-1.41534 -133.825L-21.5936 -124.798L-23.1992 -124.243L-34.669 -120.121L-36.212 -119.593L-39.557 -117.124L-70.3418 -107.848L-74.4176 -97.6553L-78.934 -85.4128L-94.6213 -81.4733L-95.2895 -44.1879L-101.605 -36.9259L-110.557 -27.2747L-96.1482 5.61998L-88.7506 23.6871L-78.7012 45.4283L-53.5518 51.802L-28.9872 57.0326L-20.1827 53.2309L-12.2161 49.8703L-0.569263 46.6976L6.42079 47.095L18.786 48.5012L19.3029 47.8443L23.1432 42.3636C23.1642 42.3357 23.8563 41.3449 23.8693 41.3279L24.2357 40.8036L24.4946 40.4616L33.4341 33.4694L36.6358 31.1013L40.0416 28.3133L48.5841 24.9854L60.3737 18.0062L72.8549 8.9913L85.855 -0.55464L123.806 -28.6455L123.81 -28.6572ZM125.748 -28.5344L85.8602 0.989191L72.8042 10.5731L61.0848 19.0348L49.1375 26.1067L40.6766 29.4043L36.7851 32.5875L33.2986 35.1662L25.3859 41.3391L25.2126 41.5863C25.2038 41.6006 24.6678 42.3639 24.654 42.3844L20.1521 48.8102L19.3585 49.8231L7.40958 48.4638L0.810844 48.0874L-0.483046 47.9693L-11.8174 51.056L-19.5645 54.3235L-28.8575 58.3362L-54.5981 52.8548L-79.5866 46.4927L-90.2369 23.4503L-97.6345 5.31228L-112.016 -27.567L-102.573 -37.7467L-96.513 -44.7131L-95.8341 -82.5012L-79.8617 -86.5186L-75.7298 -97.7175L-71.2627 -108.881L-40.1091 -118.266L-36.7818 -120.722L-35.7521 -121.074L-24.5512 -125.101L-22.0239 -125.973L-2.73787 -134.598L76.6755 -170.484L77.5076 -97.9071L92.2144 -90.9796L91.7191 -82.9226L89.6721 -63.9012L99.9894 -53.2311L125.752 -28.5371L125.748 -28.5344Z" fill="var(--fill-0, #9D0DE9)"/>
<path d="M-100.124 -83.5652L-100.384 -43.84L-116.581 -25.6726L-81.3554 50.5334L-28.5144 61.7857L-11.2137 54.3129L0.814908 51.0373L21.0159 53.3336L26.8817 44.9596L42.7673 31.9589L51.6875 28.6871L64.0744 21.2222L130.858 -28.2101L93.0467 -64.4524L96.0975 -92.7965L80.7793 -100.012L79.9142 -175.571L-22.4176 -129.329L-37.9179 -123.98L-41.4517 -121.307L-74.1835 -111.445L-83.0773 -87.3335L-100.124 -83.5652ZM-75.1423 -112.463L-42.0277 -122.44L-38.5138 -125.098L-22.8795 -130.493L81.1448 -177.501L82.0231 -100.81L97.4379 -93.5491L94.3582 -64.93L132.796 -28.0873L64.772 22.2622L52.2308 29.8206L43.3977 33.0616L27.8084 45.818L21.6126 54.6611L0.912276 52.308L-10.8004 55.4983L-28.3855 63.0928L-82.2291 51.626L-118.062 -25.8919L-101.632 -44.32L-101.371 -84.5719L-84.0157 -88.409L-75.1423 -112.463Z" fill="var(--fill-0, #9D0DE9)"/>
</g>
</g>
<defs>
<clipPath id="clip0_0_200">
<rect width="14" height="48" fill="white"/>
</clipPath>
</defs>
</svg>
