<svg preserveAspectRatio="none" width="100%" height="100%" overflow="visible" style="display: block;" viewBox="0 0 65 48" fill="none" xmlns="http://www.w3.org/2000/svg">
<g id="Intersect">
<path d="M46 1H56L58 0L65 0.823242V8.875L63.5 11.5L65 13V21.75L63.5 24V29L65 34.625V45.291L60.3574 48H36L34.5 46.5H23.5L24.5 47.5H16L0 46.585V27.7402C0.687611 25.3586 1.46558 22.7559 2 21L0 17.3994V4.20996L8 0H37.9092L37.5 1.5L41.625 0H46.7139L46 1Z" fill="var(--fill-0, #1D1C26)"/>
<path d="M36.5996 1L36.5352 1.2373L36.0273 3.09961L37.8418 2.43945L41.8008 1H44.7715L44.0576 2H56.2363L56.4473 1.89453L58.1797 1.02734L64 1.71191V8.60938L62.6318 11.0039L62.2529 11.667L64 13.4141V21.4473L62.5 23.6973V29.1309L62.5342 29.2578L64 34.7539V44.7168L60.0879 47H36.4141L34.9141 45.5H21.0859L22.0859 46.5H16.0225L1 45.6406V27.8838C1.67636 25.5444 2.43371 23.0105 2.95703 21.291L3.08008 20.8857L2.87402 20.5146L1 17.1406V4.81348L8.24707 1H36.5996Z" stroke="var(--stroke-0, #F8EFFF)" stroke-opacity="0.1" stroke-width="2"/>
</g>
</svg>
