<svg preserveAspectRatio="none" width="100%" height="100%" overflow="visible" style="display: block;" viewBox="0 0 37 15" fill="none" xmlns="http://www.w3.org/2000/svg">
<g id="Union" filter="url(#filter0_g_0_114)">
<path fill-rule="evenodd" clip-rule="evenodd" d="M35.2901 1.37667L34.5174 1.6608C34.5346 1.7225 34.5795 1.87728 34.6058 1.96756L35.7362 1.86059L36 3.39358L35.0168 3.92392L34.4168 4.68603L33.5216 6.74935L32.7866 8.2331C32.6641 8.9199 32.328 9.59524 31.8725 10.0386L30.7982 11.163L29.9595 12.7857H29.9656L29.9027 13.6086L28.7373 14L27.506 12.0524L28.53 10.786L28.3195 9.75732L29.1834 8.95474C29.5602 8.72879 30.0783 8.23066 29.9595 8.1666L29.7742 6.83623L30.7792 5.7699L31.3948 5.39606C31.4545 4.90637 31.5834 4.24283 31.7216 3.73572L32.8744 3.01408L33.3989 2.03463C33.5434 1.70717 33.9991 1.24342 34.3603 1L35.2901 1.37667ZM32.4504 6.48277L33.0409 6.3175L32.3216 5.82792L32.4504 6.48277Z" fill="var(--fill-0, #C8FE4E)"/>
<path d="M21.7922 3.07493L21.8174 4.19361L21.9333 5.15269L21.8361 5.89753L21.2047 6.85944L21.3115 7.99538L19.6593 9.15171L18.5816 10.5862L17.7493 11.7567L17.8027 12.716C16.7159 13.3912 15.8363 13.3392 14.9222 12.6263L14.7869 11.8846L15.6164 9.38942C16.0844 9.16048 16.386 8.60975 16.1253 8.38083L15.9336 7.13196L17.5515 5.82197L19.4706 4.19361L19.8381 3.09813L20.8655 2.54176L21.7922 3.07493Z" fill="var(--fill-0, #C8FE4E)"/>
<path d="M10.0689 2.97928L9.50351 3.17058L9.66365 3.6429L9.45934 4.59915L8.27216 5.17589L7.69391 6.31467L7.23867 7.36091L6.7957 8.46771L5.58 9.62686L4.50571 9.95457L4.179 10.9108L2.84703 12.1772L1.25768 11.8815L1.07853 10.5109L1 10.0847L1.06595 9.51677L1.85434 8.5693L2.09638 7.43901L3.70781 6.04243L4.86063 4.89176L6.20825 3.78497L7.09419 3.10662L7.42089 2.13029L8.32554 2.27518L10.0155 1.85493L10.0689 2.97928Z" fill="var(--fill-0, #C8FE4E)"/>
</g>
<defs>
<filter id="filter0_g_0_114" x="0" y="0" width="37" height="15" filterUnits="userSpaceOnUse" color-interpolation-filters="sRGB">
<feFlood flood-opacity="0" result="BackgroundImageFix"/>
<feBlend mode="normal" in="SourceGraphic" in2="BackgroundImageFix" result="shape"/>
<feTurbulence type="fractalNoise" baseFrequency="0.99900001287460327 0.99900001287460327" numOctaves="3" seed="6748" />
<feDisplacementMap in="shape" scale="2" xChannelSelector="R" yChannelSelector="G" result="displacedImage" width="100%" height="100%" />
<feMerge result="effect1_texture_0_114">
<feMergeNode in="displacedImage"/>
</feMerge>
</filter>
</defs>
</svg>
