<svg preserveAspectRatio="none" width="100%" height="100%" overflow="visible" style="display: block;" viewBox="0 0 21 9" fill="none" xmlns="http://www.w3.org/2000/svg">
<g id="Union" filter="url(#filter0_g_0_199)">
<path fill-rule="evenodd" clip-rule="evenodd" d="M19.6147 1.20282L19.1952 1.35581C19.2045 1.38904 19.2289 1.47238 19.2431 1.521L19.8568 1.4634L20 2.28885L19.4663 2.57442L19.1405 2.98478L18.6546 4.0958L18.2556 4.89475C18.1891 5.26456 18.0066 5.62821 17.7593 5.86695L17.1762 6.47236L16.7209 7.34613H16.7242L16.6901 7.78925L16.0574 8L15.389 6.9513L15.9448 6.26939L15.8306 5.71548L16.2996 5.28332C16.5041 5.16166 16.7854 4.89343 16.7209 4.85894L16.6203 4.14259L17.1658 3.56841L17.5001 3.36711C17.5325 3.10343 17.6024 2.74614 17.6774 2.47308L18.3032 2.08451L18.588 1.55711C18.6664 1.38079 18.9138 1.13107 19.1099 1L19.6147 1.20282ZM18.0731 3.95226L18.3937 3.86327L18.0031 3.59965L18.0731 3.95226Z" fill="var(--fill-0, #C8FE4E)"/>
<path d="M12.2872 2.11727L12.3008 2.71964L12.3638 3.23606L12.311 3.63713L11.9683 4.15508L12.0262 4.76675L11.1293 5.38938L10.5443 6.16181L10.0925 6.79206L10.1215 7.30864C9.53147 7.67221 9.05399 7.64417 8.55777 7.26033L8.48433 6.86094L8.93462 5.51738C9.18869 5.3941 9.35242 5.09756 9.2109 4.97429L9.10682 4.30183L9.98509 3.59645L11.0269 2.71964L11.2264 2.12976L11.7841 1.83018L12.2872 2.11727Z" fill="var(--fill-0, #C8FE4E)"/>
<path d="M5.92311 2.06576L5.61619 2.16877L5.70312 2.4231L5.59221 2.938L4.94774 3.24856L4.63384 3.86175L4.38671 4.4251L4.14624 5.02107L3.48628 5.64523L2.9031 5.82169L2.72574 6.33659L2.00267 7.0185L1.13988 6.85926L1.04263 6.12127L1 5.89179L1.0358 5.58595L1.46378 5.07578L1.59518 4.46716L2.46995 3.71515L3.09577 3.09557L3.82734 2.4996L4.30827 2.13434L4.48563 1.60862L4.97672 1.68664L5.89413 1.46035L5.92311 2.06576Z" fill="var(--fill-0, #C8FE4E)"/>
</g>
<defs>
<filter id="filter0_g_0_199" x="0" y="0" width="21" height="9" filterUnits="userSpaceOnUse" color-interpolation-filters="sRGB">
<feFlood flood-opacity="0" result="BackgroundImageFix"/>
<feBlend mode="normal" in="SourceGraphic" in2="BackgroundImageFix" result="shape"/>
<feTurbulence type="fractalNoise" baseFrequency="0.99900001287460327 0.99900001287460327" numOctaves="3" seed="6748" />
<feDisplacementMap in="shape" scale="2" xChannelSelector="R" yChannelSelector="G" result="displacedImage" width="100%" height="100%" />
<feMerge result="effect1_texture_0_199">
<feMergeNode in="displacedImage"/>
</feMerge>
</filter>
</defs>
</svg>
