<svg preserveAspectRatio="none" width="100%" height="100%" overflow="visible" style="display: block;" viewBox="0 0 16 14" fill="none" xmlns="http://www.w3.org/2000/svg">
<g id="Vector" style="mix-blend-mode:difference">
<path fill-rule="evenodd" clip-rule="evenodd" d="M3.08183 0L4.22077 2.9955L3.95278 3.21622L4.35476 3.37387V5.42342L4.22077 5.6019L4.75674 6.43243L4.65625 8.00901L4.75674 9.71171V12.7072L4.05328 13.3694L4.22077 13.6424H4.52225L4.37688 14H0.379864L0.167491 13.6424H0.535971L0.703462 13.3694L0 12.7072V11.1937L0.167491 9.71171L0 9.27027V6.43243L0.703462 5.32883L0.401978 5.42342V4.91892L0.535971 4.54054L0.401978 3.37387L0.803956 3.21622L0.535971 2.9955L1.67491 0H3.08183ZM2.41187 2.86937H3.74584L2.79873 0.378378H2.41187V2.86937Z" fill="var(--fill-0, #F8EFFF)"/>
<path fill-rule="evenodd" clip-rule="evenodd" d="M8.70344 0L9.84237 2.9955L9.57439 3.21622L9.97637 3.37387V5.42342L9.84237 5.6019L10.3783 6.43243L10.2778 8.00901L10.3783 9.71171V12.7072L9.67488 13.3694L9.84237 13.6424H10.1439L9.99848 14H6.00147L5.78909 13.6424H6.15757L6.32506 13.3694L5.6216 12.7072V11.1937L5.78909 9.71171L5.6216 9.27027V6.43243L6.32506 5.32883L6.02358 5.42342V4.91892L6.15757 4.54054L6.02358 3.37387L6.42556 3.21622L6.15757 2.9955L7.29651 0H8.70344ZM8.03347 2.86937H9.36745L8.42034 0.378378H8.03347V2.86937Z" fill="var(--fill-0, #F8EFFF)"/>
<path fill-rule="evenodd" clip-rule="evenodd" d="M14.3251 0L15.464 2.9955L15.196 3.21622L15.598 3.37387V5.42342L15.464 5.6019L16 6.43243L15.8995 8.00901L16 9.71171V12.7072L15.2965 13.3694L15.464 13.6424H15.7655L15.6201 14H11.6231L11.4108 13.6424H11.7792L11.9467 13.3694L11.2433 12.7072V11.1937L11.4108 9.71171L11.2433 9.27027V6.43243L11.9467 5.32883L11.6452 5.42342V4.91892L11.7792 4.54054L11.6452 3.37387L12.0472 3.21622L11.7792 2.9955L12.9182 0H14.3251ZM13.6551 2.86937H14.9891L14.042 0.378378H13.6551V2.86937Z" fill="var(--fill-0, #F8EFFF)"/>
</g>
</svg>
