<svg preserveAspectRatio="none" width="100%" height="100%" overflow="visible" style="display: block;" viewBox="0 0 13 12" fill="none" xmlns="http://www.w3.org/2000/svg">
<g id="Vector">
<path fill-rule="evenodd" clip-rule="evenodd" d="M2.50399 0L3.42938 2.56757L3.21164 2.75676L3.53824 2.89189V4.64865L3.42938 4.80163L3.86485 5.51351L3.7832 6.86487L3.86485 8.32432V10.8919L3.29329 11.4595L3.42938 11.6935H3.67433L3.55621 12H0.30864L0.136086 11.6935H0.435476L0.571563 11.4595L0 10.8919V9.59459L0.136086 8.32432L0 7.94595V5.51351L0.571563 4.56757L0.326607 4.64865V4.21622L0.435476 3.89189L0.326607 2.89189L0.653214 2.75676L0.435476 2.56757L1.36086 0H2.50399ZM1.95964 2.45946H3.0435L2.27397 0.324324H1.95964V2.45946Z" fill="var(--fill-0, #F8EFFF)"/>
<path fill-rule="evenodd" clip-rule="evenodd" d="M7.07154 0L7.99693 2.56757L7.77919 2.75676L8.1058 2.89189V4.64865L7.99693 4.80163L8.4324 5.51351L8.35075 6.86487L8.4324 8.32432V10.8919L7.86084 11.4595L7.99693 11.6935H8.24188L8.12376 12H4.87619L4.70364 11.6935H5.00303L5.13912 11.4595L4.56755 10.8919V9.59459L4.70364 8.32432L4.56755 7.94595V5.51351L5.13912 4.56757L4.89416 4.64865V4.21622L5.00303 3.89189L4.89416 2.89189L5.22077 2.75676L5.00303 2.56757L5.92842 0H7.07154ZM6.5272 2.45946H7.61105L6.84152 0.324324H6.5272V2.45946Z" fill="var(--fill-0, #F8EFFF)"/>
<path fill-rule="evenodd" clip-rule="evenodd" d="M11.6391 0L12.5645 2.56757L12.3468 2.75676L12.6734 2.89189V4.64865L12.5645 4.80163L13 5.51351L12.9183 6.86487L13 8.32432V10.8919L12.4284 11.4595L12.5645 11.6935H12.8095L12.6914 12H9.44379L9.27123 11.6935H9.57062L9.70671 11.4595L9.13515 10.8919V9.59459L9.27123 8.32432L9.13515 7.94595V5.51351L9.70671 4.56757L9.46175 4.64865V4.21622L9.57062 3.89189L9.46175 2.89189L9.78836 2.75676L9.57062 2.56757L10.496 0H11.6391ZM11.0948 2.45946H12.1786L11.4091 0.324324H11.0948V2.45946Z" fill="var(--fill-0, #F8EFFF)"/>
</g>
</svg>
