<svg preserveAspectRatio="none" width="100%" height="100%" overflow="visible" style="display: block;" viewBox="0 0 20 16" fill="none" xmlns="http://www.w3.org/2000/svg">
<g id="SpeakerHigh">
<g id="Union">
<path fill-rule="evenodd" clip-rule="evenodd" d="M10.4999 3.87265L13.0489 4.32298L15.2129 4.68662L16.3291 6.32291L15.952 8.32291L16.9197 8.82291L18.839 8.82877V10.8288H18.1272L17.8713 9.82877L17.2035 10.8229H16.4917L16.5427 10.8288L16.99 12.9941L16.1291 13L15.2404 11.7261L14.0166 12.3229L11.9744 12.3171L11.1475 11.0602L11.5974 8.32291L10.4999 7.94687L9.44559 8.40716L8.91609 11.5888L8.12983 12.2294H4.62284L4.13899 11.7372L4.25901 10.9619L4.84138 10.6386L5.66379 10.5322L7.3086 10.3193L7.40339 8.33684L6.28575 8.12395L6.9999 6.5V5L7.3086 4.3637L8.19626 4.04973L10.4999 3.87265ZM13.5328 10.3229L15.2129 10.4577L14.5005 10.3229L13.5328 9.32291V10.3229Z" fill="var(--fill-0, #FF5858)"/>
<path d="M6.02554 4.3637L6.28575 5.91764L5.6637 7.65279L4.38687 7.76664L4.16533 7.56666L3.7689 7.5L3.41916 7.76664L2.93531 7.5H1.81906L0.999904 7.0527L0.999997 5L1.81915 3.59403L2.93541 3L4.62284 3.12904L6.02554 4.3637Z" fill="var(--fill-0, #FF5858)"/>
</g>
</g>
</svg>
