<svg preserveAspectRatio="none" width="100%" height="100%" overflow="visible" style="display: block;" viewBox="0 0 27 12" fill="none" xmlns="http://www.w3.org/2000/svg">
<g id="Union" filter="url(#filter0_g_0_5)">
<path fill-rule="evenodd" clip-rule="evenodd" d="M25.493 1.28974L24.941 1.5083C24.9533 1.55577 24.9853 1.67483 25.0041 1.74428L25.8116 1.66199L26 2.84122L25.2977 3.24917L24.8691 3.83541L24.2297 5.42258L23.7047 6.56392C23.6172 7.09223 23.3771 7.61172 23.0518 7.95278L22.2844 8.81766L21.6854 10.0659H21.6897L21.6448 10.6989L20.8124 11L19.9329 9.50186L20.6643 8.5277L20.514 7.7364L21.131 7.11903C21.4001 6.94523 21.7702 6.56204 21.6854 6.51277L21.553 5.48941L22.2708 4.66916L22.7106 4.38159C22.7532 4.0049 22.8453 3.49449 22.944 3.1044L23.7674 2.5493L24.1421 1.79587C24.2453 1.54398 24.5708 1.18725 24.8288 1L25.493 1.28974ZM23.4646 5.21752L23.8864 5.09038L23.3726 4.71378L23.4646 5.21752Z" fill="var(--fill-0, #C8FE4E)"/>
<path d="M15.8516 2.5961L15.8695 3.45663L15.9524 4.19437L15.8829 4.76733L15.432 5.50726L15.5082 6.38107L14.328 7.27054L13.5583 8.37401L12.9638 9.27438L13.0019 10.0123C12.2256 10.5317 11.5974 10.4917 10.9444 9.94334L10.8478 9.37277L11.4403 7.4534C11.7746 7.27729 11.99 6.85366 11.8038 6.67756L11.6669 5.71689L12.8225 4.70921L14.1933 3.45663L14.4558 2.61395L15.1896 2.18597L15.8516 2.5961Z" fill="var(--fill-0, #C8FE4E)"/>
<path d="M7.47777 2.52252L7.07394 2.66968L7.18832 3.033L7.04239 3.76857L6.1944 4.21223L5.78136 5.08821L5.45619 5.89301L5.13979 6.74439L4.27143 7.63605L3.50408 7.88813L3.27072 8.6237L2.31931 9.59786L1.18406 9.37038L1.05609 8.31611L1 7.98827L1.04711 7.55136L1.61024 6.82254L1.78313 5.95309L2.93415 4.87879L3.75759 3.99367L4.72018 3.14228L5.35299 2.62048L5.58635 1.86945L6.23253 1.98091L7.43965 1.65764L7.47777 2.52252Z" fill="var(--fill-0, #C8FE4E)"/>
</g>
<defs>
<filter id="filter0_g_0_5" x="0" y="0" width="27" height="12" filterUnits="userSpaceOnUse" color-interpolation-filters="sRGB">
<feFlood flood-opacity="0" result="BackgroundImageFix"/>
<feBlend mode="normal" in="SourceGraphic" in2="BackgroundImageFix" result="shape"/>
<feTurbulence type="fractalNoise" baseFrequency="0.99900001287460327 0.99900001287460327" numOctaves="3" seed="6748" />
<feDisplacementMap in="shape" scale="2" xChannelSelector="R" yChannelSelector="G" result="displacedImage" width="100%" height="100%" />
<feMerge result="effect1_texture_0_5">
<feMergeNode in="displacedImage"/>
</feMerge>
</filter>
</defs>
</svg>
