<svg preserveAspectRatio="none" width="100%" height="100%" overflow="visible" style="display: block;" viewBox="0 0 216.424 52.1943" fill="none" xmlns="http://www.w3.org/2000/svg">
<path id="Vector 2" d="M135.7 1.58911L34.3028 1.58911L26.4764 6.57244V12.6409H23.02L19.5635 16.5027H14.0332L10.2312 21.9891L11.6229 26.6783L4.3552 32.7468L0.55311 46.5388L2.97255 49.3337L172.992 49.3338L179.606 51.504V42.1559H186.865L189.975 37.4666L204.147 30.5706L215.553 25.0538L211.751 21.4679V16.5027L207.258 14.5719V12.641L210.705 2.12861L194.469 2.43476L196.888 0.504005H189.975L168.191 2.43476L151.609 0.504005L139.848 2.12861L135.7 1.58911Z" stroke="url(#paint0_linear_0_9)"/>
<defs>
<linearGradient id="paint0_linear_0_9" x1="3.1005" y1="48.2487" x2="214.094" y2="5.92944" gradientUnits="userSpaceOnUse">
<stop stop-color="#C8FE4E"/>
<stop offset="0.166667" stop-color="#C8FE4E" stop-opacity="0"/>
<stop offset="0.333333" stop-color="#C8FE4E" stop-opacity="0"/>
<stop offset="0.5" stop-color="#C8FE4E" stop-opacity="0"/>
<stop offset="0.666667" stop-color="#C8FE4E"/>
<stop offset="0.833333" stop-color="#C8FE4E" stop-opacity="0"/>
<stop offset="1" stop-color="#C8FE4E"/>
</linearGradient>
</defs>
</svg>
