<svg preserveAspectRatio="none" width="100%" height="100%" overflow="visible" style="display: block;" viewBox="0 0 18 22" fill="none" xmlns="http://www.w3.org/2000/svg">
<path id="Vector" d="M16.7727 2.53846L12.5186 0H6.68855L2.22764 2.53846L0.0781752 6.64505L0 7.76818L2.60161 10.4367L2.9615 11.0786L1.32686 12.0119L0.8226 12.0596C0.750763 12.2294 0.735269 12.2657 0.664137 12.4356L1.9086 14.0137L2.77839 13.7585L1.19235 16.2692L2.22764 19.5078L2.42765 20.7162C2.99037 21.201 3.35519 21.5152 3.91791 22L8.44643 21.3034L9.92683 17.8337L10.6163 18.3967L13.5616 16.894L13.125 16.1483L12.5186 13.9767L13.7123 13.1308L14.5533 13.7514L18 9.56022L16.7727 2.53846ZM5.83355 17.4406L4.97222 17.3354L4.50599 16.5798L3.95735 16.1817L3.45238 17.2309L3.1918 17.4456L2.51851 16.8158L2.75585 15.5235L3.56084 13.7585L4.73347 13.8544L6.25964 16.9132L5.83355 17.4406ZM13.1517 10.409L12.1228 11.4624L9.50567 12.3162L6.33359 11.3224L6.05118 11.0601L6.68855 10.4175L8.67321 9.0932L9.3289 8.75057L11.4234 7.79164L13.2863 7.52507L13.6602 8.3006L13.8032 8.57997L13.1517 10.409Z" fill="var(--fill-0, #F8EFFF)"/>
</svg>
