<svg preserveAspectRatio="none" width="100%" height="100%" overflow="visible" style="display: block;" viewBox="0 0 535 715" fill="none" xmlns="http://www.w3.org/2000/svg">
<g id="Vector">
<path d="M335.936 502.137L292.253 529.629L284.189 557.051L212.498 566.047L187.461 540.361L184.782 522.906L173.658 486.315L179.39 474.267L164.013 455.09L168.85 443.773C169.259 442.801 169.495 442.257 169.765 441.624L170.23 440.542L164.991 419.443L159.71 414.112L162.909 389.279L155.401 353.846L155.068 333.808L159.696 275.34L207.065 287.229L245.141 257.547L274.592 276.345L346.366 232.949L360.474 336.473L367.157 365.239L365.804 380.276L366.373 382.219L379.086 428.467L331.433 489.552L335.936 502.137ZM382.888 429.218L369.704 381.254L369.315 379.939L370.661 364.998L363.888 335.853L349.093 227.266L274.641 272.281L244.94 253.325L206.26 283.475L156.56 271L151.598 333.704L151.938 354.231L159.391 389.417L156.053 415.331L161.848 421.186L166.587 440.246L166.358 440.769C166.164 441.231 165.956 441.72 165.657 442.429L160.016 455.634L175.331 474.736L169.953 486.039L181.389 523.663L184.199 541.966L211.215 569.677L286.882 560.185L295.216 531.84L340.135 503.577L335.34 490.172L382.888 429.218Z" fill="url(#paint0_linear_0_4)"/>
<path d="M148.288 259.559L200.174 272.584L219.84 261.343L242.636 243.578L253.649 248.096L274.766 261.577L356.276 212.291L372.104 328.449L378.53 358.502L379.065 360.81L378.565 377.617L379.183 379.801L380.092 384.581L390.196 421.337L391.084 433.53L381.542 445.756L373.721 461.786L344.097 494.243L337.914 503.701L341.016 518.525L291.85 544.7L279.262 570.29L241.991 574.967L202.957 574.279L175.581 546.195L172.77 527.879L168.225 511.822L161.417 489.422L165.456 477.009L150.37 458.19L149.551 456.854L154.631 444.971C155.005 444.09 155.345 443.291 155.595 442.719L156.081 441.582L155.956 440.797L151.737 419.374L147.074 413.485L148.156 405.06L149.634 387.454L146.366 368.683L143.07 347.57L143.104 325.115L148.295 259.552L148.288 259.559ZM145.151 255.219L139.607 325.259L139.579 348.177L142.73 368.284L146.109 387.626L144.638 405.115L143.396 414.78L148.517 421.241L152.493 441.141L152.257 441.686C152.084 442.106 151.792 442.781 151.522 443.428L145.596 457.301L146.831 459.326L161.334 477.408L157.552 489.063L158.392 491.392L164.97 513.028L169.377 528.582L172.326 547.807L201.708 577.95L241.519 578.501L281.962 573.424L294.813 546.994L345.083 520.116L341.772 504.362L347.733 495.249L377.906 462.164L385.956 445.736L394.72 434.501L393.735 421.096L383.45 383.679L382.534 378.892L382.118 377.418L382.632 360.775L381.785 357.125L375.567 328.077L359.017 206.601L274.828 257.506L253.351 243.798L242.49 239.314L218.883 257.712L199.48 268.851L145.158 255.219H145.151Z" fill="url(#paint1_linear_0_4)"/>
<path d="M136.887 243.777L193.297 257.933L215.364 248.909L240.138 229.594L252.004 232.143L274.96 246.794L366.206 191.626L383.756 320.41L390.404 353.818L391.001 356.374L391.354 374.952L392.014 377.376L392.728 382.894L404.317 425.043L403.11 438.586L392.173 452.61L386.754 471.56L350.794 506.622L344.43 517.843L346.123 534.898L291.476 559.765L274.356 583.523L233.906 588.599L193.436 582.503L163.728 552.023L160.786 532.845L156.317 515.969L149.19 492.521L151.536 479.737L135.735 460.036L135.089 458.603L140.405 446.163C140.738 445.371 141.189 444.324 141.411 443.8L141.925 442.609L141.862 441.789L138.483 419.298L134.43 412.851L135.568 404.034L136.352 385.635L133.341 364.764L130.731 341.302L131.127 316.428L136.88 243.764L136.887 243.777ZM133.75 239.438L127.629 316.814L127.234 342.122L129.739 364.399L132.848 385.835L132.064 404.103L130.759 414.215L135.207 421.275L138.42 442.016L138.17 442.588C138.011 442.967 137.643 443.828 137.4 444.406L131.189 458.941L132.154 461.111L147.351 480.06L145.165 492.074L146.151 494.457L153.042 517.126L157.372 533.493L160.467 553.641L192.221 586.216L233.351 592.154L277.056 586.671L294.425 562.155L350.044 536.662L348.219 518.566L354.347 507.765L390.924 472.056L396.517 452.665L406.559 439.798L407.87 424.919L396.094 382.074L395.379 376.563L394.928 374.931L394.609 356.58L393.672 352.537L387.246 320.32L368.94 185.95L275.015 242.737L251.713 227.865L240.034 225.317L214.421 245.286L192.707 254.241L133.764 239.445L133.75 239.438Z" fill="url(#paint2_linear_0_4)"/>
<path d="M125.478 227.996L186.406 243.288L210.875 236.49L237.633 215.625L250.346 216.197L275.133 232.019L376.115 170.961L395.386 312.378L402.263 349.134L402.915 351.945L404.116 372.299L404.824 374.972L405.337 381.227L418.404 428.77L415.101 443.669L402.763 459.485L399.744 481.355L357.448 519.027L350.912 532.012L351.203 551.306L291.08 574.857L269.436 596.783L225.815 602.259L183.915 590.755L151.869 557.878L148.795 537.839L144.409 520.136L136.963 495.649L137.615 482.499L121.106 461.91L120.641 460.387L126.2 447.382C126.498 446.673 127.053 445.378 127.255 444.916L127.789 443.676V442.822L125.242 419.264L121.807 412.259L122.994 403.042L123.091 383.844L120.343 360.879L118.414 335.068L119.177 307.77L125.492 228.01L125.478 227.996ZM122.342 223.657L115.638 308.362L114.875 336.053L116.735 360.507L119.573 384.03L119.469 403.083L118.109 413.643L121.884 421.31L124.34 442.891L124.083 443.483C123.945 443.821 123.494 444.868 123.278 445.385L116.783 460.587L117.477 462.902L133.368 482.719L132.778 495.084L133.917 497.522L141.12 521.225L145.367 538.397L148.6 559.462L182.728 594.468L225.177 605.786L272.142 599.896L294.029 577.296L354.999 553.193L354.659 532.749L360.953 520.26L403.936 481.934L407.079 459.581L418.397 445.075L422.006 428.715L408.738 380.435L408.224 374.194L407.745 372.403L406.586 352.351L405.559 347.915L398.932 312.537L378.864 165.278L275.203 227.955L250.075 211.919L237.577 211.299L209.952 232.832L185.92 239.603L122.356 223.65L122.342 223.657Z" fill="url(#paint3_linear_0_4)"/>
<path d="M114.07 212.215L179.522 228.644L206.385 224.063L235.128 201.655L248.687 200.257L275.314 217.251L386.032 150.31L407.024 304.36L414.123 344.471L414.83 347.529L416.884 369.654L417.634 372.568L417.946 379.56L432.498 432.496L427.099 448.746L413.359 466.359L412.742 491.15L364.11 531.426L357.393 546.167L356.283 567.693L290.678 589.929L264.502 610.022L217.703 615.898L174.366 598.987L139.989 563.712L136.783 542.806L132.48 524.276L124.722 498.748L123.681 485.233L106.464 463.763L106.18 462.151L111.981 448.581C112.245 447.961 112.904 446.411 113.078 446.011L113.633 444.716L113.695 443.828L111.981 419.202L109.157 411.639L110.392 402.023L109.802 382.026L107.318 356.959L106.069 328.8L107.2 299.084L114.077 212.222L114.07 212.215ZM110.933 207.876L103.647 299.917L102.516 329.998L103.73 356.622L106.298 382.239L106.881 402.078L105.465 413.092L108.567 421.358L110.26 443.773L109.989 444.393C109.865 444.689 109.337 445.922 109.15 446.376L102.37 462.247L102.793 464.706L119.379 485.392L120.385 498.108L121.669 500.608L129.184 525.344L133.354 543.323L136.734 565.31L173.228 602.748L216.995 619.445L267.222 613.143L293.627 592.457L359.947 569.739L361.085 546.953L367.552 532.783L416.94 491.832L417.627 466.518L430.215 450.379L436.12 432.545L421.353 378.83L421.034 371.859L420.528 369.902L418.536 348.142L417.412 343.32L410.577 304.773L388.752 144.627L275.355 213.186L248.403 195.986L235.093 197.302L205.455 220.405L179.106 224.993L110.926 207.882L110.933 207.876Z" fill="url(#paint4_linear_0_4)"/>
<path d="M102.661 196.434L172.631 213.992L201.895 211.63L232.623 187.672L247.036 184.304L275.494 202.468L395.948 129.638L418.661 296.321L425.982 339.78L426.752 343.086L429.66 366.982L430.458 370.137L430.569 377.858L446.599 436.189L439.104 453.795L423.97 473.2L425.753 500.911L370.786 543.791L363.895 560.295L361.383 584.06L290.296 604.987L259.596 623.248L209.618 629.516L164.852 607.198L128.136 569.533L124.798 547.766L120.579 528.416L112.502 501.848L109.767 487.968L91.843 465.609L91.7389 463.9L97.7761 449.772C97.9982 449.242 98.7685 447.444 98.9212 447.093L99.4971 445.743L99.6151 444.82L98.7407 419.126L96.534 410.998L97.8247 400.982L96.5409 380.194L94.3134 353.026L93.7513 322.518L95.2502 290.384L102.689 196.427L102.661 196.434ZM99.5249 192.094L91.6556 291.472L90.1567 323.944L90.7257 352.744L93.0227 380.455L94.2856 401.079L92.8075 412.541L95.2363 421.413L96.1662 444.668L95.8886 445.309C95.7845 445.564 95.1739 446.983 95.0143 447.368L87.95 463.907L88.0957 466.511L105.375 488.064L107.977 501.132L109.414 503.687L117.248 529.456L121.342 548.241L124.861 571.151L163.728 611.021L208.814 633.098L262.309 626.389L293.224 607.618L364.895 586.285L367.518 561.149L374.152 545.293L429.944 501.724L428.182 473.441L442.047 455.662L450.242 436.354L433.983 377.204L433.865 369.503L433.331 367.388L430.507 343.927L429.292 338.712L422.249 296.996L398.669 123.955L275.536 198.404L246.758 180.033L232.63 183.277L200.979 207.944L172.312 210.355L99.511 192.081L99.5249 192.094Z" fill="url(#paint5_linear_0_4)"/>
<path d="M91.26 180.653L165.755 199.348L197.419 199.203L230.131 173.703L245.391 168.357L275.689 187.693L405.872 108.98L430.305 288.29L437.848 335.096L438.674 338.65L442.435 364.316L443.275 367.712L443.185 376.171L460.7 439.895L451.11 458.851L434.573 480.053L438.758 510.686L377.455 556.176L370.384 574.444L366.47 600.447L289.9 620.058L254.676 636.487L201.52 643.155L155.318 615.429L116.263 575.367L112.793 552.739L108.657 532.563L100.26 504.948L95.8331 490.696L77.1939 467.455L77.2633 465.657L83.5434 450.964C83.7308 450.523 84.6052 448.47 84.7301 448.181L85.3338 446.776L85.5142 445.812L85.4726 419.044L83.8765 410.357L85.2158 399.942L83.245 378.354L81.2812 349.086L81.3992 316.229L83.2589 281.677L91.26 180.625V180.653ZM88.1234 176.313L79.6782 283.027L77.8115 317.889L77.7352 348.859L79.7615 378.664L81.7114 400.066L80.1778 411.976L81.9335 421.455L82.1 445.55L81.8155 446.218C81.7253 446.425 81.0383 448.037 80.9065 448.36L73.5576 465.56L73.4327 468.309L91.4058 490.723L95.6041 504.149L97.1863 506.759L105.333 533.562L109.351 553.159L113.008 576.993L154.242 619.294L200.646 646.757L257.403 639.635L292.836 622.779L369.856 602.831L373.964 575.353L380.765 557.809L442.963 511.616L438.744 480.37L453.885 460.959L464.378 440.177L446.627 375.592L446.71 367.168L446.141 364.895L442.484 339.725L441.179 334.118L433.935 289.24L408.599 103.311L275.737 183.642L245.134 164.107L230.187 169.28L196.531 195.518L165.553 195.745L88.1304 176.313H88.1234Z" fill="url(#paint6_linear_0_4)"/>
<path d="M79.8517 164.872L158.864 184.703L192.922 186.783L227.619 159.733L243.726 152.418L275.855 172.931L415.774 88.3288L441.929 280.272L449.694 330.432L450.575 334.235L455.19 361.671L456.078 365.315L455.787 374.511L474.787 443.635L463.101 463.942L445.163 486.935L451.755 520.495L384.117 568.589L376.865 588.613L371.542 616.848L289.491 635.151L249.735 649.74L193.401 656.807L145.762 623.682L104.376 581.222L100.774 557.733L96.7144 536.73L88.0055 508.075L81.878 493.458L62.5309 469.328L62.7808 467.441L69.2969 452.183C69.4426 451.832 70.428 449.524 70.5321 449.297L71.1566 447.844L71.3995 446.845L72.1906 419.009L71.2121 409.765L72.6069 398.95L69.9422 376.563L68.2351 345.194L69.0332 309.988L71.2607 273.011L79.8239 164.858L79.8517 164.872ZM76.7151 160.532L67.6869 274.575L65.4524 311.82L64.7238 344.96L66.4795 376.853L69.1095 399.04L67.5204 411.404L68.6029 421.482L68.0061 446.418L67.7077 447.107C67.6383 447.272 66.8681 449.07 66.764 449.331L59.1306 467.2L58.7351 470.093L77.4021 493.375L83.1965 507.152L84.9244 509.825L93.3835 537.654L97.3251 558.057L101.128 582.813L144.735 627.546L192.457 660.389L252.476 652.861L292.426 637.92L374.797 619.356L380.39 589.529L387.357 570.304L455.96 521.493L449.285 487.286L465.703 466.235L478.493 443.972L459.25 373.953L459.534 364.798L458.937 362.367L454.447 335.495L453.053 329.502L445.6 281.456L418.508 82.6391L275.911 168.86L243.49 148.161L227.73 155.269L192.062 183.078L158.767 181.121L76.722 160.532H76.7151Z" fill="url(#paint7_linear_0_4)"/>
<path d="M68.4433 149.091L151.98 170.052L188.439 174.35L225.121 145.757L242.074 136.471L276.042 158.156L425.697 67.6708L453.58 272.247L461.574 325.755L462.518 329.812L467.979 359.026L468.916 362.911L468.43 372.844L488.908 447.361L475.134 469.025L455.794 493.816L464.787 530.297L390.806 581.002L383.381 602.789L376.657 633.263L289.123 650.25L244.843 663.007L185.331 670.474L136.262 631.941L92.5369 587.084L88.8035 562.734L84.8272 540.905L75.7991 511.209L67.9784 496.227L47.9235 471.216L48.3537 469.232L55.1127 453.409C55.2237 453.148 56.3202 450.592 56.3896 450.42L57.0349 448.911L57.3403 447.878L58.971 418.975L58.6032 409.173L60.0466 397.965L56.6949 374.786L55.2515 341.316L56.7365 303.761L59.3319 264.367L68.4572 149.118L68.4433 149.091ZM65.3067 144.751L55.6956 266.13L53.0934 305.765L51.7194 341.082L53.1974 375.069L56.5145 398.041L54.8629 410.853L55.2723 421.537L53.9191 447.313L53.6138 448.03C53.5583 448.154 52.7117 450.137 52.6284 450.337L44.7106 468.874L44.0444 471.911L63.4053 496.062L70.7958 510.19L72.6763 512.918L81.4477 541.78L85.306 562.989L89.2476 588.668L135.221 635.833L184.262 674.056L247.542 666.114L292.01 653.088L379.724 635.908L386.802 603.74L393.936 582.827L468.944 531.392L459.819 494.223L477.514 471.539L492.6 447.802L471.865 372.348L472.351 362.463L471.727 359.873L466.397 331.293L464.912 324.908L457.258 273.7L428.411 61.9879L276.077 154.092L241.831 132.228L225.253 141.266L187.572 170.637L151.959 166.504L65.2928 144.751H65.3067Z" fill="url(#paint8_linear_0_4)"/>
<path d="M57.0349 133.31L145.089 155.407L183.95 161.924L222.616 131.78L240.422 120.525L276.223 143.38L435.614 47.0058L465.217 264.208L473.434 321.064L474.433 325.369L480.748 356.353L481.726 360.479L481.039 371.142L503.002 451.054L487.132 474.067L466.397 500.649L477.792 540.051L397.475 593.359L389.869 616.91L381.743 649.616L288.735 665.287L239.923 676.212L177.232 684.078L126.727 640.138L80.6705 592.884L76.7983 567.673L72.9053 545.024L63.558 514.288L54.044 498.934L33.2744 473.034L33.8851 470.961L40.8869 454.58C40.9633 454.401 42.1638 451.598 42.2124 451.481L42.8786 449.917L43.2463 448.849L45.7098 418.878L45.9596 408.518L47.4516 396.911L43.4129 372.933L42.2332 337.369L44.3983 297.472L47.3614 255.66L57.0488 133.316L57.0349 133.31ZM53.8983 128.97L43.7113 257.685L40.7412 299.711L38.7219 337.197L39.9293 373.278L43.9264 397.035L42.2193 410.302L41.9556 421.585L39.8391 448.202L39.5199 448.939C39.4852 449.022 38.5553 451.198 38.4998 451.322L30.2974 470.52L29.3606 473.702L49.4224 498.721L58.4089 513.2L60.4352 515.983L69.5259 545.878L73.3078 567.893L77.3882 594.489L125.735 644.085L176.094 687.695L242.643 679.346L291.628 668.235L384.693 652.447L393.256 617.93L400.556 595.329L481.969 541.277L470.387 501.139L489.36 476.816L506.736 451.605L484.502 370.715L485.182 360.1L484.53 357.352L478.368 327.071L476.792 320.293L468.93 265.916L438.32 41.3161L276.251 139.309L240.18 116.282L222.783 127.248L183.089 158.19L145.165 151.874L53.8775 128.963L53.8983 128.97Z" fill="url(#paint9_linear_0_4)"/>
<path d="M45.6335 117.528L138.205 140.763L179.46 149.497L220.111 117.811L238.764 104.578L276.403 128.605L445.53 26.3478L476.855 256.183L485.293 316.394L486.348 320.947L493.516 353.701L494.543 358.068L493.655 369.468L517.096 454.773L499.13 479.137L476.994 507.517L490.789 549.839L404.137 605.758L396.351 631.073L386.823 666.017L288.332 680.379L234.996 689.472L169.127 697.738L117.186 648.39L68.7903 598.739L64.7862 572.667L60.9765 549.191L51.3169 517.409L40.1097 501.69L18.6323 474.908L19.4164 472.745L26.6542 455.8C26.6889 455.71 28.0005 452.652 28.0213 452.597L28.7152 450.978L29.1385 449.876L32.4348 418.837L33.2952 407.919L34.8427 395.913L30.1101 371.142L29.1871 333.477L32.0323 291.231L35.3632 247.001L45.6127 117.556L45.6335 117.528ZM42.4969 113.189L31.7269 249.24L28.3891 293.656L25.7244 333.319L26.6612 371.487L31.3453 396.023L29.5827 409.738L28.6458 421.627L25.766 449.077L25.4398 449.841C25.419 449.883 24.4128 452.245 24.3851 452.307L15.8982 472.173L14.6838 475.5L35.4395 501.38L46.0221 516.217L48.2011 519.062L57.604 549.99L61.3096 572.818L65.5357 600.337L116.249 652.365L167.927 701.354L237.737 692.592L291.24 683.396L389.654 668.993L399.703 632.134L407.169 607.845L494.987 551.168L480.956 508.068L501.205 482.106L520.878 455.414L497.152 369.09L498.034 357.751L497.347 354.838L490.352 322.848L488.686 315.684L480.616 258.14L448.251 20.6512L276.445 124.527L238.549 100.335L220.34 113.237L178.641 145.743L138.399 137.243L42.4969 113.175V113.189Z" fill="url(#paint10_linear_0_4)"/>
<path d="M503.793 559.62L410.806 618.143L391.91 682.398L161.029 711.37L56.9239 604.567L49.0616 553.331L39.0827 520.508L3.99709 476.754L15.0585 450.868L22.2685 394.873L16.8489 369.303L16.1896 329.537L34.2251 101.747L174.977 137.071L237.112 88.6319L276.584 113.829L455.447 5.68286L497.152 311.71L507.36 355.65L506.271 367.788L531.197 458.486L487.597 514.378L503.793 559.62ZM535 459.237L509.782 367.478L510.865 355.409L500.567 311.09L458.174 0L276.632 109.765L236.911 84.4094L174.172 133.316L31.0885 97.4076L12.7199 329.427L13.3861 369.689L18.7503 395.01L11.679 449.958L0 477.298L35.953 522.134L45.6682 554.096L53.6624 606.172L159.745 715L394.602 685.532L413.769 620.355L507.992 561.06L491.504 514.998L535 459.237Z" fill="url(#paint11_linear_0_4)"/>
</g>
<defs>
<linearGradient id="paint0_linear_0_4" x1="37.875" y1="281.606" x2="535" y2="357.5" gradientUnits="userSpaceOnUse">
<stop stop-color="#78982F" stop-opacity="0"/>
<stop offset="1" stop-color="#C8FE4E"/>
</linearGradient>
<linearGradient id="paint1_linear_0_4" x1="37.875" y1="281.606" x2="535" y2="357.5" gradientUnits="userSpaceOnUse">
<stop stop-color="#78982F" stop-opacity="0"/>
<stop offset="1" stop-color="#C8FE4E"/>
</linearGradient>
<linearGradient id="paint2_linear_0_4" x1="37.875" y1="281.606" x2="535" y2="357.5" gradientUnits="userSpaceOnUse">
<stop stop-color="#78982F" stop-opacity="0"/>
<stop offset="1" stop-color="#C8FE4E"/>
</linearGradient>
<linearGradient id="paint3_linear_0_4" x1="37.875" y1="281.606" x2="535" y2="357.5" gradientUnits="userSpaceOnUse">
<stop stop-color="#78982F" stop-opacity="0"/>
<stop offset="1" stop-color="#C8FE4E"/>
</linearGradient>
<linearGradient id="paint4_linear_0_4" x1="37.875" y1="281.606" x2="535" y2="357.5" gradientUnits="userSpaceOnUse">
<stop stop-color="#78982F" stop-opacity="0"/>
<stop offset="1" stop-color="#C8FE4E"/>
</linearGradient>
<linearGradient id="paint5_linear_0_4" x1="37.875" y1="281.606" x2="535" y2="357.5" gradientUnits="userSpaceOnUse">
<stop stop-color="#78982F" stop-opacity="0"/>
<stop offset="1" stop-color="#C8FE4E"/>
</linearGradient>
<linearGradient id="paint6_linear_0_4" x1="37.875" y1="281.606" x2="535" y2="357.5" gradientUnits="userSpaceOnUse">
<stop stop-color="#78982F" stop-opacity="0"/>
<stop offset="1" stop-color="#C8FE4E"/>
</linearGradient>
<linearGradient id="paint7_linear_0_4" x1="37.875" y1="281.606" x2="535" y2="357.5" gradientUnits="userSpaceOnUse">
<stop stop-color="#78982F" stop-opacity="0"/>
<stop offset="1" stop-color="#C8FE4E"/>
</linearGradient>
<linearGradient id="paint8_linear_0_4" x1="37.875" y1="281.606" x2="535" y2="357.5" gradientUnits="userSpaceOnUse">
<stop stop-color="#78982F" stop-opacity="0"/>
<stop offset="1" stop-color="#C8FE4E"/>
</linearGradient>
<linearGradient id="paint9_linear_0_4" x1="37.875" y1="281.606" x2="535" y2="357.5" gradientUnits="userSpaceOnUse">
<stop stop-color="#78982F" stop-opacity="0"/>
<stop offset="1" stop-color="#C8FE4E"/>
</linearGradient>
<linearGradient id="paint10_linear_0_4" x1="37.875" y1="281.606" x2="535" y2="357.5" gradientUnits="userSpaceOnUse">
<stop stop-color="#78982F" stop-opacity="0"/>
<stop offset="1" stop-color="#C8FE4E"/>
</linearGradient>
<linearGradient id="paint11_linear_0_4" x1="37.875" y1="281.606" x2="535" y2="357.5" gradientUnits="userSpaceOnUse">
<stop stop-color="#78982F" stop-opacity="0"/>
<stop offset="1" stop-color="#C8FE4E"/>
</linearGradient>
</defs>
</svg>
